<?xml version="1.0" standalone="no"?><!DOCTYPE svg PUBLIC "-//W3C//DTD SVG 1.1//EN" "http://www.w3.org/Graphics/SVG/1.1/DTD/svg11.dtd" ><svg xmlns="http://www.w3.org/2000/svg"><metadata></metadata><defs><font id="1.206;CTDB;FiraCode-Medium" horiz-adv-x="601"><font-face font-family="Fira Code Medium" font-weight="500" font-stretch="normal" units-per-em="1000" panose-1="2 11 6 9 5 0 0 2 0 4" ascent="935" descent="-265" x-height="4" bbox="-1786 -500 1192 1050" underline-thickness="50" underline-position="-75" unicode-range="U+000d-f310" /><missing-glyph horiz-adv-x="600" d="M90 1050 l420 0 l0 -1400 l-420 0 l0 1400 ZM456 -298 l0 1296 l-311 0 l0 -1296 l311 0 ZM307 173 q0 -11 -7.5 -17.5 q-7.5 -6.5 -17.5 -6.5 q-10 0 -17.5 6.5 q-7.5 6.5 -7.5 17.5 l0 84 q53 3 72 19.5 q19 16.5 19 57.5 q0 33 -13 51 q-13 18 -48 18 q-29 0 -52 -11 q-7 -3 -13 -3 q-11 0 -17.5 6.5 q-6.5 6.5 -6.5 16.5 q0 19 29.5 29 q29.5 10 63.5 10 q60 0 85.5 -32 q25.5 -32 25.5 -83 q0 -53 -22.5 -82 q-22.5 -29 -72.5 -36 l0 -45 ZM247 85 q0 15 10 25 q10 10 25 10 q15 0 25 -10 q10 -10 10 -25 q0 -16 -10 -26.5 q-10 -10.5 -25 -10.5 q-15 0 -25 10.5 q-10 10.5 -10 26.5 Z" /><glyph glyph-name="nonmarkingreturn" unicode="" d="" /><glyph glyph-name="space" unicode=" " d="" /><glyph glyph-name="A" unicode="a" d="M421 166 l-246 0 l-48 -166 l-119 0 l220 690 l144 0 l220 -690 l-123 0 l-48 166 ZM199 256 l198 0 l-99 344 l-99 -344 Z" /><glyph glyph-name="Aogonek" unicode="&#x104;" d="M537 0 q-69 -28 -94.5 -54.5 q-25.5 -26.5 -25.5 -58.5 q0 -48 56 -48 q28 0 59 7 l-10 -77 q-33 -7 -62 -7 q-59 0 -96 29.5 q-37 29.5 -37 77.5 q0 51 34 87 q34 36 103 63 l-43 147 l-246 0 l-48 -166 l-119 0 l220 690 l144 0 l220 -690 l-55 0 ZM199 256 l198 0 l-99 344 l-99 -344 Z" /><glyph glyph-name="AE" unicode="æ" d="M324 167 l-180 0 l-41 -167 l-115 0 l192 690 l386 0 l-13 -86 l-216 0 l45 -211 l175 0 l0 -86 l-160 0 l46 -221 l163 0 l0 -86 l-251 0 l-31 167 ZM164 254 l143 0 l-65 352 l-78 -352 Z" /><glyph glyph-name="B" unicode="b" d="M552 199 q0 -107 -76 -153 q-76 -46 -193 -46 l-202 0 l0 690 l189 0 q110 0 181 -40.5 q71 -40.5 71 -134.5 q0 -60 -36.5 -98.5 q-36.5 -38.5 -91.5 -50.5 q68 -12 113 -50.5 q45 -38.5 45 -116.5 ZM404 506 q0 51 -31.5 74 q-31.5 23 -92.5 23 l-83 0 l0 -199 l90 0 q59 0 88 24.5 q29 24.5 29 77.5 ZM431 199 q0 65 -36 91.5 q-36 26.5 -100 26.5 l-98 0 l0 -227 l94 0 q140 0 140 109 Z" /><glyph glyph-name="C" unicode="c" d="M358 704 q68 0 116 -17 q48 -17 92 -53 l-60 -72 q-63 51 -143 51 q-84 0 -137 -64.5 q-53 -64.5 -53 -202.5 q0 -136 52 -200.5 q52 -64.5 139 -64.5 q50 0 85.5 15.5 q35.5 15.5 70.5 43.5 l56 -71 q-84 -82 -216 -82 q-89 0 -159 41.5 q-70 41.5 -109.5 122.5 q-39.5 81 -39.5 195 q0 112 40.5 193 q40.5 81 110.5 123 q70 42 155 42 Z" /><glyph glyph-name="Ccedilla" unicode="ç" d="M375 -54 q48 -4 72.5 -28.5 q24.5 -24.5 24.5 -60.5 q0 -48 -38 -76 q-38 -28 -95 -28 q-31 0 -60 7 q-29 7 -49 19 l30 58 q34 -17 66 -17 q57 0 57 38 q0 23 -21.5 31 q-21.5 8 -66.5 8 l8 95 q-114 19 -182.5 110.5 q-68.5 91.5 -68.5 243.5 q0 112 40.5 193 q40.5 81 110.5 123 q70 42 155 42 q68 0 116 -17 q48 -17 92 -53 l-60 -72 q-63 51 -143 51 q-84 0 -137 -64.5 q-53 -64.5 -53 -202.5 q0 -136 52 -200.5 q52 -64.5 139 -64.5 q50 0 85.5 15.5 q35.5 15.5 70.5 43.5 l56 -71 q-79 -77 -201 -82 l0 -41 Z" /><glyph glyph-name="D" unicode="d" d="M561 349 q0 -196 -91 -272.5 q-91 -76.5 -230 -76.5 l-169 0 l0 690 l158 0 q150 0 241 -72.5 q91 -72.5 91 -268.5 ZM439 349 q0 148 -51.5 200 q-51.5 52 -136.5 52 l-64 0 l0 -513 l65 0 q187 0 187 261 Z" /><glyph glyph-name="Eth" unicode="ð" d="M240 690 q150 0 241 -72.5 q91 -72.5 91 -268.5 q0 -196 -91 -272.5 q-91 -76.5 -230 -76.5 l-169 0 l0 314 l-66 0 l0 78 l66 0 l0 298 l158 0 ZM263 88 q187 0 187 261 q0 148 -51.5 200 q-51.5 52 -136.5 52 l-64 0 l0 -209 l144 0 l0 -78 l-144 0 l0 -226 l65 0 Z" /><glyph glyph-name="E" unicode="e" d="M229 602 l0 -208 l250 0 l0 -87 l-250 0 l0 -219 l305 0 l0 -88 l-421 0 l0 690 l415 0 l-13 -88 l-286 0 Z" /><glyph glyph-name="Eogonek" unicode="&#x118;" d="M534 88 l0 -88 l-66 0 q-69 -28 -94.5 -54.5 q-25.5 -26.5 -25.5 -58.5 q0 -48 56 -48 q28 0 59 7 l-10 -77 q-33 -7 -62 -7 q-59 0 -96 29.5 q-37 29.5 -37 77.5 q0 43 23.5 74.5 q23.5 31.5 71.5 56.5 l-240 0 l0 690 l415 0 l-13 -88 l-286 0 l0 -208 l250 0 l0 -87 l-250 0 l0 -219 l305 0 Z" /><glyph glyph-name="F" unicode="f" d="M243 602 l0 -220 l260 0 l0 -88 l-260 0 l0 -294 l-116 0 l0 690 l424 0 l-12 -88 l-296 0 Z" /><glyph glyph-name="G" unicode="g" d="M318 -13 q-134 0 -207.5 91.5 q-73.5 91.5 -73.5 267.5 q0 114 40.5 195 q40.5 81 109 122 q68.5 41 151.5 41 q67 0 114.5 -19.5 q47.5 -19.5 90.5 -60.5 l-65 -67 q-32 29 -64.5 42.5 q-32.5 13.5 -72.5 13.5 q-80 0 -131.5 -64.5 q-51.5 -64.5 -51.5 -202.5 q0 -142 40.5 -205.5 q40.5 -63.5 124.5 -63.5 q64 0 114 29 l0 190 l-117 0 l-12 89 l242 0 l0 -335 q-53 -30 -108.5 -46.5 q-55.5 -16.5 -123.5 -16.5 Z" /><glyph glyph-name="H" unicode="h" d="M413 0 l0 314 l-226 0 l0 -314 l-116 0 l0 690 l116 0 l0 -281 l226 0 l0 281 l116 0 l0 -690 l-116 0 Z" /><glyph glyph-name="Hbar" unicode="&#x126;" d="M598 581 l0 -75 l-71 0 l0 -506 l-116 0 l0 315 l-222 0 l0 -315 l-116 0 l0 506 l-71 0 l0 75 l71 0 l0 109 l116 0 l0 -109 l222 0 l0 109 l116 0 l0 -109 l71 0 ZM411 408 l0 98 l-222 0 l0 -98 l222 0 Z" /><glyph glyph-name="I" unicode="i" d="M508 690 l0 -88 l-150 0 l0 -513 l150 0 l0 -89 l-416 0 l0 89 l150 0 l0 513 l-150 0 l0 88 l416 0 Z" /><glyph glyph-name="IJ" unicode="&#x132;" d="M189 -71 q95 12 147 43.5 q52 31.5 71.5 82 q19.5 50.5 19.5 127.5 l0 425 l-214 0 l0 -524 l69 0 l0 -83 l-272 0 l0 83 l90 0 l0 524 l-90 0 l0 83 l531 0 l0 -509 q0 -139 -76 -226 q-76 -87 -262 -109 l-14 83 Z" /><glyph glyph-name="Iogonek" unicode="&#x12e;" d="M358 602 l0 -513 l150 0 l0 -89 l-150 0 q-69 -28 -94.5 -54.5 q-25.5 -26.5 -25.5 -58.5 q0 -48 56 -48 q28 0 59 7 l-10 -77 q-33 -7 -62 -7 q-59 0 -96 29.5 q-37 29.5 -37 77.5 q0 43 23.5 74.5 q23.5 31.5 71.5 56.5 l-151 0 l0 89 l150 0 l0 513 l-150 0 l0 88 l416 0 l0 -88 l-150 0 Z" /><glyph glyph-name="J" unicode="j" d="M508 237 q0 -109 -62.5 -179.5 q-62.5 -70.5 -189.5 -70.5 q-109 0 -196 64 l47 73 q39 -25 74 -35.5 q35 -10.5 71 -10.5 q65 0 102.5 42 q37.5 42 37.5 119 l0 362 l-207 0 l0 89 l323 0 l0 -453 Z" /><glyph glyph-name="K" unicode="k" d="M204 0 l-116 0 l0 690 l116 0 l0 -690 ZM209 369 l239 321 l128 0 l-241 -314 l260 -376 l-139 0 l-247 369 Z" /><glyph glyph-name="L" unicode="l" d="M120 0 l0 690 l115 0 l0 -593 l310 0 l-13 -97 l-412 0 Z" /><glyph glyph-name="Lslash" unicode="&#x141;" d="M239 97 l310 0 l-13 -97 l-412 0 l0 253 l-53 -33 l-43 69 l96 58 l0 343 l115 0 l0 -271 l150 93 l44 -67 l-194 -121 l0 -227 Z" /><glyph glyph-name="M" unicode="m" d="M575 0 l-107 0 l-16 336 q-3 66 -3 127 q0 79 3 125 l-102 -466 l-101 0 l-109 466 q4 -51 4 -157 q0 -64 -1 -96 l-14 -335 l-104 0 l39 690 l139 0 l99 -462 l94 462 l140 0 l39 -690 Z" /><glyph glyph-name="N" unicode="n" d="M158 587 q16 -164 16 -274 l0 -313 l-103 0 l0 690 l151 0 l220 -587 q-7 74 -11.5 133.5 q-4.5 59.5 -4.5 139.5 l0 314 l103 0 l0 -690 l-151 0 l-220 587 Z" /><glyph glyph-name="Eng" unicode="&#x14a;" d="M529 690 l0 -739 q0 -83 -43.5 -126 q-43.5 -43 -122.5 -43 q-68 0 -121 40 l43 70 q20 -11 34.5 -16 q14.5 -5 35.5 -5 q58 0 58 72 l0 57 l-35 0 l-220 587 q16 -164 16 -274 l0 -313 l-103 0 l0 690 l151 0 l220 -587 q-7 74 -11.5 133.5 q-4.5 59.5 -4.5 139.5 l0 314 l103 0 Z" /><glyph glyph-name="O" unicode="o" d="M562 345 q0 -164 -67.5 -261 q-67.5 -97 -194.5 -97 q-127 0 -194.5 95.5 q-67.5 95.5 -67.5 261.5 q0 164 67.5 262 q67.5 98 194.5 98 q127 0 194.5 -96.5 q67.5 -96.5 67.5 -262.5 ZM443 345 q0 136 -34 202 q-34 66 -109 66 q-75 0 -109 -66 q-34 -66 -34 -203 q0 -135 34.5 -201 q34.5 -66 108.5 -66 q75 0 109 66 q34 66 34 202 Z" /><glyph glyph-name="Oslash" unicode="ø" d="M443 659 q58 -43 88.5 -124 q30.5 -81 30.5 -190 q0 -164 -67.5 -261 q-67.5 -97 -194.5 -97 q-30 0 -59 6 l-31 -103 l-89 25 l37 116 q-58 43 -89 123.5 q-31 80.5 -31 189.5 q0 164 67.5 262 q67.5 98 194.5 98 q33 0 60 -7 l31 106 l88 -25 l-36 -119 ZM300 614 q-76 0 -110 -66 q-34 -66 -34 -204 q0 -83 11 -138 q11 -55 34 -86 l141 489 q-20 5 -42 5 ZM300 76 q76 0 110 66 q34 66 34 203 q0 84 -11 139 q-11 55 -34 86 l-141 -489 q22 -5 42 -5 Z" /><glyph glyph-name="OE" unicode="&#x152;" d="M217 704 q38 0 80 -14 l307 0 l-13 -86 l-220 0 q48 -66 55 -211 l141 0 l0 -86 l-141 0 q-4 -148 -60 -221 l243 0 l0 -86 l-315 0 q-41 -13 -77 -13 q-109 0 -161.5 90 q-52.5 90 -52.5 267 q0 175 53 267.5 q53 92.5 161 92.5 ZM217 617 q-55 0 -79 -63 q-24 -63 -24 -210 q0 -145 25 -208.5 q25 -63.5 78 -63.5 q56 0 80.5 63.5 q24.5 63.5 24.5 209.5 q0 100 -10.5 159 q-10.5 59 -33.5 86 q-23 27 -61 27 Z" /><glyph glyph-name="P" unicode="p" d="M564 473 q0 -116 -72 -171.5 q-72 -55.5 -197 -55.5 l-84 0 l0 -246 l-115 0 l0 690 l191 0 q133 0 205 -54.5 q72 -54.5 72 -162.5 ZM443 473 q0 130 -148 130 l-84 0 l0 -269 l85 0 q70 0 108.5 32 q38.5 32 38.5 107 Z" /><glyph glyph-name="Thorn" unicode="þ" d="M205 575 l82 0 q133 0 205 -55 q72 -55 72 -165 q0 -117 -71.5 -174 q-71.5 -57 -197.5 -57 l-90 0 l0 -124 l-116 0 l0 690 l116 0 l0 -115 ZM205 488 l0 -276 l93 0 q69 0 106.5 32 q37.5 32 37.5 109 q0 70 -38 102.5 q-38 32.5 -108 32.5 l-91 0 Z" /><glyph glyph-name="Q" unicode="q" d="M562 345 q0 -113 -33.5 -192.5 q-33.5 -79.5 -110.5 -120.5 q77 -15 120.5 -51.5 q43.5 -36.5 69.5 -113.5 l-107 -40 q-23 57 -49 91.5 q-26 34.5 -65 52.5 q-39 18 -97 18 q-121 0 -185.5 94.5 q-64.5 94.5 -64.5 260.5 q0 165 67.5 262.5 q67.5 97.5 193.5 97.5 q127 0 194 -96 q67 -96 67 -263 ZM441 345 q0 137 -32.5 202.5 q-32.5 65.5 -107.5 65.5 q-75 0 -107.5 -66 q-32.5 -66 -32.5 -203 q0 -136 33.5 -201.5 q33.5 -65.5 106.5 -65.5 q75 0 107.5 65.5 q32.5 65.5 32.5 202.5 Z" /><glyph glyph-name="R" unicode="r" d="M546 490 q0 -72 -43 -120 q-43 -48 -114 -70 l196 -300 l-135 0 l-174 284 l-75 0 l0 -284 l-116 0 l0 690 l192 0 q269 0 269 -200 ZM425 490 q0 60 -34.5 87 q-34.5 27 -106.5 27 l-83 0 l0 -235 l86 0 q68 0 103 29 q35 29 35 92 Z" /><glyph glyph-name="S" unicode="s" d="M549 195 q0 -62 -31.5 -109 q-31.5 -47 -91 -73 q-59.5 -26 -141.5 -26 q-160 0 -254 92 l64 71 q78 -72 190 -72 q62 0 102.5 29 q40.5 29 40.5 82 q0 31 -12.5 52 q-12.5 21 -42.5 37.5 q-30 16.5 -86 33.5 q-115 34 -169 81 q-54 47 -54 124 q0 55 30.5 97.5 q30.5 42.5 84.5 66 q54 23.5 122 23.5 q139 0 231 -83 l-61 -69 q-71 61 -163 61 q-56 0 -90.5 -23 q-34.5 -23 -34.5 -66 q0 -27 14.5 -46 q14.5 -19 49 -34.5 q34.5 -15.5 97.5 -34.5 q100 -30 152.5 -77 q52.5 -47 52.5 -137 Z" /><glyph glyph-name="Scedilla" unicode="&#x15e;" d="M549 195 q0 -86 -60 -142 q-60 -56 -167 -65 l0 -42 q48 -4 72.5 -28.5 q24.5 -24.5 24.5 -60.5 q0 -48 -38 -76 q-38 -28 -95 -28 q-31 0 -60 7 q-29 7 -49 19 l30 58 q34 -17 66 -17 q57 0 57 38 q0 23 -21.5 31 q-21.5 8 -66.5 8 l8 91 q-136 10 -219 91 l64 71 q78 -72 190 -72 q62 0 102.5 29 q40.5 29 40.5 82 q0 31 -12.5 52 q-12.5 21 -42.5 37.5 q-30 16.5 -86 33.5 q-115 34 -169 81 q-54 47 -54 124 q0 55 30.5 97.5 q30.5 42.5 84.5 66 q54 23.5 122 23.5 q139 0 231 -83 l-61 -69 q-71 61 -163 61 q-56 0 -90.5 -23 q-34.5 -23 -34.5 -66 q0 -27 14.5 -46 q14.5 -19 49 -34.5 q34.5 -15.5 97.5 -34.5 q100 -30 152.5 -77 q52.5 -47 52.5 -137 Z" /><glyph glyph-name="T" unicode="t" d="M357 596 l0 -596 l-116 0 l0 596 l-208 0 l0 94 l535 0 l-12 -94 l-199 0 Z" /><glyph glyph-name="Tbar" unicode="&#x166;" d="M556 596 l-199 0 l0 -183 l126 0 l0 -77 l-126 0 l0 -336 l-116 0 l0 336 l-125 0 l0 77 l125 0 l0 183 l-208 0 l0 94 l535 0 l-12 -94 Z" /><glyph glyph-name="uni0162" unicode="&#x162;" d="M335 0 l0 -54 q48 -4 72.5 -28.5 q24.5 -24.5 24.5 -60.5 q0 -48 -38 -76 q-38 -28 -95 -28 q-31 0 -60 7 q-29 7 -49 19 l30 58 q34 -17 66 -17 q57 0 57 38 q0 23 -21.5 31 q-21.5 8 -66.5 8 l9 103 l-23 0 l0 596 l-208 0 l0 94 l535 0 l-12 -94 l-199 0 l0 -596 l-22 0 Z" /><glyph glyph-name="U" unicode="u" d="M539 226 q0 -70 -28.5 -124 q-28.5 -54 -82.5 -84.5 q-54 -30.5 -129 -30.5 q-113 0 -175.5 65 q-62.5 65 -62.5 174 l0 464 l116 0 l0 -442 q0 -86 29.5 -127.5 q29.5 -41.5 92.5 -41.5 q64 0 93.5 41.5 q29.5 41.5 29.5 127.5 l0 442 l117 0 l0 -464 Z" /><glyph glyph-name="Uogonek" unicode="&#x172;" d="M539 690 l0 -464 q0 -84 -40 -144 q-40 -60 -114 -83 q-68 -27 -93 -53.5 q-25 -26.5 -25 -58.5 q0 -48 56 -48 q28 0 59 7 l-10 -77 q-33 -7 -62 -7 q-59 0 -96 29.5 q-37 29.5 -37 77.5 q0 38 19.5 67.5 q19.5 29.5 57.5 53.5 q-92 13 -142.5 76 q-50.5 63 -50.5 160 l0 464 l116 0 l0 -442 q0 -86 29.5 -127.5 q29.5 -41.5 92.5 -41.5 q64 0 93.5 41.5 q29.5 41.5 29.5 127.5 l0 442 l117 0 Z" /><glyph glyph-name="V" unicode="v" d="M302 110 l165 580 l118 0 l-219 -690 l-132 0 l-219 690 l124 0 l163 -580 Z" /><glyph glyph-name="W" unicode="w" d="M598 690 l-95 -690 l-136 0 l-68 511 l-71 -511 l-138 0 l-88 690 l112 0 l54 -578 l74 498 l119 0 l69 -498 l64 578 l104 0 Z" /><glyph glyph-name="X" unicode="x" d="M38 690 l129 0 l133 -248 l135 248 l123 0 l-191 -317 l213 -373 l-129 0 l-153 293 l-154 -293 l-123 0 l208 367 l-191 323 Z" /><glyph glyph-name="Y" unicode="y" d="M358 264 l0 -264 l-116 0 l0 263 l-231 427 l128 0 l163 -327 l165 327 l122 0 l-231 -426 Z" /><glyph glyph-name="Z" unicode="z" d="M192 96 l348 0 l-12 -96 l-469 0 l0 90 l351 506 l-315 0 l0 94 l443 0 l0 -91 l-346 -503 Z" /><glyph glyph-name="a" unicode="a" d="M493 129 q0 -30 9 -44.5 q9 -14.5 31 -21.5 l-26 -76 q-83 10 -109 73 q-29 -36 -72.5 -54.5 q-43.5 -18.5 -95.5 -18.5 q-80 0 -127 45 q-47 45 -47 119 q0 83 65.5 128 q65.5 45 185.5 45 l75 0 l0 34 q0 50 -30 73 q-30 23 -87 23 q-28 0 -65 -7 q-37 -7 -75 -20 l-28 79 q95 36 185 36 q105 0 158 -46 q53 -46 53 -131 l0 -236 ZM263 69 q35 0 67.5 18 q32.5 18 51.5 50 l0 117 l-62 0 q-76 0 -111 -25.5 q-35 -25.5 -35 -73.5 q0 -42 22.5 -64 q22.5 -22 66.5 -22 Z" /><glyph glyph-name="aogonek" unicode="&#x105;" d="M507 -13 q-69 -28 -94.5 -54.5 q-25.5 -26.5 -25.5 -58.5 q0 -48 56 -48 q28 0 59 7 l-10 -77 q-33 -7 -62 -7 q-59 0 -96 29.5 q-37 29.5 -37 77.5 q0 52 35.5 88.5 q35.5 36.5 107.5 64.5 q-29 18 -42 51 q-29 -36 -72.5 -54.5 q-43.5 -18.5 -95.5 -18.5 q-80 0 -127 45 q-47 45 -47 119 q0 83 65.5 128 q65.5 45 185.5 45 l75 0 l0 34 q0 50 -30 73 q-30 23 -87 23 q-28 0 -65 -7 q-37 -7 -75 -20 l-28 79 q95 36 185 36 q105 0 158 -46 q53 -46 53 -131 l0 -236 q0 -30 9 -44.5 q9 -14.5 31 -21.5 l-26 -76 ZM382 254 l-62 0 q-76 0 -111 -25.5 q-35 -25.5 -35 -73.5 q0 -42 22.5 -64 q22.5 -22 66.5 -22 q35 0 67.5 18 q32.5 18 51.5 50 l0 117 Z" /><glyph glyph-name="ae" unicode="æ" d="M432 542 q172 0 172 -264 q0 -20 -2 -48 l-258 0 q7 -83 32 -121.5 q25 -38.5 74 -38.5 q26 0 48 9 q22 9 47 28 l47 -66 q-32 -26 -67 -40 q-35 -14 -79 -14 q-102 0 -153 87 q-33 -47 -66 -67 q-33 -20 -82 -20 q-69 0 -110 45 q-41 45 -41 119 q0 84 53 128 q53 44 157 44 l44 0 l0 35 q0 104 -91 104 q-24 0 -45.5 -6 q-21.5 -6 -54.5 -21 l-27 72 q75 35 138 35 q55 0 87.5 -21 q32.5 -21 50.5 -60 q16 38 48.5 59.5 q32.5 21.5 77.5 21.5 ZM428 461 q-40 0 -60 -35.5 q-20 -35.5 -24 -121.5 l164 0 q-1 81 -18.5 119 q-17.5 38 -61.5 38 ZM213 254 q-61 0 -87 -24.5 q-26 -24.5 -26 -72.5 q0 -44 17 -67.5 q17 -23.5 47 -23.5 q27 0 48.5 20 q21.5 20 45.5 63 q-10 46 -10 105 l-35 0 Z" /><glyph glyph-name="b" unicode="b" d="M201 465 q27 37 64.5 57 q37.5 20 80.5 20 q101 0 149 -73 q48 -73 48 -204 q0 -124 -55.5 -201 q-55.5 -77 -155.5 -77 q-88 0 -138 65 l-6 -52 l-99 0 l0 740 l112 13 l0 -288 ZM305 72 q58 0 88.5 47.5 q30.5 47.5 30.5 144.5 q0 100 -27.5 146 q-27.5 46 -81.5 46 q-34 0 -63.5 -21 q-29.5 -21 -50.5 -55 l0 -247 q40 -61 104 -61 Z" /><glyph glyph-name="c" unicode="c" d="M344 79 q63 0 130 45 l51 -72 q-35 -30 -84 -47.5 q-49 -17.5 -101 -17.5 q-121 0 -189 74.5 q-68 74.5 -68 199.5 q0 81 31 144.5 q31 63.5 89.5 100 q58.5 36.5 138.5 36.5 q105 0 183 -64 l-52 -70 q-64 44 -129 44 q-66 0 -104 -47.5 q-38 -47.5 -38 -143.5 q0 -94 38 -138 q38 -44 104 -44 Z" /><glyph glyph-name="ccedilla" unicode="ç" d="M525 52 q-31 -26 -73.5 -43 q-42.5 -17 -88.5 -21 l0 -42 q48 -4 72.5 -28.5 q24.5 -24.5 24.5 -60.5 q0 -48 -38 -76 q-38 -28 -95 -28 q-31 0 -60 7 q-29 7 -49 19 l30 58 q34 -17 66 -17 q57 0 57 38 q0 23 -21.5 31 q-21.5 8 -66.5 8 l8 94 q-99 15 -153.5 86.5 q-54.5 71.5 -54.5 183.5 q0 81 31 144.5 q31 63.5 89.5 100 q58.5 36.5 138.5 36.5 q105 0 183 -64 l-52 -70 q-64 44 -129 44 q-66 0 -104 -47.5 q-38 -47.5 -38 -143.5 q0 -94 38 -138 q38 -44 104 -44 q63 0 130 45 l51 -72 Z" /><glyph glyph-name="d" unicode="d" d="M511 740 l0 -740 l-99 0 l-8 65 q-26 -38 -64 -58 q-38 -20 -84 -20 q-99 0 -149 74 q-50 74 -50 203 q0 81 25.5 144 q25.5 63 72.5 98.5 q47 35.5 111 35.5 q81 0 133 -58 l0 269 l112 -13 ZM295 456 q-58 0 -88.5 -47.5 q-30.5 -47.5 -30.5 -144.5 q0 -192 110 -192 q66 0 113 76 l0 249 q-41 59 -104 59 Z" /><glyph glyph-name="eth" unicode="ð" d="M225 641 q-44 19 -107 31 l23 80 q85 -15 148 -44 l71 74 l63 -54 l-59 -60 q91 -61 134 -159.5 q43 -98.5 43 -239.5 q0 -83 -29.5 -147 q-29.5 -64 -85.5 -99.5 q-56 -35.5 -131 -35.5 q-67 0 -121 29.5 q-54 29.5 -85.5 85.5 q-31.5 56 -31.5 133 q0 72 29 128 q29 56 78 87 q49 31 106 31 q47 0 83.5 -15.5 q36.5 -15.5 65.5 -46.5 q-29 116 -121 182 l-70 -72 l-75 36 l72 76 ZM428 263 q0 24 -2 68 q-23 32 -57.5 49.5 q-34.5 17.5 -76.5 17.5 q-53 0 -87 -40.5 q-34 -40.5 -34 -119.5 q0 -81 33.5 -123.5 q33.5 -42.5 90.5 -42.5 q64 0 98.5 48.5 q34.5 48.5 34.5 142.5 Z" /><glyph glyph-name="dcroat" unicode="&#x111;" d="M585 596 l-80 0 l0 -596 l-99 0 l-8 65 q-26 -38 -64 -58 q-38 -20 -84 -20 q-99 0 -149 74 q-50 74 -50 203 q0 81 25.5 144 q25.5 63 72.5 98.5 q47 35.5 111 35.5 q81 0 133 -58 l0 112 l-152 0 l0 77 l152 0 l0 80 l112 -13 l0 -67 l80 0 l0 -77 ZM393 397 q-41 59 -104 59 q-58 0 -88.5 -47.5 q-30.5 -47.5 -30.5 -144.5 q0 -192 110 -192 q66 0 113 76 l0 249 Z" /><glyph glyph-name="e" unicode="e" d="M182 228 q5 -77 44.5 -115.5 q39.5 -38.5 99.5 -38.5 q37 0 70.5 11.5 q33.5 11.5 68.5 34.5 l48 -68 q-37 -31 -87 -48 q-50 -17 -105 -17 q-121 0 -188 75.5 q-67 75.5 -67 201.5 q0 79 29 142.5 q29 63.5 84 99.5 q55 36 128 36 q105 0 166.5 -70.5 q61.5 -70.5 61.5 -193.5 q0 -30 -3 -50 l-350 0 ZM308 459 q-54 0 -88 -39 q-34 -39 -39 -116 l245 0 q-2 75 -32 115 q-30 40 -86 40 Z" /><glyph glyph-name="eogonek" unicode="&#x119;" d="M535 278 q0 -30 -3 -50 l-350 0 q5 -77 44.5 -115.5 q39.5 -38.5 99.5 -38.5 q37 0 70.5 11.5 q33.5 11.5 68.5 34.5 l48 -68 q-43 -36 -100 -52 q-69 -28 -94.5 -54.5 q-25.5 -26.5 -25.5 -58.5 q0 -48 56 -48 q28 0 59 7 l-10 -77 q-33 -7 -62 -7 q-59 0 -96 29.5 q-37 29.5 -37 77.5 q0 75 88 119 q-108 10 -166.5 84 q-58.5 74 -58.5 192 q0 79 29 142.5 q29 63.5 84 99.5 q55 36 128 36 q105 0 166.5 -70.5 q61.5 -70.5 61.5 -193.5 ZM426 304 q-2 75 -32 115 q-30 40 -86 40 q-54 0 -88 -39 q-34 -39 -39 -116 l245 0 Z" /><glyph glyph-name="f" unicode="f" d="M410 753 q86 0 158 -31 l-34 -78 q-51 22 -113 22 q-52 0 -77 -20 q-25 -20 -25 -62 l0 -94 l177 0 l-13 -83 l-164 0 l0 -407 l-112 0 l0 407 l-120 0 l0 83 l120 0 l0 95 q0 50 25.5 88 q25.5 38 71.5 59 q46 21 106 21 Z" /><glyph glyph-name="g" unicode="g" d="M563 502 q-29 -10 -65.5 -13.5 q-36.5 -3.5 -87.5 -3.5 q48 -22 72 -55 q24 -33 24 -80 q0 -52 -25.5 -92 q-25.5 -40 -72.5 -63 q-47 -23 -111 -23 q-45 0 -72 9 q-11 -8 -17 -19.5 q-6 -11.5 -6 -24.5 q0 -40 65 -40 l92 0 q56 0 100 -19 q44 -19 68.5 -52.5 q24.5 -33.5 24.5 -75.5 q0 -79 -68 -122.5 q-68 -43.5 -196 -43.5 q-89 0 -140.5 18.5 q-51.5 18.5 -73 54 q-21.5 35.5 -21.5 91.5 l100 0 q0 -30 11.5 -47.5 q11.5 -17.5 40.5 -26 q29 -8.5 84 -8.5 q80 0 115 19.5 q35 19.5 35 57.5 q0 32 -27.5 49.5 q-27.5 17.5 -74.5 17.5 l-91 0 q-71 0 -107.5 29 q-36.5 29 -36.5 73 q0 27 15 52 q15 25 43 43 q-47 25 -68.5 60.5 q-21.5 35.5 -21.5 87.5 q0 55 28 97.5 q28 42.5 78 66 q50 23.5 114 23.5 q86 -1 136.5 12 q50.5 13 107.5 41 l29 -93 ZM291 464 q-53 0 -80 -29.5 q-27 -29.5 -27 -79.5 q0 -51 27.5 -80.5 q27.5 -29.5 80.5 -29.5 q50 0 76 29 q26 29 26 83 q0 107 -103 107 Z" /><glyph glyph-name="gcommaaccent" unicode="&#x123;" d="M294 597 q-27 0 -45.5 17.5 q-18.5 17.5 -18.5 44.5 q0 28 18 65 l50 104 l62 0 l-29 -117 q26 -19 26 -52 q0 -26 -18 -44 q-18 -18 -45 -18 ZM563 502 q-29 -10 -65.5 -13.5 q-36.5 -3.5 -87.5 -3.5 q48 -22 72 -55 q24 -33 24 -80 q0 -52 -25.5 -92 q-25.5 -40 -72.5 -63 q-47 -23 -111 -23 q-45 0 -72 9 q-11 -8 -17 -19.5 q-6 -11.5 -6 -24.5 q0 -40 65 -40 l92 0 q56 0 100 -19 q44 -19 68.5 -52.5 q24.5 -33.5 24.5 -75.5 q0 -79 -68 -122.5 q-68 -43.5 -196 -43.5 q-89 0 -140.5 18.5 q-51.5 18.5 -73 54 q-21.5 35.5 -21.5 91.5 l100 0 q0 -30 11.5 -47.5 q11.5 -17.5 40.5 -26 q29 -8.5 84 -8.5 q80 0 115 19.5 q35 19.5 35 57.5 q0 32 -27.5 49.5 q-27.5 17.5 -74.5 17.5 l-91 0 q-71 0 -107.5 29 q-36.5 29 -36.5 73 q0 27 15 52 q15 25 43 43 q-47 25 -68.5 60.5 q-21.5 35.5 -21.5 87.5 q0 55 28 97.5 q28 42.5 78 66 q50 23.5 114 23.5 q86 -1 136.5 12 q50.5 13 107.5 41 l29 -93 ZM291 464 q-53 0 -80 -29.5 q-27 -29.5 -27 -79.5 q0 -51 27.5 -80.5 q27.5 -29.5 80.5 -29.5 q50 0 76 29 q26 29 26 83 q0 107 -103 107 Z" /><glyph glyph-name="h" unicode="h" d="M201 463 q32 39 74.5 59 q42.5 20 89.5 20 q73 0 110 -40.5 q37 -40.5 37 -116.5 l0 -385 l-112 0 l0 368 q0 47 -18 67.5 q-18 20.5 -58 20.5 q-35 0 -67.5 -22.5 q-32.5 -22.5 -55.5 -55.5 l0 -378 l-112 0 l0 739 l112 12 l0 -288 Z" /><glyph glyph-name="hbar" unicode="&#x127;" d="M365 542 q73 0 110 -40.5 q37 -40.5 37 -116.5 l0 -385 l-112 0 l0 368 q0 47 -18 67.5 q-18 20.5 -58 20.5 q-35 0 -67.5 -22.5 q-32.5 -22.5 -55.5 -55.5 l0 -378 l-112 0 l0 596 l-74 0 l0 77 l74 0 l0 66 l112 12 l0 -78 l158 0 l0 -77 l-158 0 l0 -133 q32 39 74.5 59 q42.5 20 89.5 20 Z" /><glyph glyph-name="i" unicode="i" d="M300 787 q32 0 52.5 -20.5 q20.5 -20.5 20.5 -50.5 q0 -30 -20.5 -50 q-20.5 -20 -52.5 -20 q-33 0 -53 20 q-20 20 -20 50 q0 31 20.5 51 q20.5 20 52.5 20 ZM377 528 l0 -446 l144 0 l0 -82 l-413 0 l0 82 l157 0 l0 364 l-152 0 l0 82 l264 0 Z" /><glyph glyph-name="dotlessi" unicode="&#x131;" d="M377 528 l0 -446 l144 0 l0 -82 l-413 0 l0 82 l157 0 l0 364 l-152 0 l0 82 l264 0 Z" /><glyph glyph-name="ij" unicode="&#x133;" d="M183 787 q33 0 54 -20.5 q21 -20.5 21 -50.5 q0 -30 -21 -50 q-21 -20 -54 -20 q-32 0 -52 20 q-20 20 -20 50 q0 30 20 50.5 q20 20.5 52 20.5 ZM451 787 q32 0 53 -20.5 q21 -20.5 21 -50.5 q0 -30 -21 -50 q-21 -20 -53 -20 q-32 0 -52.5 20 q-20.5 20 -20.5 50 q0 30 20.5 50.5 q20.5 20.5 52.5 20.5 ZM517 80 q0 -119 -69.5 -186.5 q-69.5 -67.5 -202.5 -109.5 l-35 85 q63 22 104.5 46 q41.5 24 67 62.5 q25.5 38.5 25.5 94.5 l0 376 l-170 0 l0 -366 l79 0 l0 -82 l-273 0 l0 82 l85 0 l0 366 l-80 0 l0 80 l469 0 l0 -448 Z" /><glyph glyph-name="iogonek" unicode="&#x12f;" d="M299 646 q-32 0 -52.5 20 q-20.5 20 -20.5 50 q0 30 20.5 50.5 q20.5 20.5 52.5 20.5 q33 0 53.5 -20.5 q20.5 -20.5 20.5 -50.5 q0 -30 -20.5 -50 q-20.5 -20 -53.5 -20 ZM521 82 l0 -82 l-144 0 q-69 -28 -94.5 -54.5 q-25.5 -26.5 -25.5 -58.5 q0 -48 56 -48 q28 0 59 7 l-10 -77 q-33 -7 -62 -7 q-59 0 -96 29.5 q-37 29.5 -37 77.5 q0 43 23.5 74.5 q23.5 31.5 71.5 56.5 l-154 0 l0 82 l157 0 l0 364 l-152 0 l0 82 l264 0 l0 -446 l144 0 Z" /><glyph glyph-name="j" unicode="j" d="M368 787 q33 0 53 -20 q20 -20 20 -51 q0 -30 -20 -50 q-20 -20 -53 -20 q-32 0 -52.5 20 q-20.5 20 -20.5 50 q0 30 20.5 50.5 q20.5 20.5 52.5 20.5 ZM455 111 q0 -143 -87 -219 q-87 -76 -264 -108 l-18 86 q128 24 192.5 77 q64.5 53 64.5 157 l0 342 l-208 0 l0 82 l320 0 l0 -417 Z" /><glyph glyph-name="uni0237" unicode="&#x237;" d="M455 111 q0 -143 -87 -219 q-87 -76 -264 -108 l-18 86 q128 24 192.5 77 q64.5 53 64.5 157 l0 342 l-208 0 l0 82 l320 0 l0 -417 Z" /><glyph glyph-name="k" unicode="k" d="M204 753 l0 -753 l-112 0 l0 740 l112 13 ZM554 528 l-213 -236 l235 -292 l-137 0 l-227 289 l212 239 l130 0 Z" /><glyph glyph-name="kgreenlandic" unicode="&#x138;" d="M201 528 l0 -528 l-112 0 l0 528 l112 0 ZM550 528 l-215 -240 l238 -288 l-137 0 l-227 280 l211 248 l130 0 Z" /><glyph glyph-name="l" unicode="l" d="M321 144 q0 -67 80 -67 q40 0 84 18 l28 -78 q-55 -30 -136 -30 q-79 0 -123.5 44.5 q-44.5 44.5 -44.5 122.5 l0 504 l-159 0 l0 82 l271 0 l0 -596 Z" /><glyph glyph-name="lslash" unicode="&#x142;" d="M513 17 q-55 -30 -136 -30 q-79 0 -123.5 44.5 q-44.5 44.5 -44.5 122.5 l0 134 l-59 -36 l-43 67 l102 62 l0 277 l-159 0 l0 82 l271 0 l0 -290 l80 50 l44 -68 l-124 -76 l0 -212 q0 -67 80 -67 q40 0 84 18 l28 -78 Z" /><glyph glyph-name="m" unicode="m" d="M453 542 q49 0 77 -34 q28 -34 28 -116 l0 -392 l-99 0 l0 377 q0 44 -6.5 61 q-6.5 17 -28.5 17 q-42 0 -78 -53 l0 -402 l-91 0 l0 377 q0 44 -6.5 61 q-6.5 17 -28.5 17 q-42 0 -78 -53 l0 -402 l-100 0 l0 528 l84 0 l8 -57 q25 35 51 53 q26 18 62 18 q70 0 90 -67 q24 32 52 49.5 q28 17.5 64 17.5 Z" /><glyph glyph-name="n" unicode="n" d="M89 528 l97 0 l8 -69 q33 40 77.5 61.5 q44.5 21.5 93.5 21.5 q73 0 110 -41 q37 -41 37 -116 l0 -385 l-112 0 l0 329 q0 49 -5.5 75.5 q-5.5 26.5 -21.5 39 q-16 12.5 -48 12.5 q-36 0 -68.5 -22 q-32.5 -22 -55.5 -55 l0 -379 l-112 0 l0 528 Z" /><glyph glyph-name="napostrophe" unicode="&#x149;" d="M62 756 q26 0 44.5 -17.5 q18.5 -17.5 18.5 -43.5 q0 -15 -5 -30.5 q-5 -15.5 -20 -45.5 l-41 -85 l-61 0 l27 109 q-27 22 -27 52 q0 26 18.5 43.5 q18.5 17.5 45.5 17.5 ZM102 528 l97 0 l8 -69 q33 40 77.5 61.5 q44.5 21.5 93.5 21.5 q73 0 110 -41 q37 -41 37 -116 l0 -385 l-112 0 l0 329 q0 49 -5.5 75.5 q-5.5 26.5 -21.5 39 q-16 12.5 -48 12.5 q-36 0 -68.5 -22 q-32.5 -22 -55.5 -55 l0 -379 l-112 0 l0 528 Z" /><glyph glyph-name="eng" unicode="&#x14b;" d="M512 41 q0 -77 -20 -124 q-20 -47 -56.5 -76 q-36.5 -29 -99.5 -56 l-41 82 q39 18 60.5 35 q21.5 17 33 48 q11.5 31 11.5 83 l0 296 q0 50 -5.5 76 q-5.5 26 -21.5 38.5 q-16 12.5 -49 12.5 q-35 0 -67.5 -22.5 q-32.5 -22.5 -55.5 -55.5 l0 -378 l-112 0 l0 528 l97 0 l8 -69 q32 40 77.5 61.5 q45.5 21.5 93.5 21.5 q73 0 110 -40.5 q37 -40.5 37 -116.5 l0 -344 Z" /><glyph glyph-name="o" unicode="o" d="M301 542 q114 0 176 -74.5 q62 -74.5 62 -202.5 q0 -128 -63 -203 q-63 -75 -176 -75 q-114 0 -176.5 73.5 q-62.5 73.5 -62.5 203.5 q0 126 63.5 202 q63.5 76 176.5 76 ZM301 455 q-61 0 -91.5 -47 q-30.5 -47 -30.5 -144 q0 -98 30 -144.5 q30 -46.5 91 -46.5 q61 0 91 47 q30 47 30 145 q0 97 -30 143.5 q-30 46.5 -90 46.5 Z" /><glyph glyph-name="oslash" unicode="ø" d="M427 509 q54 -33 83 -96 q29 -63 29 -148 q0 -128 -63 -203 q-63 -75 -176 -75 q-23 0 -43 3 l-37 -123 l-87 26 l41 126 q-55 33 -84 96 q-29 63 -29 149 q0 126 63.5 202 q63.5 76 176.5 76 q22 0 42 -3 l38 118 l87 -25 l-41 -123 ZM301 456 q-62 0 -92.5 -47 q-30.5 -47 -30.5 -145 q0 -122 39 -162 l110 352 q-16 2 -26 2 ZM300 72 q62 0 92 47 q30 47 30 146 q0 118 -38 160 l-110 -351 q16 -2 26 -2 Z" /><glyph glyph-name="oe" unicode="&#x153;" d="M445 542 q87 0 127 -67.5 q40 -67.5 40 -196.5 q0 -27 -3 -48 l-252 0 q7 -84 31.5 -122 q24.5 -38 72.5 -38 q25 0 45.5 9 q20.5 9 45.5 28 l47 -66 q-32 -27 -66 -40.5 q-34 -13.5 -76 -13.5 q-106 0 -151 93 q-19 -45 -51 -69 q-32 -24 -85 -24 q-88 0 -131 72.5 q-43 72.5 -43 204.5 q0 130 43 204 q43 74 131 74 q56 0 88 -24.5 q32 -24.5 50 -71.5 q41 96 137 96 ZM441 461 q-40 0 -59.5 -35.5 q-19.5 -35.5 -24.5 -121.5 l159 0 q-2 82 -18 119.5 q-16 37.5 -57 37.5 ZM179 456 q-42 0 -60 -45.5 q-18 -45.5 -18 -146.5 q0 -103 17.5 -147 q17.5 -44 60.5 -44 q29 0 45.5 18.5 q16.5 18.5 24 60 q7.5 41.5 7.5 113.5 q0 101 -17.5 146 q-17.5 45 -59.5 45 Z" /><glyph glyph-name="p" unicode="p" d="M347 542 q192 0 192 -277 q0 -125 -53 -201.5 q-53 -76.5 -151 -76.5 q-83 0 -134 58 l0 -248 l-112 -13 l0 744 l97 0 l7 -68 q30 40 69.5 61 q39.5 21 84.5 21 ZM316 456 q-35 0 -64 -21 q-29 -21 -51 -55 l0 -247 q39 -59 104 -59 q58 0 87 46 q29 46 29 144 q0 101 -26 146.5 q-26 45.5 -79 45.5 Z" /><glyph glyph-name="thorn" unicode="þ" d="M201 467 q27 36 65 55.5 q38 19.5 81 19.5 q192 0 192 -277 q0 -125 -53 -201.5 q-53 -76.5 -151 -76.5 q-83 0 -134 58 l0 -248 l-112 -13 l0 956 l112 13 l0 -286 ZM316 456 q-35 0 -64 -21 q-29 -21 -51 -55 l0 -247 q39 -59 104 -59 q58 0 87 46 q29 46 29 144 q0 101 -26 146.5 q-26 45.5 -79 45.5 Z" /><glyph glyph-name="q" unicode="q" d="M267 542 q88 0 140 -66 l7 52 l97 0 l0 -744 l-112 13 l0 261 q-54 -71 -144 -71 q-100 0 -147 72.5 q-47 72.5 -47 204.5 q0 124 54.5 201 q54.5 77 151.5 77 ZM295 456 q-116 0 -116 -192 q0 -99 26.5 -144.5 q26.5 -45.5 79.5 -45.5 q36 0 64.5 20 q28.5 20 49.5 54 l0 249 q-40 59 -104 59 Z" /><glyph glyph-name="r" unicode="r" d="M463 541 q41 0 80 -13 l-19 -195 l-80 0 l0 108 q-55 -1 -96 -44 q-41 -43 -64 -121 l0 -196 l106 0 l0 -80 l-296 0 l0 80 l78 0 l0 368 l-78 0 l0 80 l163 0 l20 -122 q31 68 75.5 101.5 q44.5 33.5 110.5 33.5 Z" /><glyph glyph-name="s" unicode="s" d="M281 72 q53 0 83.5 19 q30.5 19 30.5 52 q0 23 -9 37.5 q-9 14.5 -36 27 q-27 12.5 -81 26.5 q-87 22 -130.5 56.5 q-43.5 34.5 -43.5 99.5 q0 69 57 110.5 q57 41.5 154 41.5 q117 0 201 -61 l-48 -71 q-71 47 -150 47 q-100 0 -100 -58 q0 -20 11.5 -33 q11.5 -13 39.5 -24.5 q28 -11.5 83 -26.5 q86 -24 128.5 -59 q42.5 -35 42.5 -105 q0 -81 -67 -122.5 q-67 -41.5 -166 -41.5 q-131 0 -217 74 l59 68 q33 -26 73.5 -41.5 q40.5 -15.5 84.5 -15.5 Z" /><glyph glyph-name="scedilla" unicode="&#x15f;" d="M514 151 q0 -72 -54 -113 q-54 -41 -138 -49 l0 -43 q48 -4 72.5 -28.5 q24.5 -24.5 24.5 -60.5 q0 -48 -38 -76 q-38 -28 -95 -28 q-31 0 -60 7 q-29 7 -49 19 l30 58 q34 -17 66 -17 q57 0 57 38 q0 23 -21.5 31 q-21.5 8 -66.5 8 l8 91 q-109 8 -186 73 l59 68 q33 -26 73.5 -41.5 q40.5 -15.5 84.5 -15.5 q53 0 83.5 19 q30.5 19 30.5 52 q0 23 -9 37.5 q-9 14.5 -36 27 q-27 12.5 -81 26.5 q-87 22 -130.5 56.5 q-43.5 34.5 -43.5 99.5 q0 69 57 110.5 q57 41.5 154 41.5 q117 0 201 -61 l-48 -71 q-71 47 -150 47 q-100 0 -100 -58 q0 -20 11.5 -33 q11.5 -13 39.5 -24.5 q28 -11.5 83 -26.5 q86 -24 128.5 -59 q42.5 -35 42.5 -105 Z" /><glyph glyph-name="germandbls" unicode="ß" d="M295 753 q84 0 134 -42 q50 -42 50 -107 q0 -35 -15.5 -57.5 q-15.5 -22.5 -45.5 -49.5 q-23 -21 -33.5 -34.5 q-10.5 -13.5 -10.5 -32.5 q0 -23 17 -40 q17 -17 53 -41 q38 -26 62 -47 q24 -21 41.5 -54.5 q17.5 -33.5 17.5 -80.5 q0 -56 -25.5 -97 q-25.5 -41 -69 -62 q-43.5 -21 -97.5 -21 q-73 0 -128 33 l40 76 q37 -21 76 -21 q43 0 66 22.5 q23 22.5 23 66.5 q0 39 -22 64 q-22 25 -65 55 q-30 21 -48.5 36.5 q-18.5 15.5 -31 39 q-12.5 23.5 -12.5 54.5 q0 33 14 55.5 q14 22.5 40 48.5 q23 22 34.5 39.5 q11.5 17.5 11.5 40.5 q0 30 -19 51 q-19 21 -59 21 q-50 0 -74.5 -31 q-24.5 -31 -24.5 -99 l0 -539 l-112 0 l0 532 q0 107 55.5 164 q55.5 57 157.5 57 Z" /><glyph glyph-name="t" unicode="t" d="M530 28 q-30 -19 -70 -30 q-40 -11 -84 -11 q-90 0 -139 46.5 q-49 46.5 -49 126.5 l0 286 l-117 0 l0 82 l117 0 l0 118 l112 13 l0 -131 l179 0 l-13 -82 l-166 0 l0 -285 q0 -43 22 -63.5 q22 -20.5 70 -20.5 q53 0 98 25 l40 -74 Z" /><glyph glyph-name="tbar" unicode="&#x167;" d="M530 28 q-30 -19 -70 -30 q-40 -11 -84 -11 q-90 0 -139 46.5 q-49 46.5 -49 126.5 l0 118 l-106 0 l0 77 l106 0 l0 91 l-117 0 l0 82 l117 0 l0 118 l112 13 l0 -131 l179 0 l-13 -82 l-166 0 l0 -91 l166 0 l0 -77 l-166 0 l0 -117 q0 -43 22 -63.5 q22 -20.5 70 -20.5 q53 0 98 25 l40 -74 Z" /><glyph glyph-name="uni0163" unicode="&#x163;" d="M391 -54 q48 -4 72.5 -28.5 q24.5 -24.5 24.5 -60.5 q0 -48 -38 -76 q-38 -28 -95 -28 q-31 0 -60 7 q-29 7 -49 19 l30 58 q34 -17 66 -17 q57 0 57 38 q0 23 -21.5 31 q-21.5 8 -66.5 8 l8 96 q-64 13 -97.5 57 q-33.5 44 -33.5 110 l0 286 l-117 0 l0 82 l117 0 l0 118 l112 13 l0 -131 l179 0 l-13 -82 l-166 0 l0 -285 q0 -43 22 -63.5 q22 -20.5 70 -20.5 q53 0 98 25 l40 -74 q-27 -17 -63 -28 q-36 -11 -76 -13 l0 -41 Z" /><glyph glyph-name="u" unicode="u" d="M201 159 q0 -46 18.5 -66.5 q18.5 -20.5 56.5 -20.5 q36 0 69.5 21 q33.5 21 53.5 53 l0 382 l112 0 l0 -528 l-97 0 l-7 68 q-28 -39 -73 -60 q-45 -21 -93 -21 q-76 0 -114 41 q-38 41 -38 117 l0 383 l112 0 l0 -369 Z" /><glyph glyph-name="uogonek" unicode="&#x173;" d="M511 0 q-69 -28 -94.5 -54.5 q-25.5 -26.5 -25.5 -58.5 q0 -48 56 -48 q28 0 59 7 l-10 -77 q-33 -7 -62 -7 q-59 0 -96 29.5 q-37 29.5 -37 77.5 q0 46 28 80 q28 34 84 59 l-6 60 q-28 -39 -73 -60 q-45 -21 -93 -21 q-76 0 -114 41 q-38 41 -38 117 l0 383 l112 0 l0 -369 q0 -46 18.5 -66.5 q18.5 -20.5 56.5 -20.5 q36 0 69.5 21 q33.5 21 53.5 53 l0 382 l112 0 l0 -528 Z" /><glyph glyph-name="v" unicode="v" d="M552 528 l-187 -528 l-130 0 l-187 528 l121 0 l133 -435 l135 435 l115 0 Z" /><glyph glyph-name="w" unicode="w" d="M502 0 l-140 0 l-60 375 l-64 -375 l-137 0 l-89 528 l108 0 l55 -458 l74 391 l112 0 l68 -391 l55 458 l104 0 l-86 -528 Z" /><glyph glyph-name="x" unicode="x" d="M167 0 l-124 0 l190 278 l-169 250 l129 0 l108 -186 l108 186 l123 0 l-165 -245 l190 -283 l-131 0 l-130 216 l-129 -216 Z" /><glyph glyph-name="y" unicode="y" d="M369 -2 q-32 -96 -92.5 -150.5 q-60.5 -54.5 -166.5 -63.5 l-14 84 q52 8 84 24.5 q32 16.5 51 41.5 q19 25 34 66 l-38 0 l-178 528 l119 0 l133 -450 l135 450 l115 0 l-182 -530 Z" /><glyph glyph-name="z" unicode="z" d="M225 90 l283 0 l-12 -90 l-405 0 l0 82 l281 356 l-259 0 l0 90 l391 0 l0 -82 l-279 -356 Z" /><glyph glyph-name="ordfeminine" unicode="ª" d="M290 753 q89 0 132.5 -37.5 q43.5 -37.5 43.5 -107.5 l0 -185 q0 -21 7.5 -32.5 q7.5 -11.5 24.5 -16.5 l-23 -67 q-36 4 -58.5 17.5 q-22.5 13.5 -35.5 40.5 q-25 -28 -60 -43.5 q-35 -15.5 -74 -15.5 q-68 0 -110 37 q-42 37 -42 98 q0 67 57 104 q57 37 160 37 l57 0 l0 23 q0 38 -23 54.5 q-23 16.5 -70 16.5 q-22 0 -54 -6 q-32 -6 -66 -18 l-27 70 q85 31 161 31 ZM321 515 q-62 0 -90.5 -17.5 q-28.5 -17.5 -28.5 -52.5 q0 -33 18.5 -50 q18.5 -17 53.5 -17 q27 0 52 14 q25 14 43 39 l0 84 l-48 0 ZM504 88 l0 -88 l-400 0 l0 88 l400 0 Z" /><glyph glyph-name="ordmasculine" unicode="º" d="M300 753 q97 0 153.5 -61 q56.5 -61 56.5 -162 q0 -66 -25.5 -116.5 q-25.5 -50.5 -73.5 -79 q-48 -28.5 -111 -28.5 q-97 0 -154 61 q-57 61 -57 163 q0 65 26 115.5 q26 50.5 74 79 q48 28.5 111 28.5 ZM300 676 q-50 0 -78 -36 q-28 -36 -28 -110 q0 -74 28 -110 q28 -36 78 -36 q50 0 77.5 36 q27.5 36 27.5 110 q0 74 -27.5 110 q-27.5 36 -77.5 36 ZM501 88 l0 -88 l-401 0 l0 88 l401 0 Z" /><glyph glyph-name="uni207F" unicode="&#x207f;" d="M339 723 q50 0 75 -26.5 q25 -26.5 25 -76.5 l0 -242 l-88 0 l0 208 q0 40 -7 54.5 q-7 14.5 -30 14.5 q-17 0 -34 -11.5 q-17 -11.5 -31 -30.5 l0 -235 l-87 0 l0 337 l78 0 l3 -38 q19 24 44.5 35 q25.5 11 51.5 11 Z" /><glyph glyph-name="uni052C" unicode="&#x52c;" d="M572 91 l0 -248 l-91 0 l-16 157 l-305 0 l-16 -157 l-91 0 l0 248 l40 0 q67 80 102 238 q-78 18 -114 72 q-36 54 -36 149 l0 140 l104 0 l0 -137 q0 -55 14 -87 q14 -32 48 -46 l9 72 l20 198 l291 0 l0 -599 l41 0 ZM325 487 q-5 -50 -10 -80 l111 0 l0 195 l-90 0 l-11 -115 ZM426 91 l0 228 l-125 0 q-17 -83 -41.5 -135.5 q-24.5 -52.5 -61.5 -92.5 l228 0 Z" /><glyph glyph-name="uni052A" unicode="&#x52a;" d="M613 0 l-90 0 l-71 322 l-26 0 l0 -322 l-63 0 l0 -157 l-69 0 l-15 157 l-209 0 l-15 -157 l-69 0 l0 234 l32 0 q22 53 36.5 131.5 q14.5 78.5 24.5 241.5 l15 240 l205 0 l0 -292 l47 0 l0 292 l80 0 l0 -292 l26 0 l64 292 l81 0 l-74 -322 l90 -368 ZM218 616 l-47 0 l-9 -171 q-7 -160 -23 -237.5 q-16 -77.5 -48 -130.5 l127 0 l0 539 ZM346 322 l-47 0 l0 -245 l47 0 l0 245 Z" /><glyph glyph-name="uni052E" unicode="&#x52e;" d="M557 91 l0 -248 l-91 0 l-16 157 l-66 0 l0 597 l-133 0 l-20 -169 q-17 -161 -39 -244 q-22 -83 -54 -123 q-32 -40 -91 -75 l-48 80 q32 25 50.5 54 q18.5 29 35.5 98 q17 69 32 201 l32 271 l351 0 l0 -599 l57 0 Z" /><glyph glyph-name="uni0528" unicode="&#x528;" d="M529 690 l0 -690 l-116 0 l0 314 l-226 0 l0 -363 q0 -83 -43.5 -126 q-43.5 -43 -122.5 -43 q-68 0 -121 40 l43 70 q20 -11 34.5 -16 q14.5 -5 35.5 -5 q58 0 58 72 l0 747 l116 0 l0 -281 l226 0 l0 281 l116 0 Z" /><glyph glyph-name="uni0411" unicode="&#x411;" d="M477 598 l-277 0 l0 -169 l80 0 q131 0 201.5 -51.5 q70.5 -51.5 70.5 -157.5 q0 -112 -72 -166 q-72 -54 -196 -54 l-200 0 l0 690 l404 0 l-11 -92 ZM200 342 l0 -252 l85 0 q72 0 109.5 28.5 q37.5 28.5 37.5 100.5 q0 123 -148 123 l-84 0 Z" /><glyph glyph-name="uni0413" unicode="&#x413;" d="M550 690 l-12 -96 l-303 0 l0 -594 l-116 0 l0 690 l431 0 Z" /><glyph glyph-name="uni0490" unicode="&#x490;" d="M440 840 l110 0 l0 -150 l-12 -96 l-303 0 l0 -594 l-116 0 l0 690 l321 0 l0 150 Z" /><glyph glyph-name="uni0414" unicode="&#x414;" d="M570 91 l0 -248 l-91 0 l-16 157 l-360 0 l-16 -157 l-91 0 l0 248 l41 0 q26 26 41 65 q15 39 26.5 109 q11.5 70 29.5 220 l23 205 l361 0 l0 -599 l52 0 ZM406 601 l-149 0 l-12 -115 q-15 -139 -27 -211 q-12 -72 -30 -114 q-18 -42 -49 -70 l267 0 l0 510 Z" /><glyph glyph-name="uni0415" unicode="&#x415;" d="M229 602 l0 -208 l250 0 l0 -87 l-250 0 l0 -219 l305 0 l0 -88 l-421 0 l0 690 l415 0 l-13 -88 l-286 0 Z" /><glyph glyph-name="uni0416" unicode="&#x416;" d="M257 324 l-49 0 l-95 -324 l-105 0 l117 370 l-104 320 l103 0 l85 -291 l48 0 l0 291 l86 0 l0 -291 l48 0 l86 291 l102 0 l-104 -320 l117 -370 l-107 0 l-94 324 l-48 0 l0 -324 l-86 0 l0 324 Z" /><glyph glyph-name="uni0417" unicode="&#x417;" d="M282 704 q74 0 129 -23 q55 -23 85 -64.5 q30 -41.5 30 -94.5 q0 -62 -40 -100 q-40 -38 -108 -49 q75 -7 123 -51.5 q48 -44.5 48 -119.5 q0 -63 -33 -111.5 q-33 -48.5 -95 -76 q-62 -27.5 -146 -27.5 q-77 0 -141 25 q-64 25 -110 73 l66 62 q79 -70 184 -70 q73 0 114 33.5 q41 33.5 41 92.5 q0 61 -40.5 91 q-40.5 30 -110.5 30 l-119 0 l14 89 l101 0 q59 0 97.5 26 q38.5 26 38.5 77 q0 47 -37.5 73 q-37.5 26 -98.5 26 q-51 0 -93.5 -15.5 q-42.5 -15.5 -80.5 -46.5 l-60 64 q102 87 242 87 Z" /><glyph glyph-name="uni0418" unicode="&#x418;" d="M71 690 l111 0 l0 -305 q0 -90 -5 -153 q-5 -63 -15 -130 l229 588 l138 0 l0 -690 l-111 0 l0 304 q0 145 19 280 l-225 -584 l-141 0 l0 690 Z" /><glyph glyph-name="uni048A" unicode="&#x48a;" d="M298 760 q-66 0 -108 35.5 q-42 35.5 -48 92.5 l68 14 q19 -61 88 -61 q73 0 90 61 l69 -14 q-6 -57 -49 -92.5 q-43 -35.5 -110 -35.5 ZM619 100 l-86 -257 l-93 0 l37 157 l-59 0 l0 304 q0 145 19 280 l-225 -584 l-141 0 l0 690 l111 0 l0 -305 q0 -90 -5 -153 q-5 -63 -15 -130 l229 588 l138 0 l0 -590 l90 0 Z" /><glyph glyph-name="uni041A" unicode="&#x41a;" d="M268 317 l-74 0 l0 -317 l-115 0 l0 690 l115 0 l0 -283 l74 0 l189 283 l119 0 l-211 -320 l230 -370 l-133 0 l-194 317 Z" /><glyph glyph-name="uni041B" unicode="&#x41b;" d="M529 0 l-116 0 l0 597 l-157 0 l-19 -169 q-18 -161 -39.5 -244 q-21.5 -83 -53.5 -123 q-32 -40 -91 -75 l-48 80 q32 25 50.5 54 q18.5 29 35.5 98 q17 69 32 201 l32 271 l374 0 l0 -690 Z" /><glyph glyph-name="uni041E" unicode="&#x41e;" d="M562 345 q0 -164 -67.5 -261 q-67.5 -97 -194.5 -97 q-127 0 -194.5 95.5 q-67.5 95.5 -67.5 261.5 q0 164 67.5 262 q67.5 98 194.5 98 q127 0 194.5 -96.5 q67.5 -96.5 67.5 -262.5 ZM443 345 q0 136 -34 202 q-34 66 -109 66 q-75 0 -109 -66 q-34 -66 -34 -203 q0 -135 34.5 -201 q34.5 -66 108.5 -66 q75 0 109 66 q34 66 34 202 Z" /><glyph glyph-name="uni041F" unicode="&#x41f;" d="M413 0 l0 596 l-226 0 l0 -596 l-116 0 l0 690 l458 0 l0 -690 l-116 0 Z" /><glyph glyph-name="uni0423" unicode="&#x423;" d="M393 201 q-29 -73 -62 -115.5 q-33 -42.5 -84 -66.5 q-51 -24 -131 -32 l-16 85 q57 7 91 21 q34 14 54 36 q20 22 35 58 l-43 0 l-223 503 l121 0 l177 -432 l161 432 l117 0 l-197 -489 Z" /><glyph glyph-name="uni0424" unicode="&#x424;" d="M348 658 q123 -9 182.5 -85.5 q59.5 -76.5 59.5 -224.5 q0 -149 -61.5 -228.5 q-61.5 -79.5 -180.5 -85.5 l0 -67 l-96 0 l0 67 q-120 6 -181 85 q-61 79 -61 229 q0 148 59.5 224.5 q59.5 76.5 182.5 85.5 l0 64 l96 0 l0 -64 ZM257 585 q-72 -5 -103.5 -59 q-31.5 -54 -31.5 -178 q0 -122 31 -177.5 q31 -55.5 104 -62.5 l0 477 ZM343 108 q73 7 104 62.5 q31 55.5 31 177.5 q0 124 -31.5 178 q-31.5 54 -103.5 59 l0 -477 Z" /><glyph glyph-name="uni0427" unicode="&#x427;" d="M529 690 l0 -690 l-116 0 l0 267 q-41 -29 -79 -42.5 q-38 -13.5 -87 -13.5 q-95 0 -150.5 57.5 q-55.5 57.5 -55.5 158.5 l0 263 l116 0 l0 -257 q0 -67 30 -98 q30 -31 91 -31 q79 0 135 52 l0 334 l116 0 Z" /><glyph glyph-name="uni0426" unicode="&#x426;" d="M529 91 l57 0 l0 -248 l-91 0 l-16 157 l-408 0 l0 690 l116 0 l0 -597 l226 0 l0 597 l116 0 l0 -599 Z" /><glyph glyph-name="uni0428" unicode="&#x428;" d="M558 690 l0 -690 l-516 0 l0 690 l100 0 l0 -602 l112 0 l0 602 l92 0 l0 -602 l112 0 l0 602 l100 0 Z" /><glyph glyph-name="uni0429" unicode="&#x429;" d="M558 91 l57 0 l0 -248 l-91 0 l-16 157 l-466 0 l0 690 l100 0 l0 -602 l112 0 l0 602 l92 0 l0 -602 l112 0 l0 602 l100 0 l0 -599 Z" /><glyph glyph-name="uni040F" unicode="&#x40f;" d="M529 690 l0 -690 l-175 0 l0 -157 l-91 0 l-16 157 l-176 0 l0 690 l116 0 l0 -597 l226 0 l0 597 l116 0 Z" /><glyph glyph-name="uni042C" unicode="&#x42c;" d="M195 443 l91 0 q132 0 203.5 -53 q71.5 -53 71.5 -163 q0 -115 -72.5 -171 q-72.5 -56 -198.5 -56 l-211 0 l0 690 l116 0 l0 -247 ZM195 356 l0 -267 l98 0 q71 0 108.5 31 q37.5 31 37.5 106 q0 130 -148 130 l-96 0 Z" /><glyph glyph-name="uni042A" unicode="&#x42a;" d="M223 443 l85 0 q132 0 203.5 -53 q71.5 -53 71.5 -163 q0 -116 -72.5 -171.5 q-72.5 -55.5 -197.5 -55.5 l-203 0 l0 597 l-111 0 l0 93 l224 0 l0 -247 ZM223 357 l0 -269 l88 0 q74 0 113.5 30.5 q39.5 30.5 39.5 107.5 q0 131 -149 131 l-92 0 Z" /><glyph glyph-name="uni042B" unicode="&#x42b;" d="M133 444 l42 0 q124 0 187.5 -55 q63.5 -55 63.5 -162 q0 -114 -65 -170.5 q-65 -56.5 -184 -56.5 l-150 0 l0 690 l106 0 l0 -246 ZM573 690 l0 -690 l-106 0 l0 690 l106 0 ZM133 361 l0 -275 l51 0 q66 0 99 32.5 q33 32.5 33 107.5 q0 135 -130 135 l-53 0 Z" /><glyph glyph-name="uni0409" unicode="&#x409;" d="M358 443 q121 0 181.5 -53 q60.5 -53 60.5 -163 q0 -116 -61.5 -171.5 q-61.5 -55.5 -174.5 -55.5 l-106 0 l0 606 l-80 0 l-20 -298 q-8 -117 -21.5 -178 q-13.5 -61 -33.5 -89 q-20 -28 -58 -55 l-49 71 q17 17 27.5 41 q10.5 24 19.5 75 q9 51 15 143 l27 374 l273 0 l0 -247 ZM358 362 l0 -278 l15 0 q61 0 90.5 32.5 q29.5 32.5 29.5 109.5 q0 71 -29.5 103.5 q-29.5 32.5 -91.5 32.5 l-14 0 Z" /><glyph glyph-name="uni040A" unicode="&#x40a;" d="M360 422 q119 -1 179.5 -51 q60.5 -50 60.5 -153 q0 -113 -61 -165.5 q-61 -52.5 -177 -52.5 l-104 0 l0 339 l-120 0 l0 -339 l-102 0 l0 690 l102 0 l0 -268 l120 0 l0 268 l102 0 l0 -268 ZM360 340 l0 -255 l12 0 q64 1 93 29 q29 28 29 103 q0 67 -29.5 94.5 q-29.5 27.5 -92.5 28.5 l-12 0 Z" /><glyph glyph-name="uni0404" unicode="&#x404;" d="M354 704 q66 0 115 -18 q49 -18 94 -53 l-57 -66 q-70 48 -144 48 q-79 0 -131.5 -52.5 q-52.5 -52.5 -61.5 -162.5 l286 0 l0 -92 l-288 0 q6 -116 58.5 -173 q52.5 -57 134.5 -57 q51 0 87.5 15.5 q36.5 15.5 68.5 42.5 l56 -69 q-86 -80 -218 -80 q-90 0 -159 41.5 q-69 41.5 -107.5 122.5 q-38.5 81 -38.5 195 q0 113 40.5 193.5 q40.5 80.5 109.5 122.5 q69 42 155 42 Z" /><glyph glyph-name="uni042D" unicode="&#x42d;" d="M266 704 q133 0 207 -89.5 q74 -89.5 74 -262.5 q0 -178 -78.5 -271.5 q-78.5 -93.5 -214.5 -93.5 q-67 0 -124 23 q-57 23 -99 65 l62 64 q36 -31 73.5 -46 q37.5 -15 83.5 -15 q83 0 128 56 q45 56 50 175 l-285 0 l0 90 l285 0 q-6 114 -48.5 165 q-42.5 51 -121.5 51 q-49 0 -86 -16 q-37 -16 -74 -45 l-59 64 q48 40 102.5 63 q54.5 23 124.5 23 Z" /><glyph glyph-name="uni040B" unicode="&#x40b;" d="M411 601 l-152 0 l0 -197 q59 54 135 54 q89 0 133.5 -53 q44.5 -53 44.5 -157 l0 -248 l-112 0 l0 250 q0 62 -21.5 89 q-21.5 27 -72.5 27 q-35 0 -60 -12.5 q-25 -12.5 -47 -32.5 l0 -321 l-112 0 l0 601 l-153 0 l0 89 l429 0 l-12 -89 Z" /><glyph glyph-name="uni042E" unicode="&#x42e;" d="M390 704 q71 0 113.5 -40 q42.5 -40 60.5 -118 q18 -78 18 -201 q0 -180 -45 -269 q-45 -89 -147 -89 q-101 0 -144.5 83 q-43.5 83 -46.5 244 l-59 0 l0 -314 l-99 0 l0 690 l99 0 l0 -289 l60 0 q6 151 50.5 227 q44.5 76 139.5 76 ZM390 619 q-32 0 -50.5 -25 q-18.5 -25 -26.5 -83.5 q-8 -58.5 -8 -164.5 q0 -106 8 -165 q8 -59 26.5 -84 q18.5 -25 50.5 -25 q31 0 50 25 q19 25 27.5 84.5 q8.5 59.5 8.5 163.5 q0 105 -8.5 164.5 q-8.5 59.5 -27.5 84.5 q-19 25 -50 25 Z" /><glyph glyph-name="uni042F" unicode="&#x42f;" d="M529 0 l-116 0 l0 267 l-128 0 l-136 -267 l-128 0 l159 291 q-119 54 -119 189 q0 102 68.5 156 q68.5 54 200.5 54 l199 0 l0 -690 ZM325 604 q-72 0 -107.5 -30.5 q-35.5 -30.5 -35.5 -94.5 q0 -65 33.5 -95.5 q33.5 -30.5 99.5 -30.5 l98 0 l0 251 l-88 0 Z" /><glyph glyph-name="uni0402" unicode="&#x402;" d="M259 404 q63 54 135 54 q89 0 133.5 -53 q44.5 -53 44.5 -157 l0 -151 q0 -105 -47.5 -159.5 q-47.5 -54.5 -139.5 -85.5 l-29 85 q43 18 65 38 q22 20 30.5 48.5 q8.5 28.5 8.5 74.5 l0 152 q0 62 -21.5 89 q-21.5 27 -72.5 27 q-35 0 -60 -12.5 q-25 -12.5 -47 -32.5 l0 -321 l-112 0 l0 601 l-153 0 l0 89 l429 0 l-12 -89 l-152 0 l0 -197 Z" /><glyph glyph-name="uni0460" unicode="&#x460;" d="M513 690 q33 -86 53 -174.5 q20 -88.5 20 -215.5 q0 -161 -45 -237.5 q-45 -76.5 -122 -76.5 q-48 0 -76 25 q-28 25 -43 75 q-16 -50 -43.5 -75 q-27.5 -25 -72.5 -25 q-47 0 -85 32 q-38 32 -61 102.5 q-23 70.5 -23 179.5 q0 126 19.5 212 q19.5 86 52.5 178 l102 0 q-32 -100 -48.5 -185.5 q-16.5 -85.5 -16.5 -201.5 q0 -121 19.5 -173.5 q19.5 -52.5 56.5 -52.5 q22 0 36.5 21.5 q14.5 21.5 14.5 67.5 l0 232 l99 0 l0 -232 q0 -45 15 -67 q15 -22 40 -22 q34 0 53 49 q19 49 19 176 q0 115 -16.5 199 q-16.5 84 -48.5 189 l101 0 Z" /><glyph glyph-name="uni0462" unicode="&#x462;" d="M314 434 q121 0 191 -53.5 q70 -53.5 70 -156.5 q0 -112 -72 -168 q-72 -56 -192 -56 l-168 0 l0 526 l-133 0 l0 76 l133 0 l0 88 l116 0 l0 -88 l142 0 l0 -76 l-142 0 l0 -92 l55 0 ZM313 89 q141 0 141 134 q0 124 -141 124 l-54 0 l0 -258 l54 0 Z" /><glyph glyph-name="uni0464" unicode="&#x464;" d="M600 30 q-30 -21 -64 -32 q-34 -11 -80 -11 q-113 0 -177.5 82 q-64.5 82 -71.5 239 l-61 0 l0 -308 l-113 0 l0 691 l113 0 l0 -290 l62 0 q11 147 78 225 q67 78 178 78 q42 0 72 -9 q30 -9 59 -29 l-45 -71 q-21 12 -40.5 17 q-19.5 5 -43.5 5 q-63 0 -100 -52 q-37 -52 -44 -166 l202 0 l0 -90 l-203 0 q4 -121 40 -177.5 q36 -56.5 102 -56.5 q28 0 49.5 7 q21.5 7 44.5 20 l43 -72 Z" /><glyph glyph-name="uni0466" unicode="&#x466;" d="M475 0 l-79 273 l-49 0 l0 -273 l-96 0 l0 273 l-50 0 l-79 -273 l-114 0 l220 690 l144 0 l220 -690 l-117 0 ZM226 361 l144 0 l-72 248 l-72 -248 Z" /><glyph glyph-name="uni0468" unicode="&#x468;" d="M508 0 l-59 281 l-29 0 l0 -281 l-83 0 l0 281 l-30 0 l-58 -281 l-97 0 l64 281 l-92 0 l0 -282 l-101 0 l0 691 l101 0 l0 -331 l109 0 l75 331 l144 0 l157 -690 l-101 0 ZM324 359 l109 0 l-55 261 l-54 -261 Z" /><glyph glyph-name="uni046A" unicode="&#x46a;" d="M467 387 l108 -387 l-99 0 l-80 311 l-46 0 l0 -311 l-100 0 l0 311 l-46 0 l-80 -311 l-99 0 l112 387 l71 0 l-125 234 l0 69 l435 0 l0 -69 l-127 -234 l76 0 ZM189 616 l113 -229 l113 229 l-226 0 Z" /><glyph glyph-name="uni046C" unicode="&#x46c;" d="M539 387 l83 -387 l-97 0 l-57 311 l-39 0 l0 -311 l-95 0 l0 311 l-39 0 l-58 -311 l-96 0 l70 311 l-97 0 l0 -312 l-101 0 l0 691 l101 0 l0 -303 l180 0 l-105 234 l0 69 l385 0 l0 -69 l-106 -234 l71 0 ZM478 618 l-191 0 l96 -231 l95 231 Z" /><glyph glyph-name="uni046E" unicode="&#x46e;" d="M319 753 l-72 0 l-137 116 l45 51 l128 -82 l129 82 l44 -51 l-137 -116 ZM302 380 q111 -1 167.5 -51.5 q56.5 -50.5 56.5 -144.5 q0 -91 -59.5 -141.5 q-59.5 -50.5 -153.5 -66.5 q-68 -12 -91 -23 q-23 -11 -23 -31 q0 -18 17.5 -33.5 q17.5 -15.5 56.5 -36.5 l-41 -70 q-147 61 -147 151 q0 51 38.5 80 q38.5 29 125.5 44 q79 14 118 44 q39 30 39 87 q0 59 -33 86.5 q-33 27.5 -101 27.5 l-113 0 l0 74 l201 223 l-286 0 l0 91 l417 0 l0 -89 l-207 -221 l18 0 Z" /><glyph glyph-name="uni0474" unicode="&#x474;" d="M570 612 q-18 6 -27 6 q-16 0 -26 -10.5 q-10 -10.5 -17 -34.5 l-150 -573 l-136 0 l-193 690 l124 0 l137 -580 l110 474 q15 64 47 92.5 q32 28.5 87 28.5 q35 0 69 -15 l-25 -78 Z" /><glyph glyph-name="uni0478" unicode="&#x478;" d="M160 -13 q-158 0 -158 357 q0 172 38.5 266 q38.5 94 119.5 94 q83 0 120 -92 q37 -92 37 -267 q0 -175 -37 -266.5 q-37 -91.5 -120 -91.5 ZM160 66 q25 0 39.5 28.5 q14.5 28.5 20.5 88.5 q6 60 6 162 q0 151 -14.5 215.5 q-14.5 64.5 -51.5 64.5 q-25 0 -39.5 -29 q-14.5 -29 -20.5 -89.5 q-6 -60.5 -6 -162.5 q0 -150 15 -214 q15 -64 51 -64 ZM332 -149 q46 16 71.5 50 q25.5 34 35.5 99 l-40 0 l-79 528 l85 0 l53 -450 l52 450 l84 0 l-80 -530 q-27 -175 -166 -214 l-16 67 Z" /><glyph glyph-name="uni0492" unicode="&#x492;" d="M567 594 l-303 0 l0 -161 l151 0 l0 -79 l-151 0 l0 -354 l-116 0 l0 354 l-93 0 l0 79 l93 0 l0 257 l431 0 l-12 -96 Z" /><glyph glyph-name="uni0494" unicode="&#x494;" d="M353 458 q96 0 149 -59 q53 -59 53 -165 l0 -282 q0 -83 -43.5 -126 q-43.5 -43 -122.5 -43 q-68 0 -121 40 l43 70 q20 -11 34.5 -16 q14.5 -5 35.5 -5 q58 0 58 72 l0 289 q0 66 -27.5 98.5 q-27.5 32.5 -85.5 32.5 q-46 0 -79.5 -16 q-33.5 -16 -62.5 -48 l0 -300 l-116 0 l0 690 l407 0 l-14 -92 l-277 0 l0 -207 q69 67 169 67 Z" /><glyph glyph-name="uni0496" unicode="&#x496;" d="M563 91 l47 0 l0 -248 l-84 0 l-17 157 l-24 0 l-94 324 l-48 0 l0 -324 l-86 0 l0 324 l-49 0 l-95 -324 l-105 0 l117 370 l-104 320 l103 0 l85 -291 l48 0 l0 291 l86 0 l0 -291 l48 0 l86 291 l102 0 l-104 -320 l88 -279 Z" /><glyph glyph-name="uni0498" unicode="&#x498;" d="M549 202 q0 -87 -62.5 -145 q-62.5 -58 -171.5 -68 l0 -43 q48 -4 72.5 -28.5 q24.5 -24.5 24.5 -60.5 q0 -48 -38 -76 q-38 -28 -95 -28 q-31 0 -60 7 q-29 7 -49 19 l30 58 q34 -17 66 -17 q57 0 57 38 q0 23 -21.5 31 q-21.5 8 -66.5 8 l8 91 q-66 5 -121.5 30 q-55.5 25 -97.5 67 l66 62 q79 -70 184 -70 q73 0 114 33.5 q41 33.5 41 92.5 q0 61 -40.5 91 q-40.5 30 -110.5 30 l-119 0 l14 89 l101 0 q59 0 97.5 26 q38.5 26 38.5 77 q0 47 -37.5 73 q-37.5 26 -98.5 26 q-51 0 -93.5 -15.5 q-42.5 -15.5 -80.5 -46.5 l-60 64 q102 87 242 87 q74 0 129 -23 q55 -23 85 -64.5 q30 -41.5 30 -94.5 q0 -62 -40 -100 q-40 -38 -108 -49 q75 -7 123 -51.5 q48 -44.5 48 -119.5 Z" /><glyph glyph-name="uni049A" unicode="&#x49a;" d="M538 91 l57 0 l0 -248 l-91 0 l-16 157 l-26 0 l-194 317 l-74 0 l0 -317 l-115 0 l0 690 l115 0 l0 -283 l74 0 l189 283 l119 0 l-211 -320 l173 -279 Z" /><glyph glyph-name="uni049C" unicode="&#x49c;" d="M231 149 l0 171 l-43 0 l0 -320 l-109 0 l0 690 l109 0 l0 -286 l43 0 l0 167 l54 0 l0 -167 l23 0 l150 286 l116 0 l-178 -320 l197 -370 l-125 0 l-159 320 l-24 0 l0 -171 l-54 0 Z" /><glyph glyph-name="uni049E" unicode="&#x49e;" d="M381 370 l210 -370 l-133 0 l-174 317 l-73 0 l0 -317 l-116 0 l0 527 l-68 0 l0 80 l68 0 l0 83 l116 0 l0 -83 l103 0 l0 -80 l-103 0 l0 -120 l73 0 l170 283 l118 0 l-191 -320 Z" /><glyph glyph-name="uni04A0" unicode="&#x4a0;" d="M295 317 l-65 0 l0 -317 l-112 0 l0 597 l-111 0 l0 93 l223 0 l0 -284 l65 0 l170 284 l118 0 l-193 -320 l211 -370 l-131 0 l-175 317 Z" /><glyph glyph-name="uni04A2" unicode="&#x4a2;" d="M529 91 l57 0 l0 -248 l-91 0 l-16 157 l-66 0 l0 314 l-226 0 l0 -314 l-116 0 l0 690 l116 0 l0 -281 l226 0 l0 281 l116 0 l0 -599 Z" /><glyph glyph-name="uni04A4" unicode="&#x4a4;" d="M610 690 l-13 -93 l-128 0 l0 -597 l-116 0 l0 313 l-183 0 l0 -313 l-115 0 l0 690 l115 0 l0 -280 l183 0 l0 280 l257 0 Z" /><glyph glyph-name="uni04A6" unicode="&#x4a6;" d="M453 455 q63 0 99.5 -42 q36.5 -42 36.5 -112 l0 -354 q0 -78 -43 -121 q-43 -43 -112 -43 q-68 0 -121 40 l42 66 q18 -11 34 -16.5 q16 -5.5 37 -5.5 q58 0 58 72 l0 358 q0 69 -58 69 q-37 0 -70 -30 l0 -336 l-105 0 l0 601 l-120 0 l0 -601 l-105 0 l0 690 l330 0 l0 -273 q41 38 97 38 Z" /><glyph glyph-name="uni0524" unicode="&#x524;" d="M529 91 l57 0 l0 -248 l-91 0 l-16 157 l-66 0 l0 596 l-226 0 l0 -596 l-116 0 l0 690 l458 0 l0 -599 Z" /><glyph glyph-name="uni04A8" unicode="&#x4a8;" d="M582 265 q0 -70 -32.5 -134.5 q-32.5 -64.5 -90.5 -102.5 l80 -109 l-66 -49 l-33 44 q-11 14 -29.5 38.5 q-18.5 24.5 -30.5 41.5 q-35 -8 -69 -8 q-84 0 -147.5 41.5 q-63.5 41.5 -98.5 122.5 q-35 81 -35 195 q0 113 37 194.5 q37 81.5 99.5 123.5 q62.5 42 137.5 42 q62 0 106 -18 q44 -18 89 -55 l-57 -69 q-34 26 -66 38.5 q-32 12.5 -67 12.5 q-69 0 -112.5 -64.5 q-43.5 -64.5 -43.5 -204.5 q0 -139 42.5 -204 q42.5 -65 117.5 -65 l11 0 q-30 50 -45.5 94.5 q-15.5 44.5 -15.5 90.5 q0 76 44 123 q44 47 115 47 q73 0 116.5 -44.5 q43.5 -44.5 43.5 -121.5 ZM359 263 q0 -42 13 -81 q13 -39 38 -81 q70 44 70 166 q0 84 -59 84 q-30 0 -46 -23 q-16 -23 -16 -65 Z" /><glyph glyph-name="uni04AA" unicode="&#x4aa;" d="M398 -11 q76 -48 76 -120 q0 -52 -36.5 -83.5 q-36.5 -31.5 -99.5 -31.5 q-55 0 -100 25 l26 61 q34 -16 67 -16 q28 0 42 14 q14 14 14 39 q0 65 -74 113 q-77 11 -136 55.5 q-59 44.5 -92 121 q-33 76.5 -33 179.5 q0 112 40.5 193 q40.5 81 110.5 123 q70 42 155 42 q68 0 116 -17 q48 -17 92 -53 l-60 -72 q-63 51 -143 51 q-84 0 -137 -64.5 q-53 -64.5 -53 -202.5 q0 -136 52 -200.5 q52 -64.5 139 -64.5 q50 0 85.5 15.5 q35.5 15.5 70.5 43.5 l56 -71 q-71 -69 -178 -80 Z" /><glyph glyph-name="uni04AC" unicode="&#x4ac;" d="M556 596 l-199 0 l0 -505 l57 0 l0 -248 l-91 0 l-16 157 l-66 0 l0 596 l-208 0 l0 94 l535 0 l-12 -94 Z" /><glyph glyph-name="uni04B0" unicode="&#x4b0;" d="M589 690 l-207 -381 l100 0 l0 -77 l-124 0 l0 -232 l-116 0 l0 232 l-124 0 l0 77 l99 0 l-206 381 l128 0 l163 -327 l165 327 l122 0 Z" /><glyph glyph-name="uni04B2" unicode="&#x4b2;" d="M528 91 l56 0 l0 -248 l-91 0 l-16 157 l-26 0 l-153 293 l-154 -293 l-123 0 l208 367 l-191 323 l129 0 l133 -248 l135 248 l123 0 l-191 -317 l161 -282 Z" /><glyph glyph-name="uni04B4" unicode="&#x4b4;" d="M515 91 l50 0 l0 -248 l-85 0 l-16 157 l-350 0 l0 606 l-114 0 l0 84 l339 0 l-11 -84 l-104 0 l0 -513 l181 0 l0 597 l110 0 l0 -599 Z" /><glyph glyph-name="uni04B6" unicode="&#x4b6;" d="M586 91 l0 -248 l-91 0 l-16 157 l-66 0 l0 267 q-41 -29 -79 -42.5 q-38 -13.5 -87 -13.5 q-95 0 -150.5 57.5 q-55.5 57.5 -55.5 158.5 l0 263 l116 0 l0 -257 q0 -67 30 -98 q30 -31 91 -31 q79 0 135 52 l0 334 l116 0 l0 -599 l57 0 Z" /><glyph glyph-name="uni04B8" unicode="&#x4b8;" d="M529 690 l0 -690 l-116 0 l0 267 q-49 -35 -92 -47 l0 -99 l-61 0 l0 90 l-13 0 q-95 0 -150.5 57.5 q-55.5 57.5 -55.5 158.5 l0 263 l116 0 l0 -257 q0 -62 25.5 -93 q25.5 -31 77.5 -35 l0 239 l61 0 l0 -236 q53 11 92 48 l0 334 l116 0 Z" /><glyph glyph-name="uni04BA" unicode="&#x4ba;" d="M356 458 q96 0 149 -59 q53 -59 53 -165 l0 -234 l-116 0 l0 233 q0 66 -27.5 98.5 q-27.5 32.5 -85.5 32.5 q-46 0 -79.5 -16 q-33.5 -16 -62.5 -48 l0 -300 l-116 0 l0 690 l116 0 l0 -299 q69 67 169 67 Z" /><glyph glyph-name="uni0526" unicode="&#x526;" d="M602 91 l0 -248 l-91 0 l-16 157 l-64 0 l0 233 q0 66 -28 98.5 q-28 32.5 -87 32.5 q-76 0 -129 -63 l0 -301 l-116 0 l0 690 l116 0 l0 -296 q66 64 158 64 q96 0 149 -59 q53 -59 53 -165 l0 -143 l55 0 Z" /><glyph glyph-name="uni04BC" unicode="&#x4bc;" d="M570 357 q0 -30 -3 -57 l-323 0 q1 -118 36.5 -173 q35.5 -55 94.5 -55 q36 0 62 11.5 q26 11.5 57 33.5 l48 -63 q-76 -67 -170 -67 q-107 0 -168 79.5 q-61 79.5 -68 234.5 q-66 1 -101.5 36.5 q-35.5 35.5 -35.5 90.5 q0 53 35 103 l67 -29 q-10 -24 -14 -37 q-4 -13 -4 -30 q0 -51 50 -51 l3 0 q8 152 68 236 q60 84 158 84 q101 0 154.5 -89.5 q53.5 -89.5 53.5 -257.5 ZM467 384 q-3 127 -29.5 181 q-26.5 54 -76.5 54 q-52 0 -82 -56 q-30 -56 -35 -179 l223 0 Z" /><glyph glyph-name="uni04BE" unicode="&#x4be;" d="M570 357 q0 -30 -3 -57 l-323 0 q1 -118 36.5 -173 q35.5 -55 94.5 -55 q36 0 62 11.5 q26 11.5 57 33.5 l48 -63 q-43 -38 -90 -54 q-69 -28 -94.5 -54.5 q-25.5 -26.5 -25.5 -58.5 q0 -48 56 -48 q28 0 59 7 l-10 -77 q-33 -7 -62 -7 q-59 0 -96 29.5 q-37 29.5 -37 77.5 q0 75 80 123 q-85 17 -132.5 95 q-47.5 78 -53.5 214 q-66 1 -101.5 36.5 q-35.5 35.5 -35.5 90.5 q0 53 35 103 l67 -29 q-10 -24 -14 -37 q-4 -13 -4 -30 q0 -51 50 -51 l3 0 q8 152 68 236 q60 84 158 84 q101 0 154.5 -89.5 q53.5 -89.5 53.5 -257.5 ZM467 384 q-3 127 -29.5 181 q-26.5 54 -76.5 54 q-52 0 -82 -56 q-30 -56 -35 -179 l223 0 Z" /><glyph glyph-name="uni04C3" unicode="&#x4c3;" d="M380 392 q166 -22 166 -209 l0 -231 q0 -83 -43.5 -126 q-43.5 -43 -122.5 -43 q-68 0 -121 40 l43 70 q20 -11 34.5 -16 q14.5 -5 35.5 -5 q58 0 58 72 l0 237 q0 63 -27 93 q-27 30 -85 30 l-131 0 l0 -304 l-116 0 l0 690 l116 0 l0 -295 l86 0 l164 295 l118 0 l-175 -298 Z" /><glyph glyph-name="uni04C5" unicode="&#x4c5;" d="M592 100 l-86 -257 l-93 0 l37 157 l-64 0 l0 597 l-126 0 l-20 -169 q-17 -161 -39 -244 q-22 -83 -54 -123 q-32 -40 -91 -75 l-48 80 q32 25 50.5 54 q18.5 29 35.5 98 q17 69 32 201 l32 271 l344 0 l0 -590 l90 0 Z" /><glyph glyph-name="uni04C7" unicode="&#x4c7;" d="M529 690 l0 -738 q0 -83 -43.5 -126 q-43.5 -43 -122.5 -43 q-68 0 -121 40 l43 70 q20 -11 34.5 -16 q14.5 -5 35.5 -5 q58 0 58 72 l0 370 l-226 0 l0 -314 l-116 0 l0 690 l116 0 l0 -281 l226 0 l0 281 l116 0 Z" /><glyph glyph-name="uni04C9" unicode="&#x4c9;" d="M495 100 l90 0 l-86 -257 l-93 0 l37 157 l-64 0 l0 313 l-202 0 l0 -313 l-116 0 l0 690 l116 0 l0 -280 l202 0 l0 280 l116 0 l0 -590 Z" /><glyph glyph-name="uni04CB" unicode="&#x4cb;" d="M529 690 l0 -690 l-116 0 l0 267 q-41 -29 -79 -42.5 q-38 -13.5 -87 -13.5 q-95 0 -150.5 57.5 q-55.5 57.5 -55.5 158.5 l0 263 l116 0 l0 -257 q0 -67 30 -98 q30 -31 91 -31 q79 0 135 52 l0 334 l116 0 ZM216 91 l114 0 l19 -91 l-26 0 l-16 -157 l-91 0 l0 248 Z" /><glyph glyph-name="uni04CD" unicode="&#x4cd;" d="M614 100 l-86 -257 l-87 0 l36 157 l-47 0 l-17 336 q-3 71 -3 133 q0 73 3 118 l-85 -465 l-101 0 l-92 465 q3 -54 3 -152 q0 -67 -1 -100 l-14 -335 l-103 0 l39 690 l139 0 l82 -462 l77 462 l140 0 l33 -590 l84 0 Z" /><glyph glyph-name="uni04D8" unicode="&#x4d8;" d="M35 333 q0 20 4 56 l405 0 q-4 118 -44.5 172.5 q-40.5 54.5 -114.5 54.5 q-45 0 -78.5 -14.5 q-33.5 -14.5 -72.5 -42.5 l-57 64 q46 39 98 60 q52 21 118 21 q131 0 199.5 -89 q68.5 -89 68.5 -263 q0 -115 -31.5 -197 q-31.5 -82 -91 -125 q-59.5 -43 -141.5 -43 q-126 0 -194 89 q-68 89 -68 257 ZM297 75 q67 0 104 55.5 q37 55.5 43 172.5 l-298 0 q4 -122 41.5 -175 q37.5 -53 109.5 -53 Z" /><glyph glyph-name="uni04E0" unicode="&#x4e0;" d="M315 401 q113 0 169.5 -50.5 q56.5 -50.5 56.5 -142.5 q0 -64 -31.5 -114.5 q-31.5 -50.5 -90 -79 q-58.5 -28.5 -137.5 -28.5 q-76 0 -126.5 20 q-50.5 20 -96.5 60 l57 67 q41 -30 77 -43.5 q36 -13.5 87 -13.5 q67 0 103.5 34 q36.5 34 36.5 98 q0 60 -35 87 q-35 27 -102 27 l-111 0 l0 72 l208 205 l-289 0 l0 91 l418 0 l0 -89 l-207 -200 l13 0 Z" /><glyph glyph-name="uni04E8" unicode="&#x4e8;" d="M562 345 q0 -164 -67.5 -261 q-67.5 -97 -194.5 -97 q-127 0 -194.5 95.5 q-67.5 95.5 -67.5 261.5 q0 164 67.5 262 q67.5 98 194.5 98 q127 0 194.5 -96.5 q67.5 -96.5 67.5 -262.5 ZM300 613 q-69 0 -103.5 -54.5 q-34.5 -54.5 -39.5 -167.5 l285 0 q-5 112 -39 167 q-34 55 -103 55 ZM300 77 q72 0 106 58 q34 58 37 177 l-287 0 q3 -118 38 -176.5 q35 -58.5 106 -58.5 Z" /><glyph glyph-name="uni04F6" unicode="&#x4f6;" d="M538 594 l-303 0 l0 -503 l62 0 l0 -248 l-91 0 l-16 157 l-71 0 l0 690 l431 0 l-12 -96 Z" /><glyph glyph-name="uni04FA" unicode="&#x4fa;" d="M286 594 l0 -161 l151 0 l0 -79 l-151 0 l0 -263 l64 0 l0 -139 q0 -83 -43.5 -126 q-43.5 -43 -122.5 -43 q-68 0 -121 40 l43 70 q20 -11 34.5 -16 q14.5 -5 35.5 -5 q58 0 58 72 l0 56 l-64 0 l0 354 l-93 0 l0 79 l93 0 l0 257 l431 0 l-12 -96 l-303 0 Z" /><glyph glyph-name="uni04FC" unicode="&#x4fc;" d="M589 91 l0 -139 q0 -83 -43.5 -126 q-43.5 -43 -122.5 -43 q-68 0 -121 40 l43 70 q20 -11 34.5 -16 q14.5 -5 35.5 -5 q58 0 58 72 l0 56 l-34 0 l-153 293 l-154 -293 l-123 0 l208 367 l-191 323 l129 0 l133 -248 l135 248 l123 0 l-191 -317 l161 -282 l73 0 Z" /><glyph glyph-name="uni04FE" unicode="&#x4fe;" d="M393 327 l187 -327 l-129 0 l-153 293 l-154 -293 l-123 0 l185 327 l-174 0 l0 81 l173 0 l-167 282 l129 0 l133 -248 l135 248 l123 0 l-170 -282 l180 0 l0 -81 l-175 0 Z" /><glyph glyph-name="uni0500" unicode="&#x500;" d="M302 0 q-120 0 -191.5 55 q-71.5 55 -71.5 163 q0 104 72.5 162.5 q72.5 58.5 198.5 58.5 l95 0 l0 251 l116 0 l0 -690 l-219 0 ZM405 89 l0 263 l-94 0 q-150 0 -150 -134 q0 -69 38 -99 q38 -30 108 -30 l98 0 Z" /><glyph glyph-name="uni0502" unicode="&#x502;" d="M579 378 q5 -65 5 -129 q0 -133 -45 -198.5 q-45 -65.5 -125 -65.5 q-42 0 -73.5 19 q-31.5 19 -50.5 54 q-24 -36 -54 -54 q-30 -18 -70 -18 q-42 0 -78 24 q-36 24 -57.5 71.5 q-21.5 47.5 -21.5 115.5 q0 111 57.5 173 q57.5 62 158.5 62 l43 0 l0 258 l101 0 l0 -541 q0 -39 12 -59.5 q12 -20.5 35 -20.5 q67 0 67 178 q0 61 -5 131 l101 0 ZM185 69 q26 0 45 17 q19 17 38 54 l0 212 l-42 0 q-55 0 -85 -38 q-30 -38 -30 -116 q0 -67 20 -98 q20 -31 54 -31 Z" /><glyph glyph-name="uni0504" unicode="&#x504;" d="M573 380 q5 -65 5 -125 q0 -137 -49.5 -202.5 q-49.5 -65.5 -137.5 -65.5 q-68 0 -112 33 q-44 33 -76 103 l-76 161 l-79 0 l0 84 l73 0 q69 0 104 29 q35 29 35 93 q0 60 -36 87 q-36 27 -113 27 l-89 0 l0 86 l90 0 q133 0 201 -50.5 q68 -50.5 68 -149.5 q0 -137 -143 -184 l72 -157 q18 -41 36 -57.5 q18 -16.5 45 -16.5 q36 0 56 41 q20 41 20 139 q0 55 -5 125 l111 0 Z" /><glyph glyph-name="uni0506" unicode="&#x506;" d="M559 91 l0 -248 l-91 0 l-16 157 l-42 0 l-174 284 l-140 0 l0 85 l150 0 q69 0 104 29 q35 29 35 92 q0 60 -34.5 87 q-34.5 27 -106.5 27 l-177 0 l0 86 l170 0 q269 0 269 -200 q0 -72 -43 -120 q-43 -48 -114 -70 l137 -209 l73 0 Z" /><glyph glyph-name="uni0508" unicode="&#x508;" d="M586 378 q5 -65 5 -129 q0 -133 -45.5 -198.5 q-45.5 -65.5 -125.5 -65.5 q-64 0 -105 43.5 q-41 43.5 -41 126.5 l0 450 l-79 0 l-14 -217 q-9 -143 -24 -218 q-15 -75 -37.5 -112 q-22.5 -37 -65.5 -72 l-53 73 q23 22 36.5 52 q13.5 30 24 99 q10.5 69 20.5 203 l20 277 l273 0 l0 -541 q0 -39 12.5 -59.5 q12.5 -20.5 35.5 -20.5 q66 0 66 178 q0 61 -5 131 l102 0 Z" /><glyph glyph-name="uni050A" unicode="&#x50a;" d="M585 378 q6 -58 6 -129 q0 -133 -46 -198.5 q-46 -65.5 -127 -65.5 q-65 0 -107 43.5 q-42 43.5 -42 126.5 l0 158 l-123 0 l0 -313 l-104 0 l0 690 l104 0 l0 -288 l123 0 l0 288 l104 0 l0 -541 q0 -39 12.5 -59.5 q12.5 -20.5 35.5 -20.5 q30 0 48 42 q18 42 18 136 q0 61 -5 131 l103 0 Z" /><glyph glyph-name="uni050E" unicode="&#x50e;" d="M567 379 q5 -65 5 -127 q0 -89 -29.5 -148.5 q-29.5 -59.5 -77.5 -88 q-48 -28.5 -106 -28.5 q-76 0 -125.5 49.5 q-49.5 49.5 -49.5 141.5 l0 419 l-170 0 l0 93 l478 0 l-12 -93 l-180 0 l0 -425 q0 -99 63 -99 q44 0 70.5 42 q26.5 42 26.5 137 q0 59 -5 127 l112 0 Z" /><glyph glyph-name="uni0510" unicode="&#x510;" d="M321 704 q71 0 129 -21.5 q58 -21.5 110 -65.5 l-60 -64 q-39 31 -80.5 46.5 q-41.5 15.5 -92.5 15.5 q-62 0 -99.5 -26 q-37.5 -26 -37.5 -74 q0 -50 38 -76 q38 -26 98 -26 l115 0 l-13 -89 l-106 0 q-70 0 -110.5 -30.5 q-40.5 -30.5 -40.5 -91.5 q0 -58 41 -91.5 q41 -33.5 113 -33.5 q105 0 187 70 l64 -62 q-47 -48 -112.5 -73 q-65.5 -25 -143.5 -25 q-82 0 -143 27 q-61 27 -93.5 75.5 q-32.5 48.5 -32.5 110.5 q0 75 48 119.5 q48 44.5 123 53.5 q-68 10 -108 47 q-40 37 -40 97 q0 55 31.5 97.5 q31.5 42.5 87.5 66 q56 23.5 128 23.5 Z" /><glyph glyph-name="uni0512" unicode="&#x512;" d="M529 690 l0 -738 q0 -83 -43.5 -126 q-43.5 -43 -122.5 -43 q-68 0 -121 40 l43 70 q20 -11 34.5 -16 q14.5 -5 35.5 -5 q58 0 58 72 l0 653 l-157 0 l-19 -169 q-18 -161 -39.5 -244 q-21.5 -83 -53.5 -123 q-32 -40 -91 -75 l-48 80 q32 25 50.5 54 q18.5 29 35.5 98 q17 69 32 201 l32 271 l374 0 Z" /><glyph glyph-name="uni0514" unicode="&#x514;" d="M607 0 l-104 0 l-104 294 l-100 -294 l-100 0 l137 368 l-91 234 l-55 0 l-15 -214 q-9 -143 -23.5 -217.5 q-14.5 -74.5 -37 -112 q-22.5 -37.5 -65.5 -72.5 l-53 73 q23 22 36.5 52 q13.5 30 24 99 q10.5 69 20.5 203 l20 277 l3 -3 l-2 3 l217 0 l89 -251 l88 251 l100 0 l-128 -319 l143 -371 Z" /><glyph glyph-name="uni0516" unicode="&#x516;" d="M479 0 l-142 314 q-28 -32 -67 -50 q-39 -18 -85 -18 l-36 0 l0 -246 l-107 0 l0 690 l139 0 q99 0 155 -57 q56 -57 57 -158 l96 215 l103 0 l-159 -331 l163 -359 l-117 0 ZM179 333 q53 0 83.5 33 q30.5 33 30.5 107 q0 66 -29 99 q-29 33 -81 33 l-34 0 l0 -272 l30 0 Z" /><glyph glyph-name="uni0518" unicode="&#x518;" d="M598 87 l0 -87 l-312 0 l0 267 l-55 0 l-104 -267 l-122 0 l127 291 q-115 57 -115 187 q0 64 30 112 q30 48 85 74 q55 26 128 26 l332 0 l-12 -87 l-184 0 l0 -209 l150 0 l0 -87 l-150 0 l0 -220 l202 0 ZM286 605 l-33 0 q-57 0 -88.5 -32 q-31.5 -32 -31.5 -95 q0 -63 29 -94.5 q29 -31.5 78 -31.5 l46 0 l0 253 Z" /><glyph glyph-name="uni051E" unicode="&#x51e;" d="M361 370 l230 -370 l-133 0 l-194 317 l-74 0 l0 -317 l-115 0 l0 690 l115 0 l0 -283 l74 0 l79 118 l-110 63 l38 67 l115 -66 l67 101 l119 0 l-99 -150 l104 -60 l-39 -67 l-108 62 l-69 -105 Z" /><glyph glyph-name="uni0520" unicode="&#x520;" d="M456 455 q59 0 92.5 -40.5 q33.5 -40.5 33.5 -106.5 l0 -361 q0 -77 -42.5 -120.5 q-42.5 -43.5 -109.5 -43.5 q-67 0 -120 40 l41 65 q18 -11 34 -16.5 q16 -5.5 37 -5.5 q58 0 58 71 l0 360 q0 69 -51 69 q-34 0 -66 -29 l0 -337 l-101 0 l0 605 l-79 0 l-15 -217 q-9 -142 -23.5 -217 q-14.5 -75 -37 -112.5 q-22.5 -37.5 -65.5 -72.5 l-53 73 q23 22 36.5 52 q13.5 30 24 99 q10.5 69 20.5 203 l20 277 l273 0 l0 -273 q40 38 93 38 Z" /><glyph glyph-name="uni0522" unicode="&#x522;" d="M453 455 q63 0 99.5 -42 q36.5 -42 36.5 -112 l0 -354 q0 -78 -43 -121 q-43 -43 -112 -43 q-68 0 -121 40 l42 66 q18 -11 34 -16.5 q16 -5.5 37 -5.5 q58 0 58 72 l0 358 q0 69 -58 69 q-37 0 -70 -30 l0 -336 l-103 0 l0 313 l-124 0 l0 -313 l-104 0 l0 690 l104 0 l0 -288 l124 0 l0 288 l103 0 l0 -273 q41 38 97 38 Z" /><glyph glyph-name="uni048C" unicode="&#x48c;" d="M312 434 q120 0 190 -53.5 q70 -53.5 70 -156.5 q0 -112 -72 -168 q-72 -56 -192 -56 l-198 0 l0 527 l-80 0 l0 74 l80 0 l0 89 l116 0 l0 -89 l127 0 l0 -74 l-127 0 l0 -93 l86 0 ZM310 89 q141 0 141 134 q0 124 -141 124 l-84 0 l0 -258 l84 0 Z" /><glyph glyph-name="uni048E" unicode="&#x48e;" d="M564 472 q0 -60 -25 -106 q-25 -46 -70 -75 l75 -123 l-79 0 l-58 94 q-53 -16 -112 -16 l-84 0 l0 -246 l-115 0 l0 690 l191 0 q133 0 205 -54.5 q72 -54.5 72 -163.5 ZM299 334 q34 0 61 6 l-85 139 l79 0 l64 -105 q28 32 28 97 q0 132 -148 132 l-87 0 l0 -269 l88 0 Z" /><glyph glyph-name="uni0431" unicode="&#x431;" d="M339 495 q58 0 102.5 -29.5 q44.5 -29.5 69.5 -85 q25 -55.5 25 -131.5 q0 -84 -30 -143 q-30 -59 -83.5 -89 q-53.5 -30 -123.5 -30 q-110 0 -173 75.5 q-63 75.5 -63 230.5 q0 114 17.5 188 q17.5 74 61 121.5 q43.5 47.5 122.5 73.5 q61 20 97 35.5 q36 15.5 77 41.5 l44 -78 q-34 -22 -72.5 -39.5 q-38.5 -17.5 -94.5 -37.5 q-46 -16 -73 -36 q-27 -20 -43 -56.5 q-16 -36.5 -22 -99.5 q27 43 68.5 66 q41.5 23 93.5 23 ZM299 72 q56 0 88 38.5 q32 38.5 32 136.5 q0 87 -27 125 q-27 38 -79 38 q-39 0 -74 -23 q-35 -23 -59 -65 l0 -64 q0 -90 31 -138 q31 -48 88 -48 Z" /><glyph glyph-name="uni0432" unicode="&#x432;" d="M408 288 q134 -15 134 -131 q0 -79 -65.5 -118 q-65.5 -39 -166.5 -39 l-211 0 l0 522 q105 20 194 20 q102 0 162.5 -36.5 q60.5 -36.5 60.5 -102.5 q0 -44 -26 -72.5 q-26 -28.5 -82 -42.5 ZM293 462 q-43 0 -82 -6 l0 -140 l93 0 q49 0 74.5 17.5 q25.5 17.5 25.5 56.5 q0 38 -27 55 q-27 17 -84 17 ZM298 82 q59 0 93.5 16.5 q34.5 16.5 34.5 63.5 q0 82 -115 82 l-100 0 l0 -162 l87 0 Z" /><glyph glyph-name="uni0433" unicode="&#x433;" d="M256 0 l-112 0 l0 528 l386 0 l-13 -90 l-261 0 l0 -438 Z" /><glyph glyph-name="uni0491" unicode="&#x491;" d="M422 668 l108 0 l0 -140 l-13 -90 l-261 0 l0 -438 l-112 0 l0 528 l278 0 l0 140 Z" /><glyph glyph-name="uni0434" unicode="&#x434;" d="M550 87 l0 -244 l-89 0 l-16 157 l-319 0 l-16 -157 l-89 0 l0 244 l38 0 q23 20 37 49 q14 29 23.5 81 q9.5 52 16.5 141 l12 170 l358 0 l0 -441 l44 0 ZM397 444 l-149 0 l-5 -80 q-7 -93 -17 -145 q-10 -52 -26.5 -81 q-16.5 -29 -46.5 -51 l244 0 l0 357 Z" /><glyph glyph-name="uni0435" unicode="&#x435;" d="M182 228 q5 -77 44.5 -115.5 q39.5 -38.5 99.5 -38.5 q37 0 70.5 11.5 q33.5 11.5 68.5 34.5 l48 -68 q-37 -31 -87 -48 q-50 -17 -105 -17 q-121 0 -188 75.5 q-67 75.5 -67 201.5 q0 79 29 142.5 q29 63.5 84 99.5 q55 36 128 36 q105 0 166.5 -70.5 q61.5 -70.5 61.5 -193.5 q0 -30 -3 -50 l-350 0 ZM308 459 q-54 0 -88 -39 q-34 -39 -39 -116 l245 0 q-2 75 -32 115 q-30 40 -86 40 Z" /><glyph glyph-name="uni0436" unicode="&#x436;" d="M257 0 l0 241 l-45 0 l-97 -241 l-105 0 l122 284 l-115 244 l106 0 l88 -213 l46 0 l0 213 l86 0 l0 -213 l46 0 l92 213 l102 0 l-115 -244 l122 -284 l-105 0 l-98 241 l-44 0 l0 -241 l-86 0 Z" /><glyph glyph-name="uni0437" unicode="&#x437;" d="M278 315 q48 0 75.5 19.5 q27.5 19.5 27.5 52.5 q0 71 -111 71 q-40 0 -81.5 -11 q-41.5 -11 -76.5 -32 l-50 63 q42 31 98 47.5 q56 16.5 116 16.5 q97 0 158.5 -38 q61.5 -38 61.5 -107 q0 -85 -115 -116 q61 -4 102 -36 q41 -32 41 -89 q0 -81 -69 -125 q-69 -44 -181 -44 q-140 0 -231 72 l51 68 q41 -27 84 -41 q43 -14 97 -14 q64 0 97.5 23 q33.5 23 33.5 63 q0 38 -30.5 57 q-30.5 19 -89.5 19 l-110 0 l7 81 l95 0 Z" /><glyph glyph-name="uni0438" unicode="&#x438;" d="M511 0 l-108 0 l0 217 q0 63 5 118.5 q5 55.5 10 78.5 l-204 -414 l-125 0 l0 528 l108 0 l0 -218 q0 -58 -4.5 -115 q-4.5 -57 -10.5 -79 l202 412 l127 0 l0 -528 Z" /><glyph glyph-name="uni048B" unicode="&#x48b;" d="M285 634 q-66 0 -108 35.5 q-42 35.5 -48 92.5 l68 14 q19 -61 88 -61 q73 0 90 61 l69 -14 q-6 -57 -49 -92.5 q-43 -35.5 -110 -35.5 ZM578 94 l-79 -251 l-91 0 l37 157 l-60 0 l0 217 q0 116 14 207 l-192 -424 l-125 0 l0 528 l108 0 l0 -218 q0 -60 -5.5 -116.5 q-5.5 -56.5 -13.5 -91.5 l196 426 l125 0 l0 -434 l86 0 Z" /><glyph glyph-name="uni043A" unicode="&#x43a;" d="M93 0 l0 528 l112 0 l0 -209 l93 0 l138 209 l117 0 l-166 -244 l189 -284 l-127 0 l-153 237 l-91 0 l0 -237 l-112 0 Z" /><glyph glyph-name="uni043B" unicode="&#x43b;" d="M517 0 l-112 0 l0 441 l-166 0 l-8 -111 q-9 -120 -24.5 -183.5 q-15.5 -63.5 -44 -97.5 q-28.5 -34 -83.5 -63 l-48 71 q29 18 45.5 41.5 q16.5 23.5 28 75.5 q11.5 52 19.5 151 l15 203 l378 0 l0 -528 Z" /><glyph glyph-name="uni043C" unicode="&#x43c;" d="M566 0 l-103 0 l-16 228 q-3 60 -3 123 q0 46 1 71 l-4 0 l-92 -335 l-95 0 l-102 335 l-4 0 q2 -25 2 -77 q0 -61 -3 -118 l-11 -227 l-102 0 l37 528 l133 0 l99 -347 l89 347 l136 0 l38 -528 Z" /><glyph glyph-name="uni043D" unicode="&#x43d;" d="M399 0 l0 226 l-198 0 l0 -226 l-112 0 l0 528 l112 0 l0 -215 l198 0 l0 215 l112 0 l0 -528 l-112 0 Z" /><glyph glyph-name="uni043E" unicode="&#x43e;" d="M301 542 q114 0 176 -74.5 q62 -74.5 62 -202.5 q0 -128 -63 -203 q-63 -75 -176 -75 q-114 0 -176.5 73.5 q-62.5 73.5 -62.5 203.5 q0 126 63.5 202 q63.5 76 176.5 76 ZM301 455 q-61 0 -91.5 -47 q-30.5 -47 -30.5 -144 q0 -98 30 -144.5 q30 -46.5 91 -46.5 q61 0 91 47 q30 47 30 145 q0 97 -30 143.5 q-30 46.5 -90 46.5 Z" /><glyph glyph-name="uni043F" unicode="&#x43f;" d="M400 0 l0 441 l-200 0 l0 -441 l-111 0 l0 528 l422 0 l0 -528 l-111 0 Z" /><glyph glyph-name="uni0442" unicode="&#x442;" d="M549 528 l-13 -87 l-180 0 l0 -441 l-112 0 l0 441 l-187 0 l0 87 l492 0 Z" /><glyph glyph-name="uni0443" unicode="&#x443;" d="M369 -2 q-32 -96 -92.5 -150.5 q-60.5 -54.5 -166.5 -63.5 l-14 84 q52 8 84 24.5 q32 16.5 51 41.5 q19 25 34 66 l-38 0 l-178 528 l119 0 l133 -450 l135 450 l115 0 l-182 -530 Z" /><glyph glyph-name="uni0444" unicode="&#x444;" d="M345 741 l0 -251 q39 52 98 52 q76 0 105 -70 q29 -70 29 -208 q0 -130 -36.5 -203.5 q-36.5 -73.5 -107.5 -73.5 q-51 0 -88 52 l0 -243 l-90 -12 l0 255 q-37 -52 -90 -52 q-70 0 -106 73.5 q-36 73.5 -36 203.5 q0 135 32 206.5 q32 71.5 108 71.5 q27 0 49.5 -12 q22.5 -12 42.5 -38 l0 261 l90 -12 ZM193 460 q-34 0 -48.5 -45 q-14.5 -45 -14.5 -151 q0 -106 14.5 -151 q14.5 -45 48.5 -45 q17 0 29.5 10 q12.5 10 32.5 34 l0 307 q-17 22 -30 31.5 q-13 9.5 -32 9.5 ZM413 460 q-20 0 -35.5 -9.5 q-15.5 -9.5 -32.5 -31.5 l0 -307 q17 -23 30.5 -33.5 q13.5 -10.5 31.5 -10.5 q33 0 48 45.5 q15 45.5 15 150.5 q0 108 -12.5 152 q-12.5 44 -44.5 44 Z" /><glyph glyph-name="uni0447" unicode="&#x447;" d="M503 0 l-112 0 l0 213 q-30 -26 -71.5 -40.5 q-41.5 -14.5 -88.5 -14.5 q-78 0 -119 42 q-41 42 -41 117 l0 211 l112 0 l0 -198 q0 -46 20.5 -66.5 q20.5 -20.5 62.5 -20.5 q34 0 69 14 q35 14 56 37 l0 234 l112 0 l0 -528 Z" /><glyph glyph-name="uni0446" unicode="&#x446;" d="M502 87 l77 0 l0 -244 l-89 0 l-16 157 l-394 0 l0 528 l111 0 l0 -440 l200 0 l0 440 l111 0 l0 -441 Z" /><glyph glyph-name="uni0448" unicode="&#x448;" d="M560 528 l0 -528 l-520 0 l0 528 l100 0 l0 -440 l114 0 l0 440 l92 0 l0 -440 l114 0 l0 440 l100 0 Z" /><glyph glyph-name="uni0449" unicode="&#x449;" d="M560 87 l64 0 l0 -244 l-89 0 l-16 157 l-479 0 l0 528 l100 0 l0 -440 l114 0 l0 440 l92 0 l0 -440 l114 0 l0 440 l100 0 l0 -441 Z" /><glyph glyph-name="uni045F" unicode="&#x45f;" d="M511 528 l0 -528 l-159 0 l0 -157 l-89 0 l-16 157 l-158 0 l0 528 l111 0 l0 -440 l200 0 l0 440 l111 0 Z" /><glyph glyph-name="uni044C" unicode="&#x44c;" d="M224 365 l85 0 q122 0 177.5 -46 q55.5 -46 55.5 -135 q0 -94 -61.5 -139 q-61.5 -45 -158.5 -45 l-210 0 l0 528 l112 0 l0 -163 ZM224 285 l0 -202 l93 0 q52 0 79.5 23 q27.5 23 27.5 79 q0 52 -26 76 q-26 24 -89 24 l-85 0 Z" /><glyph glyph-name="uni044A" unicode="&#x44a;" d="M255 365 l54 0 q246 0 246 -180 q0 -96 -63 -140.5 q-63 -44.5 -176 -44.5 l-173 0 l0 445 l-117 0 l0 83 l229 0 l0 -163 ZM255 284 l0 -201 l62 0 q58 0 89 22.5 q31 22.5 31 80.5 q0 52 -30.5 75 q-30.5 23 -90.5 23 l-61 0 Z" /><glyph glyph-name="uni044B" unicode="&#x44b;" d="M149 361 l26 0 q228 0 228 -177 q0 -93 -58.5 -138.5 q-58.5 -45.5 -163.5 -45.5 l-133 0 l0 528 l101 0 l0 -167 ZM552 528 l0 -528 l-102 0 l0 528 l102 0 ZM149 286 l0 -208 l33 0 q56 0 84.5 24 q28.5 24 28.5 83 q0 54 -27.5 77.5 q-27.5 23.5 -87.5 23.5 l-31 0 Z" /><glyph glyph-name="uni0459" unicode="&#x459;" d="M370 360 l12 0 q214 0 214 -177 q0 -90 -55.5 -136.5 q-55.5 -46.5 -153.5 -46.5 l-116 0 l0 447 l-88 0 l-5 -126 q-5 -114 -19.5 -176.5 q-14.5 -62.5 -42 -96 q-27.5 -33.5 -79.5 -62.5 l-38 72 q23 18 37.5 41 q14.5 23 25 75 q10.5 52 15.5 147 l10 207 l283 0 l0 -168 ZM370 285 l0 -208 l16 0 q53 0 78 23.5 q25 23.5 25 83.5 q0 55 -24 78 q-24 23 -80 23 l-15 0 Z" /><glyph glyph-name="uni045A" unicode="&#x45a;" d="M373 334 l12 0 q214 0 214 -166 q0 -87 -56 -127.5 q-56 -40.5 -158 -40.5 l-111 0 l0 258 l-116 0 l0 -258 l-101 0 l0 528 l101 0 l0 -194 l116 0 l0 194 l99 0 l0 -194 ZM373 260 l0 -182 l13 0 q56 0 81.5 18.5 q25.5 18.5 25.5 72.5 q0 49 -24.5 70 q-24.5 21 -79.5 21 l-16 0 Z" /><glyph glyph-name="uni0454" unicode="&#x454;" d="M341 542 q108 0 184 -61 l-50 -68 q-63 43 -131 43 q-60 0 -98.5 -37 q-38.5 -37 -47.5 -109 l229 0 l0 -79 l-229 0 q6 -80 45 -118.5 q39 -38.5 101 -38.5 q37 0 68.5 10.5 q31.5 10.5 63.5 32.5 l49 -68 q-36 -30 -85 -46 q-49 -16 -99 -16 q-122 0 -190 74 q-68 74 -68 200 q0 81 31 144.5 q31 63.5 89.5 100 q58.5 36.5 137.5 36.5 Z" /><glyph glyph-name="uni044D" unicode="&#x44d;" d="M278 542 q120 0 183.5 -74.5 q63.5 -74.5 63.5 -202.5 q0 -127 -67 -202.5 q-67 -75.5 -189 -75.5 q-53 0 -101 16.5 q-48 16.5 -85 47.5 l52 67 q30 -23 62 -33.5 q32 -10.5 70 -10.5 q131 0 144 157 l-229 0 l0 79 l227 0 q-13 146 -137 146 q-74 0 -133 -43 l-51 67 q79 62 190 62 Z" /><glyph glyph-name="uni044E" unicode="&#x44e;" d="M390 542 q94 0 139.5 -72 q45.5 -72 45.5 -205 q0 -132 -45 -205 q-45 -73 -140 -73 q-88 0 -132 63.5 q-44 63.5 -50 176.5 l-60 0 l0 -227 l-101 0 l0 528 l101 0 l0 -217 l60 0 q7 110 51.5 170.5 q44.5 60.5 130.5 60.5 ZM390 460 q-45 0 -61.5 -45 q-16.5 -45 -16.5 -151 q0 -102 16.5 -148.5 q16.5 -46.5 61.5 -46.5 q46 0 62 46.5 q16 46.5 16 149.5 q0 103 -17 149 q-17 46 -61 46 Z" /><glyph glyph-name="uni044F" unicode="&#x44f;" d="M501 528 l0 -528 l-112 0 l0 197 l-119 0 l-107 -197 l-123 0 l127 222 q-45 21 -68.5 56.5 q-23.5 35.5 -23.5 83.5 q0 79 58.5 122.5 q58.5 43.5 167.5 43.5 l200 0 ZM389 275 l0 174 l-90 0 q-54 0 -80.5 -21 q-26.5 -21 -26.5 -64 q0 -46 25.5 -67.5 q25.5 -21.5 80.5 -21.5 l91 0 Z" /><glyph glyph-name="uni0452" unicode="&#x452;" d="M201 673 l158 0 l0 -77 l-158 0 l0 -131 q31 37 74 57 q43 20 90 20 q73 0 110 -40.5 q37 -40.5 37 -116.5 l0 -338 q0 -79 -19.5 -128 q-19.5 -49 -56.5 -78 q-37 -29 -100 -56 l-41 82 q39 18 60.5 35 q21.5 17 33 47.5 q11.5 30.5 11.5 81.5 l0 344 q0 43 -18.5 62 q-18.5 19 -57.5 19 q-35 0 -67.5 -22.5 q-32.5 -22.5 -55.5 -55.5 l0 -378 l-112 0 l0 596 l-74 0 l0 77 l74 0 l0 66 l112 12 l0 -78 Z" /><glyph glyph-name="uni0463" unicode="&#x463;" d="M240 540 l133 0 l-12 -77 l-121 0 l0 -102 l62 0 q246 0 246 -179 q0 -94 -62.5 -138 q-62.5 -44 -174.5 -44 l-183 0 l0 463 l-78 0 l0 77 l78 0 l0 110 l112 12 l0 -122 ZM240 280 l0 -197 l70 0 q58 0 89 22 q31 22 31 78 q0 51 -30.5 74 q-30.5 23 -90.5 23 l-69 0 Z" /><glyph glyph-name="uni0465" unicode="&#x465;" d="M437 70 q27 0 48 9.5 q21 9.5 42 27.5 l52 -58 q-30 -30 -67.5 -46 q-37.5 -16 -75.5 -16 q-94 0 -149.5 64 q-55.5 64 -63.5 176 l-57 0 l0 -227 l-103 0 l0 528 l103 0 l0 -217 l59 0 q11 105 66 168 q55 63 148 63 q79 0 142 -57 l-51 -59 q-22 17 -43 25.5 q-21 8.5 -47 8.5 q-50 0 -77 -37.5 q-27 -37.5 -35 -112.5 l178 0 l0 -79 l-179 0 q3 -83 32.5 -122 q29.5 -39 77.5 -39 Z" /><glyph glyph-name="uni0467" unicode="&#x467;" d="M463 0 l-70 196 l-51 0 l0 -196 l-87 0 l0 196 l-50 0 l-69 -196 l-107 0 l204 528 l136 0 l203 -528 l-109 0 ZM233 276 l131 0 l-66 183 l-65 -183 Z" /><glyph glyph-name="uni0469" unicode="&#x469;" d="M511 0 l-53 195 l-35 0 l0 -195 l-78 0 l0 195 l-31 0 l-53 -195 l-93 0 l57 195 l-89 0 l0 -195 l-98 0 l0 528 l98 0 l0 -254 l112 0 l74 254 l128 0 l155 -528 l-94 0 ZM335 274 l101 0 l-51 186 l-50 -186 Z" /><glyph glyph-name="uni046B" unicode="&#x46b;" d="M478 300 l107 -300 l-98 0 l-72 221 l-64 0 l0 -221 l-101 0 l0 221 l-64 0 l-71 -221 l-99 0 l107 300 l84 0 l-117 172 l0 56 l414 0 l0 -56 l-117 -172 l91 0 ZM202 454 l97 -154 l96 154 l-193 0 Z" /><glyph glyph-name="uni046D" unicode="&#x46d;" d="M529 301 l91 -301 l-95 0 l-58 222 l-35 0 l0 -222 l-91 0 l0 222 l-36 0 l-59 -222 l-94 0 l68 222 l-101 0 l0 -222 l-98 0 l0 528 l98 0 l0 -227 l179 0 l-102 171 l0 56 l373 0 l0 -56 l-102 -171 l62 0 ZM300 457 l85 -156 l82 156 l-167 0 Z" /><glyph glyph-name="uni046F" unicode="&#x46f;" d="M416 799 l45 -50 l-137 -127 l-72 0 l-137 127 l46 50 l128 -92 l127 92 ZM215 -219 q-69 29 -103.5 64 q-34.5 35 -34.5 80 q0 51 40.5 80.5 q40.5 29.5 132.5 44.5 q59 9 92 19 q33 10 48 26 q15 16 15 43 q0 35 -19 50.5 q-19 15.5 -57 15.5 l-168 0 l0 74 l196 163 l-278 0 l0 87 l417 0 l0 -82 l-206 -163 l60 0 q83 0 129 -37 q46 -37 46 -109 q0 -74 -53 -112.5 q-53 -38.5 -154 -54.5 q-54 -9 -81 -16.5 q-27 -7.5 -37 -16 q-10 -8.5 -10 -22.5 q0 -17 15.5 -32 q15.5 -15 46.5 -31 l-37 -71 Z" /><glyph glyph-name="uni0475" unicode="&#x475;" d="M43 528 l121 0 l125 -434 l103 362 q17 65 45.5 92 q28.5 27 80.5 27 q32 0 73 -16 l-27 -78 q-12 6 -28 6 q-16 0 -25 -9.5 q-9 -9.5 -16 -32.5 l-140 -445 l-134 0 l-178 528 Z" /><glyph glyph-name="uni0479" unicode="&#x479;" d="M156 -13 q-79 0 -118.5 72.5 q-39.5 72.5 -39.5 204.5 q0 128 40 203 q40 75 118 75 q81 0 119.5 -73 q38.5 -73 38.5 -204 q0 -131 -39 -204.5 q-39 -73.5 -119 -73.5 ZM288 -149 q68 17 102 49.5 q34 32.5 48 99.5 l-42 0 l-86 528 l93 0 l57 -450 l58 450 l90 0 l-87 -524 q-17 -101 -72 -154.5 q-55 -53.5 -145 -65.5 l-16 67 ZM156 59 q37 0 52 48 q15 48 15 158 q0 110 -15 157.5 q-15 47.5 -52 47.5 q-37 0 -52 -48 q-15 -48 -15 -158 q0 -110 15 -157.5 q15 -47.5 52 -47.5 Z" /><glyph glyph-name="uni0493" unicode="&#x493;" d="M546 438 l-261 0 l0 -132 l122 0 l0 -79 l-122 0 l0 -227 l-112 0 l0 227 l-87 0 l0 79 l87 0 l0 222 l386 0 l-13 -90 Z" /><glyph glyph-name="uni0495" unicode="&#x495;" d="M361 348 q69 0 110 -42 q41 -42 41 -119 l0 -235 q0 -82 -43.5 -125.5 q-43.5 -43.5 -120.5 -43.5 q-68 0 -121 40 l43 67 q22 -11 35.5 -15.5 q13.5 -4.5 34.5 -4.5 q60 0 60 72 l0 237 q0 44 -18.5 64 q-18.5 20 -53.5 20 q-37 0 -65.5 -19 q-28.5 -19 -56.5 -54 l0 -190 l-112 0 l0 528 l346 0 l-15 -85 l-219 0 l0 -168 q29 33 68.5 53 q39.5 20 86.5 20 Z" /><glyph glyph-name="uni0497" unicode="&#x497;" d="M548 87 l59 0 l0 -244 l-75 0 l-17 157 l-37 0 l-91 241 l-44 0 l0 -241 l-86 0 l0 241 l-45 0 l-90 -241 l-105 0 l115 284 l-108 244 l105 0 l82 -213 l46 0 l0 213 l86 0 l0 -213 l46 0 l85 213 l102 0 l-108 -244 l80 -197 Z" /><glyph glyph-name="uni0499" unicode="&#x499;" d="M524 156 q0 -71 -54.5 -114.5 q-54.5 -43.5 -146.5 -52.5 l0 -43 q48 -4 72.5 -28.5 q24.5 -24.5 24.5 -60.5 q0 -48 -38 -76 q-38 -28 -95 -28 q-31 0 -60 7 q-29 7 -49 19 l30 58 q34 -17 66 -17 q57 0 57 38 q0 23 -21.5 31 q-21.5 8 -66.5 8 l8 91 q-125 5 -208 71 l51 68 q41 -27 84 -41 q43 -14 97 -14 q64 0 97.5 23 q33.5 23 33.5 63 q0 38 -30.5 57 q-30.5 19 -89.5 19 l-110 0 l7 81 l95 0 q48 0 75.5 19.5 q27.5 19.5 27.5 52.5 q0 71 -111 71 q-40 0 -81.5 -11 q-41.5 -11 -76.5 -32 l-50 63 q42 31 98 47.5 q56 16.5 116 16.5 q97 0 158.5 -38 q61.5 -38 61.5 -107 q0 -85 -115 -116 q61 -4 102 -36 q41 -32 41 -89 Z" /><glyph glyph-name="uni049B" unicode="&#x49b;" d="M518 87 l73 0 l0 -244 l-89 0 l-16 157 l-37 0 l-153 237 l-91 0 l0 -237 l-112 0 l0 528 l112 0 l0 -209 l93 0 l138 209 l117 0 l-166 -244 l131 -197 Z" /><glyph glyph-name="uni049D" unicode="&#x49d;" d="M93 0 l0 528 l110 0 l0 -212 l41 0 l0 115 l48 0 l0 -115 l24 0 l125 212 l112 0 l-148 -244 l171 -284 l-120 0 l-140 240 l-24 0 l0 -121 l-48 0 l0 121 l-41 0 l0 -240 l-110 0 Z" /><glyph glyph-name="uni049F" unicode="&#x49f;" d="M383 284 l188 -284 l-127 0 l-153 237 l-71 0 l0 -237 l-112 0 l0 566 l-79 0 l0 77 l79 0 l0 97 l112 13 l0 -110 l139 0 l0 -77 l-139 0 l0 -247 l73 0 l138 209 l117 0 l-165 -244 Z" /><glyph glyph-name="uni04A1" unicode="&#x4a1;" d="M407 284 l185 -284 l-126 0 l-151 237 l-81 0 l0 -237 l-112 0 l0 445 l-117 0 l0 83 l229 0 l0 -209 l84 0 l135 209 l117 0 l-163 -244 Z" /><glyph glyph-name="uni04A3" unicode="&#x4a3;" d="M495 87 l77 0 l0 -244 l-89 0 l-16 157 l-84 0 l0 226 l-198 0 l0 -226 l-112 0 l0 528 l112 0 l0 -215 l198 0 l0 215 l112 0 l0 -441 Z" /><glyph glyph-name="uni04A5" unicode="&#x4a5;" d="M604 528 l-14 -87 l-126 0 l0 -441 l-112 0 l0 226 l-168 0 l0 -226 l-112 0 l0 528 l112 0 l0 -215 l168 0 l0 215 l252 0 Z" /><glyph glyph-name="uni0525" unicode="&#x525;" d="M503 87 l78 0 l0 -244 l-89 0 l-16 157 l-84 0 l0 441 l-200 0 l0 -441 l-111 0 l0 528 l422 0 l0 -441 Z" /><glyph glyph-name="uni04A7" unicode="&#x4a7;" d="M469 348 q58 0 94 -39.5 q36 -39.5 36 -105.5 l0 -254 q0 -80 -42.5 -123 q-42.5 -43 -115.5 -43 q-67 0 -120 40 l42 65 q19 -11 34 -16 q15 -5 37 -5 q60 0 60 69 l0 263 q0 32 -14 49 q-14 17 -41 17 q-41 0 -73 -29 l0 -236 l-106 0 l0 443 l-130 0 l0 -443 l-106 0 l0 528 l342 0 l0 -217 q42 37 103 37 Z" /><glyph glyph-name="uni04A9" unicode="&#x4a9;" d="M560 216 q0 -56 -29.5 -107.5 q-29.5 -51.5 -82.5 -83.5 q25 -34 84 -107 l-60 -48 q-58 69 -101 125 q-35 -8 -70 -8 q-116 0 -182.5 73 q-66.5 73 -66.5 200 q0 83 29.5 147 q29.5 64 85 99.5 q55.5 35.5 129.5 35.5 q70 0 126 -31 l-41 -79 q-37 20 -80 20 q-61 0 -95.5 -47.5 q-34.5 -47.5 -34.5 -143.5 q0 -96 35 -140 q35 -44 101 -44 l8 0 q-46 75 -46 139 q0 63 39.5 104 q39.5 41 106.5 41 q65 0 105 -39 q40 -39 40 -106 ZM362 216 q0 -54 37 -119 q33 18 49.5 49.5 q16.5 31.5 16.5 73.5 q0 32 -13 49 q-13 17 -37 17 q-26 0 -39.5 -18.5 q-13.5 -18.5 -13.5 -51.5 Z" /><glyph glyph-name="uni04AB" unicode="&#x4ab;" d="M525 52 q-27 -23 -63.5 -39 q-36.5 -16 -77.5 -23 q78 -48 78 -121 q0 -52 -36.5 -83.5 q-36.5 -31.5 -99.5 -31.5 q-55 0 -100 25 l26 61 q34 -16 67 -16 q28 0 42 14 q14 14 14 39 q0 64 -73 112 q-104 12 -161.5 84.5 q-57.5 72.5 -57.5 187.5 q0 81 31 144.5 q31 63.5 89.5 100 q58.5 36.5 138.5 36.5 q105 0 183 -64 l-52 -70 q-64 44 -129 44 q-66 0 -104 -47.5 q-38 -47.5 -38 -143.5 q0 -94 38 -138 q38 -44 104 -44 q63 0 130 45 l51 -72 Z" /><glyph glyph-name="uni04AD" unicode="&#x4ad;" d="M536 441 l-180 0 l0 -354 l77 0 l0 -244 l-89 0 l-16 157 l-84 0 l0 441 l-187 0 l0 87 l492 0 l-13 -87 Z" /><glyph glyph-name="uni04AF" unicode="&#x4af;" d="M245 -216 l0 228 l-200 516 l120 0 l137 -416 l138 416 l115 0 l-200 -516 l0 -215 l-110 -13 Z" /><glyph glyph-name="uni04B1" unicode="&#x4b1;" d="M555 528 l-177 -456 l78 0 l0 -76 l-101 0 l0 -199 l-110 -13 l0 212 l-101 0 l0 76 l78 0 l-177 456 l120 0 l137 -416 l138 416 l115 0 Z" /><glyph glyph-name="uni04B3" unicode="&#x4b3;" d="M426 0 l-130 216 l-77 -129 l133 0 l0 -244 l-89 0 l-16 157 l-37 0 l-5 63 l-38 -63 l-124 0 l190 278 l-169 250 l129 0 l108 -186 l108 186 l123 0 l-165 -245 l190 -283 l-131 0 Z" /><glyph glyph-name="uni04B5" unicode="&#x4b5;" d="M499 87 l60 0 l0 -244 l-86 0 l-17 157 l-346 0 l0 448 l-110 0 l0 80 l333 0 l-15 -80 l-99 0 l0 -360 l171 0 l0 440 l109 0 l0 -441 Z" /><glyph glyph-name="uni04B7" unicode="&#x4b7;" d="M570 87 l0 -244 l-89 0 l-16 157 l-84 0 l0 213 q-30 -26 -71.5 -40.5 q-41.5 -14.5 -88.5 -14.5 q-78 0 -119 42 q-41 42 -41 117 l0 211 l112 0 l0 -198 q0 -46 20.5 -66.5 q20.5 -20.5 62.5 -20.5 q34 0 69 14 q35 14 56 37 l0 234 l112 0 l0 -441 l77 0 Z" /><glyph glyph-name="uni04B9" unicode="&#x4b9;" d="M503 528 l0 -528 l-112 0 l0 213 q-33 -28 -83 -44 l0 -82 l-56 0 l0 72 q-7 -1 -21 -1 q-78 0 -119 42 q-41 42 -41 117 l0 211 l112 0 l0 -198 q0 -42 17 -62.5 q17 -20.5 52 -23.5 l0 149 l56 0 l0 -145 q24 6 46 18 q22 12 37 28 l0 234 l112 0 Z" /><glyph glyph-name="uni04BB" unicode="&#x4bb;" d="M356 484 q72 0 113.5 -43 q41.5 -43 41.5 -120 l0 -321 l-112 0 l0 309 q0 48 -19 68.5 q-19 20.5 -56 20.5 q-37 0 -66.5 -19.5 q-29.5 -19.5 -55.5 -56.5 l0 -322 l-112 0 l0 739 l112 12 l0 -343 q28 36 67.5 56 q39.5 20 86.5 20 Z" /><glyph glyph-name="uni0527" unicode="&#x527;" d="M582 87 l0 -244 l-89 0 l-16 157 l-84 0 l0 309 q0 48 -19 68.5 q-19 20.5 -56 20.5 q-37 0 -66.5 -19.5 q-29.5 -19.5 -55.5 -56.5 l0 -322 l-112 0 l0 739 l112 12 l0 -343 q28 36 67.5 56 q39.5 20 86.5 20 q72 0 113.5 -43 q41.5 -43 41.5 -120 l0 -234 l77 0 Z" /><glyph glyph-name="uni04BD" unicode="&#x4bd;" d="M563 278 q0 -30 -3 -50 l-308 0 q2 -78 36.5 -117 q34.5 -39 90.5 -39 q35 0 60 9.5 q25 9.5 54 28.5 l49 -63 q-32 -27 -74.5 -43.5 q-42.5 -16.5 -90.5 -16.5 q-104 0 -163.5 64.5 q-59.5 64.5 -67.5 176.5 q-67 1 -102 33.5 q-35 32.5 -35 88.5 q0 28 9 50.5 q9 22.5 26 48.5 l65 -29 q-10 -24 -14 -37 q-4 -13 -4 -30 q0 -23 12.5 -36 q12.5 -13 37.5 -13 l6 0 q9 105 66 171.5 q57 66.5 147 66.5 q97 0 150 -70 q53 -70 53 -194 ZM459 304 q-3 157 -99 157 q-48 0 -76 -39 q-28 -39 -32 -118 l207 0 Z" /><glyph glyph-name="uni04BF" unicode="&#x4bf;" d="M563 278 q0 -30 -3 -50 l-308 0 q2 -78 36.5 -117 q34.5 -39 90.5 -39 q35 0 60 9.5 q25 9.5 54 28.5 l49 -63 q-39 -32 -84 -47 q-69 -28 -94.5 -54.5 q-25.5 -26.5 -25.5 -58.5 q0 -48 56 -48 q28 0 59 7 l-10 -77 q-33 -7 -62 -7 q-59 0 -96 29.5 q-37 29.5 -37 77.5 q0 39 20 68.5 q20 29.5 59 53.5 q-81 15 -127 77.5 q-46 62.5 -54 159.5 q-67 1 -102 33.5 q-35 32.5 -35 88.5 q0 28 9 50.5 q9 22.5 26 48.5 l65 -29 q-10 -24 -14 -37 q-4 -13 -4 -30 q0 -23 12.5 -36 q12.5 -13 37.5 -13 l6 0 q9 105 66 171.5 q57 66.5 147 66.5 q97 0 150 -70 q53 -70 53 -194 ZM459 304 q-3 157 -99 157 q-48 0 -76 -39 q-28 -39 -32 -118 l207 0 Z" /><glyph glyph-name="uni04C4" unicode="&#x4c4;" d="M375 301 q65 -8 99.5 -49 q34.5 -41 34.5 -112 l0 -188 q0 -82 -43.5 -125.5 q-43.5 -43.5 -120.5 -43.5 q-68 0 -121 40 l43 67 q22 -11 35.5 -15.5 q13.5 -4.5 34.5 -4.5 q60 0 60 72 l0 194 q0 48 -20.5 67.5 q-20.5 19.5 -68.5 19.5 l-103 0 l0 -223 l-112 0 l0 528 l112 0 l0 -223 l66 0 l132 223 l113 0 l-141 -227 Z" /><glyph glyph-name="uni04C6" unicode="&#x4c6;" d="M570 94 l-79 -251 l-91 0 l37 157 l-65 0 l0 441 l-135 0 l-9 -111 q-8 -120 -23.5 -183.5 q-15.5 -63.5 -44 -97.5 q-28.5 -34 -84.5 -63 l-47 71 q28 19 44.5 42 q16.5 23 28.5 75 q12 52 19 151 l16 203 l347 0 l0 -434 l86 0 Z" /><glyph glyph-name="uni04C8" unicode="&#x4c8;" d="M511 528 l0 -576 q0 -82 -43.5 -125.5 q-43.5 -43.5 -120.5 -43.5 q-68 0 -121 40 l43 67 q22 -11 35.5 -15.5 q13.5 -4.5 34.5 -4.5 q60 0 60 72 l0 284 l-198 0 l0 -226 l-112 0 l0 528 l112 0 l0 -215 l198 0 l0 215 l112 0 Z" /><glyph glyph-name="uni04CA" unicode="&#x4ca;" d="M488 94 l85 0 l-79 -251 l-91 0 l37 157 l-64 0 l0 226 l-176 0 l0 -226 l-112 0 l0 528 l112 0 l0 -215 l176 0 l0 215 l112 0 l0 -434 Z" /><glyph glyph-name="uni04CC" unicode="&#x4cc;" d="M503 528 l0 -528 l-80 0 l-16 -157 l-89 0 l0 244 l73 0 l0 142 q-29 -25 -71 -40 q-42 -15 -89 -15 q-78 0 -119 41.5 q-41 41.5 -41 116.5 l0 196 l112 0 l0 -182 q0 -46 20.5 -66.5 q20.5 -20.5 62.5 -20.5 q34 0 69 14 q35 14 56 37 l0 218 l112 0 Z" /><glyph glyph-name="uni04CE" unicode="&#x4ce;" d="M604 94 l-79 -251 l-83 0 l36 157 l-52 0 l-15 228 q-5 85 -5 165 l0 41 l-74 -347 l-95 0 l-83 347 q1 -26 1 -76 q0 -69 -3 -131 l-11 -227 l-101 0 l37 528 l133 0 l76 -347 l67 347 l137 0 l31 -434 l83 0 Z" /><glyph glyph-name="uni04D9" unicode="&#x4d9;" d="M292 542 q124 0 185 -73.5 q61 -73.5 61 -203.5 q0 -127 -64.5 -202.5 q-64.5 -75.5 -178.5 -75.5 q-108 0 -171 69.5 q-63 69.5 -63 193.5 q0 28 3 50 l359 0 q-4 80 -37.5 118 q-33.5 38 -96.5 38 q-41 0 -74.5 -11 q-33.5 -11 -65.5 -37 l-50 69 q81 65 193 65 ZM295 71 q62 0 93.5 36 q31.5 36 35.5 117 l-255 0 l0 -7 q1 -70 33.5 -108 q32.5 -38 92.5 -38 Z" /><glyph glyph-name="uni04E1" unicode="&#x4e1;" d="M297 209 q105 0 167.5 -51 q62.5 -51 62.5 -148 q0 -66 -31.5 -117.5 q-31.5 -51.5 -88.5 -80 q-57 -28.5 -131 -28.5 q-77 0 -129.5 22.5 q-52.5 22.5 -94.5 66.5 l60 61 q36 -32 72.5 -47 q36.5 -15 87.5 -15 q64 0 100.5 35.5 q36.5 35.5 36.5 101.5 q0 64 -37.5 93 q-37.5 29 -109.5 29 l-94 0 l0 76 l207 233 l-291 0 l0 88 l417 0 l0 -81 l-214 -238 l10 0 Z" /><glyph glyph-name="uni04E9" unicode="&#x4e9;" d="M301 542 q114 0 176 -74.5 q62 -74.5 62 -202.5 q0 -128 -63 -203 q-63 -75 -176 -75 q-114 0 -176.5 73.5 q-62.5 73.5 -62.5 203.5 q0 126 63.5 202 q63.5 76 176.5 76 ZM301 456 q-114 0 -123 -150 l244 0 q-11 150 -121 150 ZM178 230 q6 -82 36 -119.5 q30 -37.5 86 -37.5 q56 0 86 37.5 q30 37.5 36 119.5 l-244 0 Z" /><glyph glyph-name="uni04F7" unicode="&#x4f7;" d="M517 438 l-261 0 l0 -351 l77 0 l0 -244 l-89 0 l-16 157 l-84 0 l0 528 l386 0 l-13 -90 Z" /><glyph glyph-name="uni04FB" unicode="&#x4fb;" d="M285 438 l0 -132 l122 0 l0 -79 l-122 0 l0 -140 l75 0 l0 -135 q0 -82 -43.5 -125.5 q-43.5 -43.5 -120.5 -43.5 q-68 0 -121 40 l43 67 q21 -11 35 -15.5 q14 -4.5 35 -4.5 q60 0 60 72 l0 58 l-75 0 l0 227 l-87 0 l0 79 l87 0 l0 222 l386 0 l-13 -90 l-261 0 Z" /><glyph glyph-name="uni04FD" unicode="&#x4fd;" d="M563 87 l0 -135 q0 -82 -43.5 -125.5 q-43.5 -43.5 -120.5 -43.5 q-68 0 -121 40 l43 67 q22 -11 35.5 -15.5 q13.5 -4.5 34.5 -4.5 q60 0 60 72 l0 58 l-35 0 l-130 216 l-129 -216 l-124 0 l190 278 l-169 250 l129 0 l108 -186 l108 186 l123 0 l-165 -245 l132 -196 l74 0 Z" /><glyph glyph-name="uni04FF" unicode="&#x4ff;" d="M390 248 l167 -248 l-131 0 l-127 226 l-132 -226 l-124 0 l169 248 l-145 0 l0 71 l138 0 l-141 209 l128 0 l107 -197 l110 197 l123 0 l-141 -209 l141 0 l0 -71 l-142 0 Z" /><glyph glyph-name="uni0503" unicode="&#x503;" d="M589 378 q6 -58 6 -124 q0 -137 -47.5 -203 q-47.5 -66 -129.5 -66 q-44 0 -78.5 21.5 q-34.5 21.5 -54.5 64.5 q-24 -44 -52 -64 q-28 -20 -63 -20 q-78 0 -121 74 q-43 74 -43 202 q0 80 21 143.5 q21 63.5 59 99.5 q38 36 86 36 q56 0 93 -47 l0 257 l104 -12 l0 -586 q0 -42 14 -63.5 q14 -21.5 38 -21.5 q33 0 50.5 42 q17.5 42 17.5 141 q0 56 -5 126 l105 0 ZM185 70 q22 0 41.5 17 q19.5 17 38.5 55 l0 267 q-16 25 -33 37.5 q-17 12.5 -38 12.5 q-37 0 -57.5 -48 q-20.5 -48 -20.5 -147 q0 -194 69 -194 Z" /><glyph glyph-name="uni0505" unicode="&#x505;" d="M573 378 q6 -58 6 -124 q0 -136 -52.5 -202.5 q-52.5 -66.5 -142.5 -66.5 q-66 0 -111.5 31.5 q-45.5 31.5 -84.5 101.5 l-41 75 l-99 0 l0 83 l88 0 q52 0 78 20.5 q26 20.5 26 65.5 q0 43 -28 63.5 q-28 20.5 -84 20.5 l-120 0 l0 82 l120 0 q112 0 170 -42.5 q58 -42.5 58 -122.5 q0 -54 -27 -89.5 q-27 -35.5 -80 -56.5 l44 -80 q21 -37 43 -51.5 q22 -14.5 49 -14.5 q40 0 61.5 42 q21.5 42 21.5 139 q0 56 -5 126 l110 0 Z" /><glyph glyph-name="uni0507" unicode="&#x507;" d="M536 87 l0 -244 l-89 0 l-16 157 l-45 0 l-119 192 l-151 0 l0 84 l135 0 q51 0 77 20.5 q26 20.5 26 65.5 q0 44 -28 64 q-28 20 -84 20 l-167 0 l0 82 l168 0 q111 0 169 -42.5 q58 -42.5 58 -122.5 q0 -52 -25 -87.5 q-25 -35.5 -77 -58.5 l86 -130 l82 0 Z" /><glyph glyph-name="uni0509" unicode="&#x509;" d="M586 378 q6 -58 6 -124 q0 -135 -48.5 -202 q-48.5 -67 -128.5 -67 q-66 0 -109 43.5 q-43 43.5 -43 125.5 l0 288 l-83 0 l-10 -130 q-8 -112 -23 -173 q-15 -61 -38 -92.5 q-23 -31.5 -65 -60.5 l-47 67 q20 18 32.5 41.5 q12.5 23.5 22 74.5 q9.5 51 16.5 142 l17 217 l283 0 l0 -391 q0 -30 12.5 -49 q12.5 -19 35.5 -19 q70 0 70 183 q0 56 -5 126 l105 0 Z" /><glyph glyph-name="uni050B" unicode="&#x50b;" d="M589 378 q6 -58 6 -124 q0 -135 -49 -202 q-49 -67 -129 -67 q-66 0 -109 43.5 q-43 43.5 -43 125.5 l0 72 l-123 0 l0 -226 l-105 0 l0 528 l105 0 l0 -217 l123 0 l0 217 l104 0 l0 -391 q0 -31 12.5 -49.5 q12.5 -18.5 36.5 -18.5 q71 0 71 183 q0 56 -5 126 l105 0 Z" /><glyph glyph-name="uni050D" unicode="&#x50d;" d="M319 542 q58 0 100.5 -16.5 q42.5 -16.5 84.5 -49.5 l-57 -68 q-32 24 -61 35 q-29 11 -63 11 q-62 0 -101 -48 q-39 -48 -39 -142 q0 -100 31.5 -145.5 q31.5 -45.5 92.5 -45.5 q51 0 94 19 l0 128 l-83 0 l-12 81 l203 0 l0 -259 q-95 -55 -203 -55 q-114 0 -177.5 70.5 q-63.5 70.5 -63.5 206.5 q0 85 34.5 148 q34.5 63 93 96.5 q58.5 33.5 126.5 33.5 Z" /><glyph glyph-name="uni050F" unicode="&#x50f;" d="M546 367 q5 -63 5 -129 q0 -83 -29.5 -140 q-29.5 -57 -78.5 -85 q-49 -28 -108 -28 q-80 0 -129.5 48 q-49.5 48 -49.5 133 l0 275 l-154 0 l0 87 l431 0 l-13 -87 l-152 0 l0 -282 q0 -44 18.5 -66 q18.5 -22 51.5 -22 q44 0 73 40 q29 40 29 128 q0 61 -5 128 l111 0 Z" /><glyph glyph-name="uni0511" unicode="&#x511;" d="M418 234 l-104 0 q-59 0 -89.5 -19 q-30.5 -19 -30.5 -57 q0 -40 33.5 -63 q33.5 -23 97.5 -23 q53 0 96.5 13.5 q43.5 13.5 84.5 40.5 l51 -67 q-93 -72 -233 -72 q-111 0 -179.5 43.5 q-68.5 43.5 -68.5 124.5 q0 57 41.5 90 q41.5 33 101.5 36 q-115 28 -115 114 q0 44 29 77.5 q29 33.5 79 51.5 q50 18 113 18 q60 0 115.5 -16.5 q55.5 -16.5 97.5 -47.5 l-50 -63 q-35 21 -76 32 q-41 11 -81 11 q-112 0 -112 -71 q0 -33 27.5 -52.5 q27.5 -19.5 75.5 -19.5 l103 0 l-7 -81 Z" /><glyph glyph-name="uni0513" unicode="&#x513;" d="M517 0 l-1 0 l0 -48 q0 -82 -43.5 -125.5 q-43.5 -43.5 -120.5 -43.5 q-68 0 -121 40 l43 67 q21 -11 35 -15.5 q14 -4.5 35 -4.5 q60 0 60 72 l0 59 l1 0 l0 440 l-166 0 l-8 -111 q-9 -120 -24.5 -183.5 q-15.5 -63.5 -44 -97.5 q-28.5 -34 -83.5 -63 l-48 71 q29 18 45.5 41.5 q16.5 23.5 28 75.5 q11.5 52 19.5 151 l15 203 l378 0 l0 -528 Z" /><glyph glyph-name="uni0515" unicode="&#x515;" d="M602 0 l-107 0 l-92 216 l-90 -216 l-102 0 l134 278 l-79 167 l-73 0 l-10 -133 q-9 -112 -23.5 -173 q-14.5 -61 -37.5 -92.5 q-23 -31.5 -65 -60.5 l-47 67 q20 18 32.5 41.5 q12.5 23.5 22 74.5 q9.5 51 16.5 142 l17 217 l235 0 l75 -186 l76 186 l100 0 l-116 -245 l134 -283 Z" /><glyph glyph-name="uni0517" unicode="&#x517;" d="M488 0 l-97 220 q-5 -71 -26.5 -123.5 q-21.5 -52.5 -55 -81 q-33.5 -28.5 -73.5 -28.5 q-33 0 -56 12.5 q-23 12.5 -43 39.5 l0 -243 l-104 -12 l0 744 l89 0 l7 -58 q25 36 53 54 q28 18 66 18 q131 0 144 -231 l90 217 l106 0 l-118 -257 l129 -271 l-111 0 ZM213 72 q35 0 56 46 q21 46 21 146 q0 107 -15.5 150 q-15.5 43 -51.5 43 q-45 0 -86 -61 l0 -270 q37 -54 76 -54 Z" /><glyph glyph-name="uni0519" unicode="&#x519;" d="M596 278 q0 -30 -3 -50 l-256 0 q2 -81 28 -119.5 q26 -38.5 70 -38.5 q32 0 54.5 9 q22.5 9 54.5 32 l48 -60 q-31 -28 -72.5 -46 q-41.5 -18 -90.5 -18 q-79 0 -129 56.5 q-50 56.5 -64 153.5 l-39 0 l-89 -197 l-104 0 l102 218 q-92 42 -92 142 q0 49 24.5 87 q24.5 38 70.5 59.5 q46 21.5 109 21.5 l136 0 q33 14 68 14 q84 0 129 -70 q45 -70 45 -194 ZM498 303 q-2 80 -20.5 119.5 q-18.5 39.5 -55.5 39.5 q-38 0 -59.5 -38.5 q-21.5 -38.5 -26.5 -120.5 l162 0 ZM116 360 q0 -43 24.5 -65 q24.5 -22 71.5 -22 l20 0 q2 108 44 182 l-58 0 q-49 0 -75.5 -24 q-26.5 -24 -26.5 -71 Z" /><glyph glyph-name="uni051F" unicode="&#x51f;" d="M386 284 l189 -284 l-127 0 l-153 237 l-91 0 l0 -237 l-112 0 l0 528 l112 0 l0 -209 l93 0 l46 69 l-83 48 l36 62 l86 -50 l53 80 l117 0 l-87 -127 l82 -47 l-36 -62 l-86 49 l-39 -57 Z" /><glyph glyph-name="uni0521" unicode="&#x521;" d="M469 348 q58 0 94.5 -39.5 q36.5 -39.5 36.5 -105.5 l0 -254 q0 -79 -43 -122.5 q-43 -43.5 -115 -43.5 q-68 0 -121 40 l42 65 q20 -11 34.5 -16 q14.5 -5 36.5 -5 q61 0 61 69 l0 263 q0 32 -14.5 49 q-14.5 17 -41.5 17 q-40 0 -73 -30 l0 -235 l-106 0 l0 442 l-92 0 l-10 -130 q-8 -112 -22.5 -173 q-14.5 -61 -37.5 -92.5 q-23 -31.5 -65 -60.5 l-48 67 q20 18 32.5 41.5 q12.5 23.5 22.5 74.5 q10 51 17 142 l16 217 l293 0 l0 -217 q42 37 103 37 Z" /><glyph glyph-name="uni0523" unicode="&#x523;" d="M469 348 q58 0 94 -39.5 q36 -39.5 36 -105.5 l0 -254 q0 -80 -42.5 -123 q-42.5 -43 -115.5 -43 q-67 0 -120 40 l42 65 q19 -11 34 -16 q15 -5 37 -5 q60 0 60 69 l0 263 q0 32 -14 49 q-14 17 -41 17 q-41 0 -73 -29 l0 -236 l-104 0 l0 226 l-133 0 l0 -226 l-105 0 l0 528 l105 0 l0 -217 l133 0 l0 217 l104 0 l0 -217 q42 37 103 37 Z" /><glyph glyph-name="uni048D" unicode="&#x48d;" d="M315 342 q110 0 168 -43.5 q58 -43.5 58 -123.5 q0 -89 -64.5 -132 q-64.5 -43 -179.5 -43 l-163 0 l0 401 l-77 0 l0 73 l77 0 l0 54 l112 0 l0 -54 l143 0 l-11 -73 l-132 0 l0 -59 l69 0 ZM305 83 q56 0 87 21 q31 21 31 72 q0 85 -108 85 l-69 0 l0 -178 l59 0 Z" /><glyph glyph-name="uni048F" unicode="&#x48f;" d="M533 265 q0 -80 -23 -143 q-23 -63 -67 -98 l71 -116 l-79 0 l-53 86 q-22 -7 -53 -7 q-83 0 -134 58 l0 -248 l-112 -13 l0 744 l97 0 l7 -68 q31 40 70 61 q39 21 84 21 q192 0 192 -277 ZM302 74 q12 0 30 2 l-87 143 l79 0 l66 -108 q28 41 28 153 q0 101 -26.5 146.5 q-26.5 45.5 -81.5 45.5 q-35 0 -64 -21 q-29 -21 -51 -55 l0 -247 q39 -59 107 -59 Z" /><glyph glyph-name="uni052D" unicode="&#x52d;" d="M565 84 l0 -241 l-86 0 l-16 157 l-301 0 l-16 -157 l-86 0 l0 241 l42 0 q28 23 47.5 58 q19.5 35 31.5 105 q-71 12 -105.5 58 q-34.5 46 -34.5 120 l0 103 l98 0 l0 -102 q0 -42 12.5 -65.5 q12.5 -23.5 39.5 -32.5 l1 12 l14 188 l300 0 l0 -444 l59 0 ZM292 350 l-2 -29 l114 0 l0 129 l-105 0 l-7 -100 ZM404 242 l-125 0 q-12 -64 -32.5 -100.5 q-20.5 -36.5 -47.5 -57.5 l205 0 l0 158 Z" /><glyph glyph-name="uni052B" unicode="&#x52b;" d="M612 0 l-90 0 l-79 240 l-24 0 l0 -240 l-63 0 l0 -157 l-72 0 l-13 157 l-198 0 l-13 -157 l-72 0 l0 238 l25 0 q15 18 23.5 41.5 q8.5 23.5 16 73.5 q7.5 50 13.5 144 l13 188 l211 0 l0 -212 l47 0 l0 212 l82 0 l0 -212 l25 0 l72 212 l83 0 l-86 -244 l99 -284 ZM207 453 l-47 0 l-6 -103 q-5 -93 -11.5 -142 q-6.5 -49 -18 -76.5 q-11.5 -27.5 -33.5 -50.5 l116 0 l0 372 ZM337 240 l-47 0 l0 -159 l47 0 l0 159 Z" /><glyph glyph-name="uni052F" unicode="&#x52f;" d="M571 87 l0 -244 l-89 0 l-16 157 l-85 0 l0 441 l-145 0 l-9 -111 q-8 -120 -23.5 -183.5 q-15.5 -63.5 -44 -97.5 q-28.5 -34 -84.5 -63 l-47 71 q28 19 44.5 42 q16.5 23 28.5 75 q12 52 19 151 l16 203 l357 0 l0 -441 l78 0 Z" /><glyph glyph-name="uni0529" unicode="&#x529;" d="M511 528 l0 -528 l-112 0 l0 226 l-198 0 l0 -275 q0 -82 -43.5 -125.5 q-43.5 -43.5 -120.5 -43.5 q-68 0 -121 40 l43 67 q22 -11 35.5 -15.5 q13.5 -4.5 34.5 -4.5 q60 0 60 72 l0 587 l112 0 l0 -215 l198 0 l0 215 l112 0 Z" /><glyph glyph-name="Alpha" unicode="&#x391;" d="M421 166 l-246 0 l-48 -166 l-119 0 l220 690 l144 0 l220 -690 l-123 0 l-48 166 ZM199 256 l198 0 l-99 344 l-99 -344 Z" /><glyph glyph-name="uni0394" unicode="&#x394;" d="M372 690 l220 -690 l-584 0 l220 690 l144 0 ZM298 599 l-145 -504 l289 0 l-144 504 Z" /><glyph glyph-name="Epsilon" unicode="&#x395;" d="M229 602 l0 -208 l250 0 l0 -87 l-250 0 l0 -219 l305 0 l0 -88 l-421 0 l0 690 l415 0 l-13 -88 l-286 0 Z" /><glyph glyph-name="Eta" unicode="&#x397;" d="M413 0 l0 314 l-226 0 l0 -314 l-116 0 l0 690 l116 0 l0 -281 l226 0 l0 281 l116 0 l0 -690 l-116 0 Z" /><glyph glyph-name="Theta" unicode="&#x398;" d="M562 345 q0 -164 -67.5 -261 q-67.5 -97 -194.5 -97 q-127 0 -194.5 95.5 q-67.5 95.5 -67.5 261.5 q0 164 67.5 262 q67.5 98 194.5 98 q127 0 194.5 -96.5 q67.5 -96.5 67.5 -262.5 ZM444 345 q0 136 -34.5 202 q-34.5 66 -109.5 66 q-75 0 -109.5 -66 q-34.5 -66 -34.5 -203 q0 -135 35 -201 q35 -66 109 -66 q75 0 109.5 66 q34.5 66 34.5 202 ZM392 313 l-185 0 l0 79 l185 0 l0 -79 Z" /><glyph glyph-name="Iota" unicode="&#x399;" d="M508 690 l0 -88 l-150 0 l0 -513 l150 0 l0 -89 l-416 0 l0 89 l150 0 l0 513 l-150 0 l0 88 l416 0 Z" /><glyph glyph-name="Lambda" unicode="&#x39b;" d="M372 690 l215 -690 l-123 0 l-166 594 l-166 -594 l-120 0 l216 690 l144 0 Z" /><glyph glyph-name="Xi" unicode="&#x39e;" d="M526 690 l-15 -98 l-443 0 l0 98 l458 0 ZM472 398 l0 -96 l-351 0 l0 96 l351 0 ZM532 101 l0 -101 l-464 0 l0 101 l464 0 Z" /><glyph glyph-name="Omicron" unicode="&#x39f;" d="M562 345 q0 -164 -67.5 -261 q-67.5 -97 -194.5 -97 q-127 0 -194.5 95.5 q-67.5 95.5 -67.5 261.5 q0 164 67.5 262 q67.5 98 194.5 98 q127 0 194.5 -96.5 q67.5 -96.5 67.5 -262.5 ZM443 345 q0 136 -34 202 q-34 66 -109 66 q-75 0 -109 -66 q-34 -66 -34 -203 q0 -135 34.5 -201 q34.5 -66 108.5 -66 q75 0 109 66 q34 66 34 202 Z" /><glyph glyph-name="Rho" unicode="&#x3a1;" d="M564 473 q0 -116 -72 -171.5 q-72 -55.5 -197 -55.5 l-84 0 l0 -246 l-115 0 l0 690 l191 0 q133 0 205 -54.5 q72 -54.5 72 -162.5 ZM443 473 q0 130 -148 130 l-84 0 l0 -269 l85 0 q70 0 108.5 32 q38.5 32 38.5 107 Z" /><glyph glyph-name="Sigma" unicode="&#x3a3;" d="M411 314 l-214 -223 l337 0 l0 -91 l-468 0 l0 90 l239 253 l-239 256 l0 91 l468 0 l0 -90 l-337 0 l214 -223 l0 -63 Z" /><glyph glyph-name="Upsilon" unicode="&#x3a5;" d="M358 264 l0 -264 l-116 0 l0 263 l-231 427 l128 0 l163 -327 l165 327 l122 0 l-231 -426 Z" /><glyph glyph-name="Phi" unicode="&#x3a6;" d="M348 611 q123 -5 183.5 -70 q60.5 -65 60.5 -193 q0 -129 -62 -196 q-62 -67 -182 -71 l0 -81 l-96 0 l0 81 q-121 4 -182.5 70.5 q-61.5 66.5 -61.5 196.5 q0 128 60 193 q60 65 184 70 l0 79 l96 0 l0 -79 ZM257 538 q-74 -2 -106.5 -45.5 q-32.5 -43.5 -32.5 -144.5 q0 -98 32 -143.5 q32 -45.5 107 -49.5 l0 383 ZM343 155 q75 4 107 49.5 q32 45.5 32 143.5 q0 101 -33 145 q-33 44 -106 45 l0 -383 Z" /><glyph glyph-name="Psi" unicode="&#x3a8;" d="M245 189 q-117 12 -175 74.5 q-58 62.5 -58 163.5 l0 263 l108 0 l0 -261 q0 -72 28.5 -109 q28.5 -37 101.5 -46 l0 416 l101 0 l0 -415 q71 9 100 46 q29 37 29 108 l0 261 l108 0 l0 -263 q0 -100 -58.5 -162.5 q-58.5 -62.5 -174.5 -74.5 l0 -190 l-110 0 l0 189 Z" /><glyph glyph-name="uni03A9" unicode="&#x3a9;" d="M300 613 q-72 0 -107.5 -60.5 q-35.5 -60.5 -35.5 -192.5 q0 -115 27.5 -181 q27.5 -66 84.5 -95 l0 -84 l-220 0 l0 88 l118 0 q-129 66 -129 272 q0 105 31.5 183 q31.5 78 90.5 119.5 q59 41.5 140 41.5 q81 0 140 -41.5 q59 -41.5 90.5 -119.5 q31.5 -78 31.5 -183 q0 -103 -32.5 -170 q-32.5 -67 -97.5 -102 l119 0 l0 -88 l-219 0 l0 84 q56 29 83.5 95 q27.5 66 27.5 181 q0 131 -35.5 192 q-35.5 61 -107.5 61 Z" /><glyph glyph-name="uni0370" unicode="&#x370;" d="M493 314 l-270 0 l0 -314 l-116 0 l0 690 l116 0 l0 -281 l270 0 l0 -95 Z" /><glyph glyph-name="uni0372" unicode="&#x372;" d="M29 690 l543 0 l0 -275 l-93 0 l0 181 l-121 0 l0 -596 l-116 0 l0 596 l-120 0 l0 -182 l-93 0 l0 276 Z" /><glyph glyph-name="uni03D8" unicode="&#x3d8;" d="M562 345 q0 -145 -53 -238 q-53 -93 -153 -114 l0 -197 l-112 0 l0 196 q-101 21 -153.5 113.5 q-52.5 92.5 -52.5 238.5 q0 164 67.5 262 q67.5 98 194.5 98 q127 0 194.5 -96.5 q67.5 -96.5 67.5 -262.5 ZM300 77 q75 0 109 66 q34 66 34 202 q0 136 -34 202 q-34 66 -109 66 q-75 0 -109 -66 q-34 -66 -34 -203 q0 -135 34.5 -201 q34.5 -66 108.5 -66 Z" /><glyph glyph-name="uni03DA" unicode="&#x3da;" d="M320 -146 q46 22 68.5 43.5 q22.5 21.5 22.5 51.5 q0 19 -11.5 32.5 q-11.5 13.5 -39 27 q-27.5 13.5 -83.5 36.5 q-110 45 -162.5 116 q-52.5 71 -52.5 196 q0 94 36.5 169 q36.5 75 113 119.5 q76.5 44.5 191.5 44.5 l160 0 l-15 -95 l-140 0 q-113 0 -169 -63 q-56 -63 -56 -172 q0 -67 15.5 -109.5 q15.5 -42.5 52 -72 q36.5 -29.5 104.5 -56.5 q92 -37 132.5 -72 q40.5 -35 40.5 -93 q0 -56 -38.5 -96.5 q-38.5 -40.5 -124.5 -77.5 l-45 71 Z" /><glyph glyph-name="uni03DC" unicode="&#x3dc;" d="M227 594 l0 -206 l142 0 q37 0 61.5 -5.5 q24.5 -5.5 48.5 -18.5 l-29 -81 q-20 8 -40 11.5 q-20 3.5 -50 3.5 l-133 0 l0 -298 l-116 0 l0 690 l431 0 l-12 -96 l-303 0 Z" /><glyph glyph-name="uni03DE" unicode="&#x3de;" d="M519 396 l21 -96 l-1 0 l-222 -300 l-127 0 l223 300 l-332 0 l-20 96 l221 294 l127 0 l-220 -294 l330 0 Z" /><glyph glyph-name="uni03E0" unicode="&#x3e0;" d="M583 0 l-110 0 l-92 268 l-82 -268 l-90 2 l130 386 l-36 105 l-174 -493 l-112 0 l240 610 l-33 80 l99 0 l260 -690 Z" /><glyph glyph-name="uni03CF" unicode="&#x3cf;" d="M81 0 l0 690 l116 0 l0 -690 l-116 0 ZM577 92 l0 -140 q0 -83 -43.5 -126 q-43.5 -43 -122.5 -43 q-68 0 -121 40 l43 70 q20 -11 34.5 -16 q14.5 -5 35.5 -5 q58 0 58 72 l0 56 l-31 0 l-228 369 l219 321 l127 0 l-220 -314 l181 -284 l68 0 Z" /><glyph glyph-name="uni03D2" unicode="&#x3d2;" d="M576 611 q-16 4 -27 4 q-18 0 -31 -11.5 q-13 -11.5 -26 -40.5 l-137 -299 l0 -264 l-117 0 l0 263 l-210 427 l128 0 l143 -328 l95 226 q27 65 58 90.5 q31 25.5 86 25.5 q34 0 59 -11 l-21 -82 Z" /><glyph glyph-name="uni03F9" unicode="&#x3f9;" d="M358 704 q68 0 116 -17 q48 -17 92 -53 l-60 -72 q-63 51 -143 51 q-84 0 -137 -64.5 q-53 -64.5 -53 -202.5 q0 -136 52 -200.5 q52 -64.5 139 -64.5 q50 0 85.5 15.5 q35.5 15.5 70.5 43.5 l56 -71 q-84 -82 -216 -82 q-89 0 -159 41.5 q-70 41.5 -109.5 122.5 q-39.5 81 -39.5 195 q0 112 40.5 193 q40.5 81 110.5 123 q70 42 155 42 Z" /><glyph glyph-name="uni03FD" unicode="&#x3fd;" d="M252 704 q138 0 217 -93 q79 -93 79 -265 q0 -114 -39.5 -195 q-39.5 -81 -109.5 -122.5 q-70 -41.5 -159 -41.5 q-132 0 -216 82 l56 70 q36 -27 71 -42.5 q35 -15.5 85 -15.5 q87 0 139 64.5 q52 64.5 52 200.5 q0 141 -46 204 q-46 63 -136 63 q-84 0 -160 -51 l-51 72 q50 36 101 53 q51 17 117 17 Z" /><glyph glyph-name="uni03FE" unicode="&#x3fe;" d="M358 704 q68 0 116 -17 q48 -17 92 -53 l-60 -72 q-63 51 -143 51 q-84 0 -137 -64.5 q-53 -64.5 -53 -202.5 q0 -136 52 -200.5 q52 -64.5 139 -64.5 q50 0 85.5 15.5 q35.5 15.5 70.5 43.5 l56 -71 q-84 -82 -216 -82 q-89 0 -159 41.5 q-70 41.5 -109.5 122.5 q-39.5 81 -39.5 195 q0 112 40.5 193 q40.5 81 110.5 123 q70 42 155 42 ZM365 417 q33 0 53 -20 q20 -20 20 -50 q0 -30 -20 -49 q-20 -19 -53 -19 q-31 0 -51 19.5 q-20 19.5 -20 48.5 q0 30 20 50 q20 20 51 20 Z" /><glyph glyph-name="uni03FF" unicode="&#x3ff;" d="M252 704 q138 0 217 -93 q79 -93 79 -265 q0 -114 -39.5 -195 q-39.5 -81 -109.5 -122.5 q-70 -41.5 -159 -41.5 q-132 0 -216 82 l56 70 q36 -27 71 -42.5 q35 -15.5 85 -15.5 q87 0 139 64.5 q52 64.5 52 200.5 q0 141 -46 204 q-46 63 -136 63 q-84 0 -160 -51 l-51 72 q50 36 101 53 q51 17 117 17 ZM233 417 q33 0 53 -20 q20 -20 20 -50 q0 -30 -20 -49 q-20 -19 -53 -19 q-31 0 -51 19.5 q-20 19.5 -20 48.5 q0 30 20 50 q20 20 51 20 Z" /><glyph glyph-name="alpha" unicode="&#x3b1;" d="M252 542 q70 0 110 -37.5 q40 -37.5 53 -119.5 l26 143 l101 0 l-63 -268 l26 -128 q5 -25 16 -37.5 q11 -12.5 33 -19.5 l-38 -89 q-83 14 -98 95 l-10 55 q-44 -149 -164 -149 q-92 0 -143 70 q-51 70 -51 203 q0 126 53.5 204 q53.5 78 148.5 78 ZM264 456 q-47 0 -72.5 -50 q-25.5 -50 -25.5 -146 q0 -188 94 -188 q39 0 72 42 q33 42 53 153 q-18 105 -46.5 147 q-28.5 42 -74.5 42 Z" /><glyph glyph-name="beta" unicode="&#x3b2;" d="M356 405 q198 -22 198 -200 q0 -65 -29.5 -115 q-29.5 -50 -80 -77 q-50.5 -27 -112.5 -27 q-78 0 -143 48 l0 -235 l-112 -17 l0 761 q0 99 57.5 155 q57.5 56 154.5 56 q60 0 108.5 -23 q48.5 -23 76 -65 q27.5 -42 27.5 -96 q0 -71 -38.5 -112 q-38.5 -41 -106.5 -53 ZM310 73 q56 0 92.5 35 q36.5 35 36.5 101 q0 72 -40.5 109.5 q-40.5 37.5 -115.5 37.5 l-46 0 l10 83 l41 0 q46 0 74.5 30 q28.5 30 28.5 90 q0 55 -27 82.5 q-27 27.5 -74 27.5 q-101 0 -101 -123 l0 -433 q49 -40 121 -40 Z" /><glyph glyph-name="gamma" unicode="&#x3b3;" d="M568 515 l-215 -495 q-24 -56 -24 -121 q0 -42 11 -102 l-89 -12 q-27 54 -27 119 q0 57 21 113 q-37 152 -94.5 285 q-57.5 133 -118.5 199 l112 40 q49 -64 92 -175 q43 -111 67 -246 l152 421 l113 -26 Z" /><glyph glyph-name="delta" unicode="&#x3b4;" d="M318 753 q101 0 175 -61 l-54 -64 q-31 23 -59.5 32.5 q-28.5 9.5 -62.5 9.5 q-40 0 -62 -16 q-22 -16 -22 -44 q0 -21 9.5 -34.5 q9.5 -13.5 31.5 -25.5 q22 -12 68 -30 q73 -30 117 -65 q44 -35 66 -85.5 q22 -50.5 22 -124.5 q0 -72 -30 -131 q-30 -59 -85.5 -93 q-55.5 -34 -129.5 -34 q-75 0 -130 33.5 q-55 33.5 -84.5 91.5 q-29.5 58 -29.5 131 q0 83 42.5 143 q42.5 60 115.5 90 q-54 27 -76 58 q-22 31 -22 75 q0 67 54 105.5 q54 38.5 146 38.5 ZM288 443 q-60 -32 -86 -79.5 q-26 -47.5 -26 -118.5 q0 -82 33 -127 q33 -45 93 -45 q61 0 93.5 43.5 q32.5 43.5 32.5 128.5 q0 57 -12.5 91.5 q-12.5 34.5 -42 58.5 q-29.5 24 -85.5 48 Z" /><glyph glyph-name="epsilon" unicode="&#x3b5;" d="M308 234 q-60 0 -87 -18.5 q-27 -18.5 -27 -57.5 q0 -40 34 -63 q34 -23 96 -23 q98 0 178 52 l55 -69 q-44 -31 -105.5 -49.5 q-61.5 -18.5 -135.5 -18.5 q-107 0 -173.5 43 q-66.5 43 -66.5 121 q0 59 33.5 90.5 q33.5 31.5 101.5 40.5 q-57 13 -86 43.5 q-29 30.5 -29 74.5 q0 67 62 104.5 q62 37.5 158 37.5 q58 0 113.5 -13.5 q55.5 -13.5 96.5 -41.5 l-52 -64 q-60 35 -149 35 q-114 0 -114 -71 q0 -33 27 -52.5 q27 -19.5 77 -19.5 l99 0 l-12 -81 l-94 0 Z" /><glyph glyph-name="zeta" unicode="&#x3b6;" d="M543 669 q-113 -91 -181.5 -160.5 q-68.5 -69.5 -103 -130.5 q-34.5 -61 -34.5 -122 q0 -45 14 -72 q14 -27 44.5 -45 q30.5 -18 88.5 -38 q64 -22 97 -38.5 q33 -16.5 50.5 -40.5 q17.5 -24 17.5 -61 q0 -58 -40.5 -102.5 q-40.5 -44.5 -126.5 -82.5 l-43 74 q46 24 69 46 q23 22 23 53 q0 15 -8.5 25 q-8.5 10 -27.5 18.5 q-19 8.5 -60 22.5 q-79 29 -124.5 57 q-45.5 28 -69 70.5 q-23.5 42.5 -23.5 109.5 q0 102 78 199.5 q78 97.5 253 215.5 q-29 -13 -160 -13 l-133 0 l13 86 l374 0 l13 -71 Z" /><glyph glyph-name="eta" unicode="&#x3b7;" d="M366 542 q74 0 111 -40.5 q37 -40.5 37 -116.5 l0 -588 l-112 -13 l0 545 q0 49 -5.5 75.5 q-5.5 26.5 -22 39 q-16.5 12.5 -48.5 12.5 q-35 0 -67.5 -22.5 q-32.5 -22.5 -55.5 -55.5 l0 -378 l-112 0 l0 365 q0 72 -25 161 l104 15 q7 -13 14 -37.5 q7 -24.5 10 -46.5 q34 41 79.5 63 q45.5 22 92.5 22 Z" /><glyph glyph-name="theta" unicode="&#x3b8;" d="M301 753 q115 0 176.5 -99 q61.5 -99 61.5 -282 q0 -181 -62.5 -283 q-62.5 -102 -176.5 -102 q-115 0 -177 100.5 q-62 100.5 -62 283.5 q0 181 62.5 281.5 q62.5 100.5 177.5 100.5 ZM301 666 q-63 0 -93.5 -59.5 q-30.5 -59.5 -33.5 -196.5 l252 0 q-3 137 -33 196.5 q-30 59.5 -92 59.5 ZM174 333 q4 -139 34.5 -199.5 q30.5 -60.5 91.5 -60.5 q61 0 91 60.5 q30 60.5 34 199.5 l-251 0 Z" /><glyph glyph-name="iota" unicode="&#x3b9;" d="M53 440 l11 88 l273 0 l0 -384 q0 -67 80 -67 q41 0 84 18 l28 -78 q-22 -13 -59 -21.5 q-37 -8.5 -77 -8.5 q-77 0 -122.5 43 q-45.5 43 -45.5 118 l0 292 l-172 0 Z" /><glyph glyph-name="kappa" unicode="&#x3ba;" d="M540 489 l-201 -203 l133 -147 q27 -30 48 -43.5 q21 -13.5 49 -19.5 l-39 -90 q-45 6 -76.5 27 q-31.5 21 -66.5 64 l-173 204 l233 260 l93 -52 ZM182 528 q14 -40 21 -92.5 q7 -52.5 7 -106.5 l0 -329 l-112 0 l0 343 q0 95 -24 185 l108 0 Z" /><glyph glyph-name="lambda" unicode="&#x3bb;" d="M268 528 q-15 46 -34.5 74 q-19.5 28 -52 45 q-32.5 17 -86.5 25 l15 82 q87 -12 140 -41.5 q53 -29.5 85.5 -83.5 q32.5 -54 54.5 -146 q44 -184 84.5 -290.5 q40.5 -106.5 96.5 -167.5 l-113 -38 q-54 71 -92.5 181 q-38.5 110 -69.5 278 l-147 -460 l-109 25 l187 517 l41 0 Z" /><glyph glyph-name="nu" unicode="&#x3bd;" d="M224 0 q-36 167 -89 309 q-53 142 -109 194 l107 38 q51 -60 93 -178.5 q42 -118.5 70 -271.5 l151 451 l111 -25 l-202 -517 l-132 0 Z" /><glyph glyph-name="xi" unicode="&#x3be;" d="M358 753 q117 0 202 -60 l-52 -63 q-31 20 -68 30 q-37 10 -74 10 q-58 0 -91 -24 q-33 -24 -33 -68 q0 -48 30.5 -72 q30.5 -24 87.5 -24 l113 0 l-13 -86 l-107 0 q-67 0 -106 -35 q-39 -35 -39 -91 q0 -48 17.5 -75 q17.5 -27 54 -45.5 q36.5 -18.5 114.5 -44.5 q59 -20 92 -37.5 q33 -17.5 49.5 -42.5 q16.5 -25 16.5 -64 q0 -58 -41 -102.5 q-41 -44.5 -126 -82.5 l-43 74 q43 21 67 45.5 q24 24.5 24 57.5 q0 23 -16 35 q-16 12 -65 28 q-95 33 -148 61 q-53 28 -83.5 72 q-30.5 44 -30.5 115 q0 79 49.5 123.5 q49.5 44.5 113.5 56.5 q-58 21 -91.5 53.5 q-33.5 32.5 -33.5 86.5 q0 51 31 89.5 q31 38.5 83.5 59 q52.5 20.5 115.5 20.5 Z" /><glyph glyph-name="omicron" unicode="&#x3bf;" d="M301 542 q114 0 176 -74.5 q62 -74.5 62 -202.5 q0 -128 -63 -203 q-63 -75 -176 -75 q-114 0 -176.5 73.5 q-62.5 73.5 -62.5 203.5 q0 126 63.5 202 q63.5 76 176.5 76 ZM301 455 q-61 0 -91.5 -47 q-30.5 -47 -30.5 -144 q0 -98 30 -144.5 q30 -46.5 91 -46.5 q61 0 91 47 q30 47 30 145 q0 97 -30 143.5 q-30 46.5 -90 46.5 Z" /><glyph glyph-name="pi" unicode="&#x3c0;" d="M487 441 l0 -289 q0 -36 10.5 -53.5 q10.5 -17.5 36.5 -25.5 l-36 -86 q-63 14 -92.5 49 q-29.5 35 -29.5 103 l0 302 l-159 0 l0 -441 l-110 0 l0 441 q-25 -1 -42 -3.5 q-17 -2.5 -38 -9.5 l-22 81 q25 11 53.5 15 q28.5 4 69.5 4 l437 0 l0 -87 l-78 0 Z" /><glyph glyph-name="rho" unicode="&#x3c1;" d="M308 542 q229 0 229 -277 q0 -78 -23.5 -141 q-23.5 -63 -70 -100 q-46.5 -37 -112.5 -37 q-84 0 -135 58 l0 -248 l-112 -13 l0 488 q0 132 56.5 201 q56.5 69 167.5 69 ZM306 457 q-60 0 -85 -49.5 q-25 -49.5 -25 -153.5 l0 -121 q19 -29 46 -44 q27 -15 59 -15 q58 0 88 48 q30 48 30 142 q0 101 -28 147 q-28 46 -85 46 Z" /><glyph glyph-name="uni03C2" unicode="&#x3c2;" d="M351 542 q57 0 100.5 -14 q43.5 -14 85.5 -46 l-52 -70 q-31 21 -60 30.5 q-29 9.5 -67 9.5 q-64 0 -105.5 -45.5 q-41.5 -45.5 -41.5 -132.5 q0 -48 13 -76 q13 -28 44 -48 q31 -20 94 -44 q56 -20 88.5 -38 q32.5 -18 50.5 -43.5 q18 -25.5 18 -64.5 q0 -57 -39.5 -98.5 q-39.5 -41.5 -126.5 -79.5 l-45 74 q46 19 69 39.5 q23 20.5 23 51.5 q0 19 -9 30.5 q-9 11.5 -31 22 q-22 10.5 -72 28.5 q-67 25 -109 54.5 q-42 29.5 -64 76 q-22 46.5 -22 115.5 q0 81 33 141.5 q33 60.5 91.5 93.5 q58.5 33 133.5 33 Z" /><glyph glyph-name="sigma" unicode="&#x3c3;" d="M566 445 l-114 8 q40 -27 62.5 -77 q22.5 -50 22.5 -120 q0 -123 -63 -196 q-63 -73 -174 -73 q-113 0 -176 74 q-63 74 -63 202 q0 125 67 198.5 q67 73.5 188 73.5 q87 0 250 -7 l0 -83 ZM300 73 q60 0 89.5 46.5 q29.5 46.5 29.5 144.5 q0 138 -62 191 q-60 0 -98 -16 q-38 -16 -59 -58 q-21 -42 -21 -118 q0 -97 30 -143.5 q30 -46.5 91 -46.5 Z" /><glyph glyph-name="tau" unicode="&#x3c4;" d="M327 441 l0 -297 q0 -67 79 -67 q41 0 84 18 l28 -78 q-22 -13 -59 -21.5 q-37 -8.5 -77 -8.5 q-77 0 -122 43 q-45 43 -45 118 l0 293 l-45 0 q-33 0 -60 -3 q-27 -3 -60 -12 l-18 82 q55 20 143 20 l343 0 l0 -87 l-191 0 Z" /><glyph glyph-name="upsilon" unicode="&#x3c5;" d="M508 528 q27 -142 27 -273 q0 -89 -34.5 -149.5 q-34.5 -60.5 -91 -89.5 q-56.5 -29 -123.5 -29 q-89 0 -143 46.5 q-54 46.5 -54 134.5 l0 360 l112 0 l0 -351 q0 -104 91 -104 q56 0 93 45 q37 45 37 146 q0 128 -26 264 l112 0 Z" /><glyph glyph-name="phi" unicode="&#x3c6;" d="M401 542 q89 0 130 -67.5 q41 -67.5 41 -205.5 q0 -257 -232 -280 l0 -193 l-95 -12 l0 205 q-111 10 -164 73.5 q-53 63.5 -53 176.5 q0 143 54 289 l101 0 q-27 -83 -40 -147 q-13 -64 -13 -120 q0 -92 25 -138 q25 -46 90 -56 l0 253 q0 110 36.5 166 q36.5 56 119.5 56 ZM400 463 q-27 0 -40 -19 q-13 -19 -16.5 -49.5 q-3.5 -30.5 -3.5 -84.5 l0 -244 q70 10 98.5 57.5 q28.5 47.5 28.5 144.5 q0 72 -6 114 q-6 42 -20.5 61.5 q-14.5 19.5 -40.5 19.5 Z" /><glyph glyph-name="chi" unicode="&#x3c7;" d="M565 -199 l-114 -21 l-147 325 l-149 -324 l-113 18 l199 381 q-52 123 -96.5 193.5 q-44.5 70.5 -104.5 128.5 l109 39 q47 -52 84 -118.5 q37 -66.5 73 -171.5 l128 288 l111 -16 l-178 -341 l198 -381 Z" /><glyph glyph-name="psi" unicode="&#x3c8;" d="M349 74 q50 7 76 28.5 q26 21.5 35.5 59 q9.5 37.5 9.5 99.5 q0 112 -25 267 l101 0 q27 -135 27 -273 q0 -119 -54 -185 q-54 -66 -170 -79 l0 -194 l-96 -13 l0 207 q-112 10 -164.5 65.5 q-52.5 55.5 -52.5 140.5 l0 331 l102 0 l0 -326 q0 -60 26.5 -90.5 q26.5 -30.5 88.5 -37.5 l0 454 l96 0 l0 -454 Z" /><glyph glyph-name="omega" unicode="&#x3c9;" d="M527 528 q51 -153 51 -288 q0 -122 -39 -187.5 q-39 -65.5 -114 -65.5 q-106 0 -126 111 q-27 -111 -124 -111 q-76 0 -114.5 64 q-38.5 64 -38.5 189 q0 150 51 288 l93 0 q-23 -77 -31.5 -143 q-8.5 -66 -8.5 -142 q0 -85 14 -127.5 q14 -42.5 51 -42.5 q36 0 49.5 40.5 q13.5 40.5 13.5 118.5 l0 119 l93 15 l0 -133 q0 -83 13.5 -121.5 q13.5 -38.5 49.5 -38.5 q37 0 50.5 42 q13.5 42 13.5 128 q0 73 -9.5 139.5 q-9.5 66.5 -32.5 145.5 l95 0 Z" /><glyph glyph-name="uni0371" unicode="&#x371;" d="M527 225 l-289 0 l0 -225 l-112 0 l0 365 q0 88 -25 161 l103 15 q16 -33 25 -78.5 q9 -45.5 9 -121.5 l0 -25 l289 0 l0 -91 Z" /><glyph glyph-name="uni0373" unicode="&#x373;" d="M568 440 l-213 0 l0 -643 l-112 -13 l0 656 l-116 0 q-30 0 -49.5 -2 q-19.5 -2 -43.5 -9 l-18 83 q25 9 48.5 12.5 q23.5 3.5 62.5 3.5 l441 0 l0 -88 Z" /><glyph glyph-name="uni0377" unicode="&#x377;" d="M505 152 q0 -36 10 -53.5 q10 -17.5 35 -29.5 l-35 -82 q-62 15 -91 52.5 q-29 37.5 -29 104.5 q0 38 9 135 q9 97 15 136 l-210 -415 l-125 0 l0 528 l109 0 l0 -218 q0 -57 -5 -114 q-5 -57 -11 -80 l207 412 l121 0 l0 -376 Z" /><glyph glyph-name="uni037B" unicode="&#x37b;" d="M261 -13 q-55 0 -99 15.5 q-44 15.5 -83 45.5 l51 71 q35 -21 62 -30.5 q27 -9.5 63 -9.5 q68 0 106 43.5 q38 43.5 38 138.5 q0 99 -33.5 145 q-33.5 46 -100.5 46 q-40 0 -70.5 -9.5 q-30.5 -9.5 -63.5 -29.5 l-52 69 q46 32 89.5 46 q43.5 14 99.5 14 q119 0 184.5 -75.5 q65.5 -75.5 65.5 -206.5 q0 -84 -31.5 -145.5 q-31.5 -61.5 -89.5 -94.5 q-58 -33 -136 -33 Z" /><glyph glyph-name="uni037C" unicode="&#x37c;" d="M344 79 q63 0 130 45 l51 -72 q-35 -30 -84 -47.5 q-49 -17.5 -101 -17.5 q-121 0 -189 74.5 q-68 74.5 -68 199.5 q0 81 31 144.5 q31 63.5 89.5 100 q58.5 36.5 138.5 36.5 q105 0 183 -64 l-52 -70 q-64 44 -129 44 q-66 0 -104 -47.5 q-38 -47.5 -38 -143.5 q0 -94 38 -138 q38 -44 104 -44 ZM356 334 q31 0 51 -19.5 q20 -19.5 20 -48.5 q0 -29 -20 -48.5 q-20 -19.5 -51 -19.5 q-31 0 -51 19.5 q-20 19.5 -20 48.5 q0 29 20 48.5 q20 19.5 51 19.5 Z" /><glyph glyph-name="uni037D" unicode="&#x37d;" d="M261 -13 q-55 0 -99 15.5 q-44 15.5 -83 45.5 l51 71 q35 -21 62 -30.5 q27 -9.5 63 -9.5 q68 0 106 43.5 q38 43.5 38 138.5 q0 99 -33.5 145 q-33.5 46 -100.5 46 q-40 0 -70.5 -9.5 q-30.5 -9.5 -63.5 -29.5 l-52 69 q46 32 89.5 46 q43.5 14 99.5 14 q119 0 184.5 -75.5 q65.5 -75.5 65.5 -206.5 q0 -84 -31.5 -145.5 q-31.5 -61.5 -89.5 -94.5 q-58 -33 -136 -33 ZM241 334 q31 0 51 -19.5 q20 -19.5 20 -48.5 q0 -29 -20 -48.5 q-20 -19.5 -51 -19.5 q-31 0 -51 19.5 q-20 19.5 -20 48.5 q0 29 20 48.5 q20 19.5 51 19.5 Z" /><glyph glyph-name="uni03D9" unicode="&#x3d9;" d="M539 265 q0 -111 -48 -183 q-48 -72 -136 -90 l0 -195 l-110 -13 l0 208 q-89 17 -136.5 88.5 q-47.5 71.5 -47.5 183.5 q0 126 63.5 202 q63.5 76 176.5 76 q114 0 176 -74.5 q62 -74.5 62 -202.5 ZM300 73 q61 0 91 47 q30 47 30 145 q0 97 -30 143.5 q-30 46.5 -90 46.5 q-61 0 -91.5 -47 q-30.5 -47 -30.5 -144 q0 -98 30 -144.5 q30 -46.5 91 -46.5 Z" /><glyph glyph-name="uni03DB" unicode="&#x3db;" d="M512 572 q0 -56 -21 -89 q-21 -33 -57 -50 q-36 -17 -98 -33 q-57 -14 -88.5 -28.5 q-31.5 -14.5 -48 -41 q-16.5 -26.5 -16.5 -72.5 q0 -45 14.5 -72 q14.5 -27 48.5 -46 q34 -19 101 -40 q56 -19 89.5 -36 q33.5 -17 52 -43 q18.5 -26 18.5 -65 q0 -55 -39.5 -95.5 q-39.5 -40.5 -125.5 -77.5 l-44 71 q47 22 69 42.5 q22 20.5 22 49.5 q0 20 -13 32.5 q-13 12.5 -35 21 q-22 8.5 -77 26.5 q-64 21 -106.5 46.5 q-42.5 25.5 -67.5 70 q-25 44.5 -25 113.5 q0 92 48.5 142.5 q48.5 50.5 141.5 75.5 l27 7 q54 14 78 23.5 q24 9.5 36.5 26.5 q12.5 17 12.5 49 l103 -8 Z" /><glyph glyph-name="uni03DD" unicode="&#x3dd;" d="M304 440 q-41 0 -60 -20 q-19 -20 -19 -63 l0 -119 l158 0 q36 0 60.5 -5.5 q24.5 -5.5 48.5 -18.5 l-27 -76 q-42 14 -90 14 l-150 0 l0 -353 l-112 -16 l0 571 q0 83 46.5 128.5 q46.5 45.5 135.5 45.5 l237 0 l-14 -87 l-214 -1 Z" /><glyph glyph-name="uni03DF" unicode="&#x3df;" d="M524 392 l-98 -199 q-37 -75 -53 -119 q-16 -44 -23 -87 l-99 21 q4 52 24 103.5 q20 51.5 64 129.5 l65 116 l-298 -86 l-30 84 l95 193 q37 74 53 118 q16 44 23 89 l99 -21 q-4 -53 -24 -105 q-20 -52 -63 -128 l-62 -111 l296 85 l31 -83 Z" /><glyph glyph-name="uni03E1" unicode="&#x3e1;" d="M92 755 q222 -102 328.5 -259 q106.5 -157 106.5 -400 q0 -75 -12 -161 q-12 -86 -30 -150 l-89 13 q31 146 31 298 q0 74 -11 145 l-100 -241 l-87 0 l154 358 q-21 52 -47 90 l-212 -448 l-101 0 l251 526 q-80 83 -219 157 l37 72 Z" /><glyph glyph-name="uni03D7" unicode="&#x3d7;" d="M544 65 l1 0 l0 -116 q0 -81 -43.5 -123.5 q-43.5 -42.5 -120.5 -42.5 q-71 0 -124 39 l41 69 q21 -12 37.5 -17 q16.5 -5 39.5 -5 q30 0 47 17 q17 17 17 53 l0 89 q-25 17 -37 44.5 q-12 27.5 -12 69.5 q0 41 11 132.5 q11 91.5 19 129.5 l-223 -413 l-97 31 l0 354 q0 37 -9.5 54 q-9.5 17 -35.5 29 l35 83 q62 -15 91 -53 q29 -38 29 -103 q0 -41 -11.5 -131 q-11.5 -90 -19.5 -130 l223 413 l98 -32 l0 -354 q0 -39 9.5 -56.5 q9.5 -17.5 35.5 -29.5 l-1 -1 Z" /><glyph glyph-name="uni03D0" unicode="&#x3d0;" d="M366 435 q86 0 125.5 -58 q39.5 -58 39.5 -151 q0 -64 -28 -119 q-28 -55 -80.5 -87.5 q-52.5 -32.5 -123.5 -32.5 q-121 0 -175.5 91.5 q-54.5 91.5 -54.5 266.5 q0 128 37.5 220.5 q37.5 92.5 99 140 q61.5 47.5 132.5 47.5 q78 0 115.5 -39.5 q37.5 -39.5 37.5 -94.5 q0 -64 -44 -114 q-44 -50 -129 -77 q27 7 48 7 ZM331 670 q-52 0 -92.5 -60 q-40.5 -60 -50.5 -190 l28 11 q88 37 127.5 79.5 q39.5 42.5 39.5 102.5 q0 29 -13.5 43 q-13.5 14 -38.5 14 ZM299 73 q54 0 84.5 40 q30.5 40 30.5 109 q0 75 -22.5 114 q-22.5 39 -78.5 39 q-25 0 -47.5 -6 q-22.5 -6 -52.5 -21 l-28 -13 q-1 -134 25 -198 q26 -64 89 -64 Z" /><glyph glyph-name="uni03D1" unicode="&#x3d1;" d="M541 403 l-34 0 l0 -1 q0 -208 -58.5 -311.5 q-58.5 -103.5 -182.5 -103.5 q-48 0 -88.5 20.5 q-40.5 20.5 -64.5 61 q-24 40.5 -24 99.5 l0 182 l110 0 l0 -179 q0 -49 18.5 -73.5 q18.5 -24.5 51.5 -24.5 q60 0 89 74.5 q29 74.5 29 253.5 l0 2 l-99 0 q-105 0 -161 47 q-56 47 -56 124 q0 49 25 90 q25 41 68.5 65 q43.5 24 98.5 24 q105 0 165 -70 q60 -70 74 -196 l40 0 l-1 -84 ZM384 486 q-9 94 -38.5 137.5 q-29.5 43.5 -81.5 43.5 q-39 0 -62.5 -25 q-23.5 -25 -23.5 -65 q0 -46 29.5 -69 q29.5 -23 80.5 -23 l96 1 Z" /><glyph glyph-name="uni03D5" unicode="&#x3d5;" d="M565 266 q0 -80 -27.5 -137.5 q-27.5 -57.5 -75.5 -89 q-48 -31.5 -109 -35.5 l0 -207 l-106 -13 l0 220 q-96 8 -154 76 q-58 68 -58 183 q0 80 28 137.5 q28 57.5 76 88.5 q48 31 108 35 l0 215 l106 12 l0 -227 q97 -8 154.5 -75.5 q57.5 -67.5 57.5 -182.5 ZM141 263 q0 -85 28.5 -131 q28.5 -46 83.5 -51 l0 369 q-112 -11 -112 -187 ZM347 80 q111 14 111 186 q0 86 -28.5 132 q-28.5 46 -82.5 51 l0 -369 Z" /><glyph glyph-name="uni03D6" unicode="&#x3d6;" d="M587 448 l-63 0 q45 -102 45 -211 q0 -119 -39 -184.5 q-39 -65.5 -111 -65.5 q-47 0 -77 27.5 q-30 27.5 -40 83.5 q-13 -55 -43 -83 q-30 -28 -73 -28 q-73 0 -111 64 q-38 64 -38 186 q0 113 43 210 q-27 -1 -61 -11 l-19 75 q24 9 49.5 12.5 q25.5 3.5 76.5 4.5 l461 0 l0 -80 ZM467 243 q0 106 -22 205 l-286 -1 q-20 -95 -20 -204 q0 -84 13.5 -127 q13.5 -43 47.5 -43 q32 0 44.5 41 q12.5 41 12.5 118 l0 99 l91 14 l0 -112 q0 -82 12.5 -121 q12.5 -39 46.5 -39 q33 0 46.5 42.5 q13.5 42.5 13.5 127.5 Z" /><glyph glyph-name="uni03F0" unicode="&#x3f0;" d="M500 152 q0 -37 10 -54 q10 -17 35 -29 l-36 -82 q-62 15 -90.5 52.5 q-28.5 37.5 -28.5 102.5 q0 41 11.5 131.5 q11.5 90.5 19.5 130.5 l-223 -413 l-98 31 l1 354 q0 37 -10 54 q-10 17 -35 29 l35 83 q61 -15 90 -53 q29 -38 29 -103 q0 -40 -11 -128.5 q-11 -88.5 -19 -132.5 l222 413 l98 -32 l0 -354 Z" /><glyph glyph-name="uni03F1" unicode="&#x3f1;" d="M330 -92 q69 -10 103.5 -32 q34.5 -22 46.5 -62 l-101 -32 q-7 15 -17.5 23 q-10.5 8 -32.5 13.5 q-22 5.5 -71 13.5 q-90 13 -132 55.5 q-42 42.5 -42 132.5 l0 252 q0 133 56.5 201.5 q56.5 68.5 166.5 68.5 q111 0 170.5 -67.5 q59.5 -67.5 59.5 -185.5 q0 -71 -24.5 -132 q-24.5 -61 -71.5 -98 q-47 -37 -111 -37 q-85 0 -134 66 l0 -74 q0 -38 11 -57.5 q11 -19.5 38.5 -30 q27.5 -10.5 84.5 -18.5 ZM309 457 q-61 0 -87 -49 q-26 -49 -26 -151 l0 -81 q19 -33 45.5 -50.5 q26.5 -17.5 59.5 -17.5 q55 0 86 47.5 q31 47.5 31 132.5 q0 84 -28 126.5 q-28 42.5 -81 42.5 Z" /><glyph glyph-name="uni03F2" unicode="&#x3f2;" d="M344 79 q63 0 130 45 l51 -72 q-35 -30 -84 -47.5 q-49 -17.5 -101 -17.5 q-121 0 -189 74.5 q-68 74.5 -68 199.5 q0 81 31 144.5 q31 63.5 89.5 100 q58.5 36.5 138.5 36.5 q105 0 183 -64 l-52 -70 q-64 44 -129 44 q-66 0 -104 -47.5 q-38 -47.5 -38 -143.5 q0 -94 38 -138 q38 -44 104 -44 Z" /><glyph glyph-name="uni03FB" unicode="&#x3fb;" d="M79 528 l136 0 l80 -369 l92 369 l135 0 l44 -528 l-105 0 l-15 217 q-4 63 -4 139 q0 52 1 83 l-100 -378 l-101 0 l-88 375 q0 -58 -1 -113 q-1 -55 -5 -106 l-33 -422 l-102 -11 l66 744 Z" /><glyph glyph-name="uni03FC" unicode="&#x3fc;" d="M360 -13 q-84 0 -135 58 l0 -105 l151 0 l0 -78 l-151 0 l0 -65 l-112 -13 l0 78 l-74 0 l0 78 l74 0 l0 332 q0 132 56.5 201 q56.5 69 167.5 69 q229 0 229 -277 q0 -78 -23.5 -141 q-23.5 -63 -70 -100 q-46.5 -37 -112.5 -37 ZM225 133 q19 -29 46 -44 q27 -15 59 -15 q58 0 88 48 q30 48 30 142 q0 101 -28 147 q-28 46 -85 46 q-60 0 -85 -49.5 q-25 -49.5 -25 -153.5 l0 -121 Z" /><glyph glyph-name="uni1FD2" unicode="&#x1fd2;" d="M210 910 l122 -153 l-45 -40 l-143 130 l66 63 ZM176 744 q27 0 45.5 -18 q18.5 -18 18.5 -45 q0 -27 -18.5 -45.5 q-18.5 -18.5 -45.5 -18.5 q-28 0 -46.5 18.5 q-18.5 18.5 -18.5 45.5 q0 27 18.5 45 q18.5 18 46.5 18 ZM395 744 q28 0 46.5 -18 q18.5 -18 18.5 -45 q0 -27 -18.5 -45.5 q-18.5 -18.5 -46.5 -18.5 q-26 0 -45 18.5 q-19 18.5 -19 45.5 q0 27 18.5 45 q18.5 18 45.5 18 ZM53 440 l11 88 l273 0 l0 -384 q0 -67 80 -67 q41 0 84 18 l28 -78 q-22 -13 -59 -21.5 q-37 -8.5 -77 -8.5 q-77 0 -122.5 43 q-45.5 43 -45.5 118 l0 292 l-172 0 Z" /><glyph glyph-name="uni1FD3" unicode="&#x1fd3;" d="M364 910 l66 -63 l-143 -130 l-45 40 l122 153 ZM176 744 q27 0 45.5 -18 q18.5 -18 18.5 -45 q0 -27 -18.5 -45.5 q-18.5 -18.5 -45.5 -18.5 q-28 0 -46.5 18.5 q-18.5 18.5 -18.5 45.5 q0 27 18.5 45 q18.5 18 46.5 18 ZM395 744 q28 0 46.5 -18 q18.5 -18 18.5 -45 q0 -27 -18.5 -45.5 q-18.5 -18.5 -46.5 -18.5 q-27 0 -45.5 18.5 q-18.5 18.5 -18.5 45.5 q0 27 18.5 45 q18.5 18 45.5 18 ZM53 440 l11 88 l273 0 l0 -384 q0 -67 80 -67 q41 0 84 18 l28 -78 q-22 -13 -59 -21.5 q-37 -8.5 -77 -8.5 q-77 0 -122.5 43 q-45.5 43 -45.5 118 l0 292 l-172 0 Z" /><glyph glyph-name="uni1FD7" unicode="&#x1fd7;" d="M346 780 q-20 0 -35.5 7 q-15.5 7 -34.5 20 q-15 11 -24.5 15.5 q-9.5 4.5 -20.5 4.5 q-17 0 -28.5 -11 q-11.5 -11 -24.5 -35 l-63 31 q20 44 49 71 q29 27 66 27 q21 0 37.5 -7.5 q16.5 -7.5 34.5 -20.5 q14 -10 23.5 -15 q9.5 -5 20.5 -5 q15 0 27 10.5 q12 10.5 26 33.5 l63 -31 q-20 -46 -49.5 -70.5 q-29.5 -24.5 -66.5 -24.5 ZM181 611 q-28 0 -47 18 q-19 18 -19 45 q0 28 19 46 q19 18 47 18 q27 0 45.5 -18 q18.5 -18 18.5 -46 q0 -27 -18.5 -45 q-18.5 -18 -45.5 -18 ZM397 611 q-27 0 -46 18 q-19 18 -19 45 q0 27 19 45.5 q19 18.5 46 18.5 q28 0 46.5 -18 q18.5 -18 18.5 -46 q0 -27 -18.5 -45 q-18.5 -18 -46.5 -18 ZM53 440 l11 88 l273 0 l0 -384 q0 -67 80 -67 q41 0 84 18 l28 -78 q-22 -13 -59 -21.5 q-37 -8.5 -77 -8.5 q-77 0 -122.5 43 q-45.5 43 -45.5 118 l0 292 l-172 0 Z" /><glyph glyph-name="uni1FE2" unicode="&#x1fe2;" d="M224 910 l122 -153 l-45 -40 l-143 130 l66 63 ZM190 744 q27 0 45.5 -18 q18.5 -18 18.5 -45 q0 -27 -18.5 -45.5 q-18.5 -18.5 -45.5 -18.5 q-28 0 -46.5 18.5 q-18.5 18.5 -18.5 45.5 q0 27 18.5 45 q18.5 18 46.5 18 ZM409 744 q28 0 46.5 -18 q18.5 -18 18.5 -45 q0 -27 -18.5 -45.5 q-18.5 -18.5 -46.5 -18.5 q-26 0 -45 18.5 q-19 18.5 -19 45.5 q0 27 18.5 45 q18.5 18 45.5 18 ZM508 528 q27 -142 27 -273 q0 -89 -34.5 -149.5 q-34.5 -60.5 -91 -89.5 q-56.5 -29 -123.5 -29 q-89 0 -143 46.5 q-54 46.5 -54 134.5 l0 360 l112 0 l0 -351 q0 -104 91 -104 q56 0 93 45 q37 45 37 146 q0 128 -26 264 l112 0 Z" /><glyph glyph-name="uni1FE3" unicode="&#x1fe3;" d="M378 910 l66 -63 l-143 -130 l-45 40 l122 153 ZM190 744 q27 0 45.5 -18 q18.5 -18 18.5 -45 q0 -27 -18.5 -45.5 q-18.5 -18.5 -45.5 -18.5 q-28 0 -46.5 18.5 q-18.5 18.5 -18.5 45.5 q0 27 18.5 45 q18.5 18 46.5 18 ZM409 744 q28 0 46.5 -18 q18.5 -18 18.5 -45 q0 -27 -18.5 -45.5 q-18.5 -18.5 -46.5 -18.5 q-27 0 -45.5 18.5 q-18.5 18.5 -18.5 45.5 q0 27 18.5 45 q18.5 18 45.5 18 ZM508 528 q27 -142 27 -273 q0 -89 -34.5 -149.5 q-34.5 -60.5 -91 -89.5 q-56.5 -29 -123.5 -29 q-89 0 -143 46.5 q-54 46.5 -54 134.5 l0 360 l112 0 l0 -351 q0 -104 91 -104 q56 0 93 45 q37 45 37 146 q0 128 -26 264 l112 0 Z" /><glyph glyph-name="uni1FE7" unicode="&#x1fe7;" d="M360 780 q-20 0 -35.5 7 q-15.5 7 -34.5 20 q-15 11 -24.5 15.5 q-9.5 4.5 -20.5 4.5 q-17 0 -28.5 -11 q-11.5 -11 -24.5 -35 l-63 31 q20 44 49 71 q29 27 66 27 q21 0 37.5 -7.5 q16.5 -7.5 34.5 -20.5 q14 -10 23.5 -15 q9.5 -5 20.5 -5 q15 0 27 10.5 q12 10.5 26 33.5 l63 -31 q-20 -46 -49.5 -70.5 q-29.5 -24.5 -66.5 -24.5 ZM195 611 q-28 0 -47 18 q-19 18 -19 45 q0 28 19 46 q19 18 47 18 q27 0 45.5 -18 q18.5 -18 18.5 -46 q0 -27 -18.5 -45 q-18.5 -18 -45.5 -18 ZM411 611 q-27 0 -46 18 q-19 18 -19 45 q0 27 19 45.5 q19 18.5 46 18.5 q28 0 46.5 -18 q18.5 -18 18.5 -46 q0 -27 -18.5 -45 q-18.5 -18 -46.5 -18 ZM508 528 q27 -142 27 -273 q0 -89 -34.5 -149.5 q-34.5 -60.5 -91 -89.5 q-56.5 -29 -123.5 -29 q-89 0 -143 46.5 q-54 46.5 -54 134.5 l0 360 l112 0 l0 -351 q0 -104 91 -104 q56 0 93 45 q37 45 37 146 q0 128 -26 264 l112 0 Z" /><glyph glyph-name="zero" unicode="0" d="M300 704 q115 0 175 -92.5 q60 -92.5 60 -265.5 q0 -173 -60 -266 q-60 -93 -175 -93 q-115 0 -175 93 q-60 93 -60 266 q0 173 60 265.5 q60 92.5 175 92.5 ZM300 618 q-61 0 -92.5 -65 q-31.5 -65 -31.5 -207 q0 -107 13 -166 l195 398 q-27 40 -84 40 ZM300 72 q62 0 92.5 65 q30.5 65 30.5 209 q0 95 -10 151 l-192 -392 q27 -33 79 -33 Z" /><glyph glyph-name="one" unicode="1" d="M392 88 l138 0 l0 -88 l-417 0 l0 88 l168 0 l0 487 l-152 -93 l-48 78 l212 130 l99 0 l0 -602 Z" /><glyph glyph-name="two" unicode="2" d="M272 704 q68 0 117.5 -26 q49.5 -26 75.5 -70 q26 -44 26 -99 q0 -61 -28 -118.5 q-28 -57.5 -91 -127 q-63 -69.5 -178 -173.5 l313 0 l-12 -90 l-429 0 l0 85 q130 125 194 195.5 q64 70.5 90 120.5 q26 50 26 101 q0 52 -30 82 q-30 30 -82 30 q-45 0 -76.5 -16.5 q-31.5 -16.5 -63.5 -55.5 l-72 56 q41 53 94 79.5 q53 26.5 126 26.5 Z" /><glyph glyph-name="three" unicode="3" d="M270 704 q67 0 117 -23.5 q50 -23.5 77 -63.5 q27 -40 27 -88 q0 -62 -38.5 -105 q-38.5 -43 -98.5 -57 q70 -7 114.5 -50 q44.5 -43 44.5 -120 q0 -59 -31 -107 q-31 -48 -88 -75.5 q-57 -27.5 -131 -27.5 q-67 0 -126 24.5 q-59 24.5 -98 71.5 l69 60 q28 -34 67 -51 q39 -17 82 -17 q65 0 102.5 34 q37.5 34 37.5 92 q0 121 -134 121 l-59 0 l13 82 l42 0 q52 0 86.5 28 q34.5 28 34.5 81 q0 49 -33 76.5 q-33 27.5 -86 27.5 q-42 0 -76 -15 q-34 -15 -67 -47 l-59 64 q88 85 211 85 Z" /><glyph glyph-name="four" unicode="4" d="M538 246 l0 -87 l-82 0 l0 -159 l-108 0 l0 159 l-286 0 l0 78 l198 467 l94 -37 l-175 -421 l170 0 l11 184 l96 0 l0 -184 l82 0 Z" /><glyph glyph-name="five" unicode="5" d="M483 606 l-265 0 l0 -192 q53 27 113 27 q55 0 98.5 -26 q43.5 -26 68 -75.5 q24.5 -49.5 24.5 -117.5 q0 -69 -31 -122.5 q-31 -53.5 -87 -83 q-56 -29.5 -130 -29.5 q-127 0 -211 90 l66 63 q59 -65 140 -65 q64 0 100 38.5 q36 38.5 36 108.5 q0 72 -30.5 104.5 q-30.5 32.5 -82.5 32.5 q-24 0 -46.5 -5.5 q-22.5 -5.5 -51.5 -17.5 l-83 0 l0 354 l387 0 l-15 -84 Z" /><glyph glyph-name="six" unicode="6" d="M341 454 q55 0 99 -25 q44 -25 70 -75 q26 -50 26 -121 q0 -73 -29.5 -129 q-29.5 -56 -81 -86.5 q-51.5 -30.5 -117.5 -30.5 q-124 0 -182 89.5 q-58 89.5 -58 244.5 q0 115 32.5 201.5 q32.5 86.5 94.5 134 q62 47.5 146 47.5 q79 0 142 -42 l-43 -72 q-46 29 -99 29 q-70 0 -112 -66 q-42 -66 -46 -179 q63 80 158 80 ZM309 72 q56 0 85 42 q29 42 29 114 q0 143 -105 143 q-40 0 -74.5 -21.5 q-34.5 -21.5 -59.5 -58.5 q2 -114 31 -166.5 q29 -52.5 94 -52.5 Z" /><glyph glyph-name="seven" unicode="7" d="M243 -12 l-105 32 l264 582 l-316 0 l0 88 l429 0 l0 -80 l-272 -622 Z" /><glyph glyph-name="eight" unicode="8" d="M515 526 q0 -49 -28 -85 q-28 -36 -86 -69 q69 -31 105.5 -78 q36.5 -47 36.5 -108 q0 -56 -29.5 -101.5 q-29.5 -45.5 -85 -71.5 q-55.5 -26 -130.5 -26 q-76 0 -130.5 26 q-54.5 26 -82.5 70.5 q-28 44.5 -28 99.5 q0 118 134 178 q-56 29 -81 65.5 q-25 36.5 -25 93.5 q0 59 30.5 100.5 q30.5 41.5 80 62.5 q49.5 21 104.5 21 q59 0 107.5 -20.5 q48.5 -20.5 78 -60.5 q29.5 -40 29.5 -97 ZM193 519 q0 -33 15 -54 q15 -21 42 -34.5 q27 -13.5 75 -30.5 q44 27 63 54 q19 27 19 66 q0 47 -28 74.5 q-28 27.5 -79 27.5 q-51 0 -79 -27 q-28 -27 -28 -76 ZM428 185 q0 40 -19 65.5 q-19 25.5 -51.5 41.5 q-32.5 16 -94.5 38 q-91 -47 -91 -143 q0 -54 32.5 -84.5 q32.5 -30.5 94.5 -30.5 q62 0 95.5 31.5 q33.5 31.5 33.5 81.5 Z" /><glyph glyph-name="nine" unicode="9" d="M292 703 q116 0 176 -72 q60 -72 60 -198 q0 -140 -40 -228.5 q-40 -88.5 -123.5 -141 q-83.5 -52.5 -224.5 -87.5 l-25 81 q139 36 212 98 q73 62 83 166 q-64 -73 -155 -74 q-56 0 -101 27 q-45 27 -70.5 77 q-25.5 50 -25.5 117 q0 73 30.5 126 q30.5 53 83.5 81 q53 28 120 28 ZM283 331 q39 1 70 19 q31 18 59 52 q2 117 -25.5 166.5 q-27.5 49.5 -95.5 49.5 q-58 0 -88.5 -38 q-30.5 -38 -30.5 -112 q0 -71 29 -104 q29 -33 82 -33 Z" /><glyph glyph-name="fraction" unicode="&#x2044;" d="M-250 181 l-34 62 l535 256 l33 -62 l-534 -256 Z" /><glyph glyph-name="asterisk" unicode="*" d="M245 584 l12 -197 l-183 72 l-34 -103 l191 -50 l-125 -153 l88 -63 l106 166 l106 -166 l88 63 l-125 153 l191 50 l-34 103 l-183 -72 l12 197 l-110 0 Z" /><glyph glyph-name="backslash" unicode="\" d="M44 771 l88 41 l424 -878 l-89 -40 l-423 877 Z" /><glyph glyph-name="periodcentered" unicode="·" d="M203 342 q0 40 28 68 q28 28 68 28 q41 0 69 -28 q28 -28 28 -68 q0 -41 -28 -69 q-28 -28 -69 -28 q-40 0 -68 28 q-28 28 -28 69 Z" /><glyph glyph-name="bullet" unicode="&#x2022;" d="M300 212 q-55 0 -92.5 37.5 q-37.5 37.5 -37.5 92.5 q0 55 37 92 q37 37 93 37 q56 0 93 -37 q37 -37 37 -93 q0 -55 -37 -92 q-37 -37 -93 -37 Z" /><glyph glyph-name="colon" unicode=":" d="M210 432 q0 37 26 63.5 q26 26.5 63 26.5 q38 0 64 -26.5 q26 -26.5 26 -63.5 q0 -37 -26 -63.5 q-26 -26.5 -64 -26.5 q-37 0 -63 26.5 q-26 26.5 -26 63.5 ZM210 77 q0 37 26 63 q26 26 63 26 q39 0 64.5 -26 q25.5 -26 25.5 -63 q0 -38 -25.5 -64 q-25.5 -26 -64.5 -26 q-37 0 -63 26 q-26 26 -26 64 Z" /><glyph glyph-name="comma" unicode="," d="M300 180 q39 0 65.5 -26 q26.5 -26 26.5 -64 q0 -22 -6.5 -44 q-6.5 -22 -22.5 -57 l-77 -177 l-87 0 l48 203 q-17 12 -27.5 32 q-10.5 20 -10.5 43 q0 38 26.5 64 q26.5 26 64.5 26 Z" /><glyph glyph-name="ellipsis" unicode="&#x2026;" d="M25 60 q0 31 21.5 52.5 q21.5 21.5 52.5 21.5 q31 0 53 -21.5 q22 -21.5 22 -52.5 q0 -31 -22 -52.5 q-22 -21.5 -53 -21.5 q-31 0 -52.5 21.5 q-21.5 21.5 -21.5 52.5 ZM225 60 q0 31 22 52.5 q22 21.5 53 21.5 q31 0 52.5 -21.5 q21.5 -21.5 21.5 -52.5 q0 -31 -21.5 -52.5 q-21.5 -21.5 -52.5 -21.5 q-31 0 -53 21.5 q-22 21.5 -22 52.5 ZM426 60 q0 31 21.5 52.5 q21.5 21.5 52.5 21.5 q31 0 53 -21.5 q22 -21.5 22 -52.5 q0 -31 -22 -52.5 q-22 -21.5 -53 -21.5 q-31 0 -52.5 21.5 q-21.5 21.5 -21.5 52.5 Z" /><glyph glyph-name="exclam" unicode="!" d="M360 690 l-13 -452 l-95 0 l-14 452 l122 0 ZM299 138 q33 0 54.5 -22 q21.5 -22 21.5 -53 q0 -32 -21.5 -54 q-21.5 -22 -54.5 -22 q-32 0 -53.5 22 q-21.5 22 -21.5 54 q0 31 22 53 q22 22 53 22 Z" /><glyph glyph-name="exclamdown" unicode="¡" d="M299 504 q32 0 54 -22.5 q22 -22.5 22 -54.5 q0 -31 -22 -53 q-22 -22 -54 -22 q-31 0 -53 22 q-22 22 -22 53 q0 32 22 54.5 q22 22.5 53 22.5 ZM346 252 l16 -452 l-124 0 l15 452 l93 0 Z" /><glyph glyph-name="numbersign" unicode="#" d="M471 452 l-28 -212 l74 0 l0 -80 l-85 0 l-21 -160 l-93 0 l21 160 l-127 0 l-21 -160 l-94 0 l21 160 l-72 0 l0 80 l82 0 l29 212 l-74 0 l0 81 l85 0 l21 157 l94 0 l-22 -157 l127 0 l21 157 l94 0 l-22 -157 l73 0 l0 -81 l-83 0 ZM222 240 l127 0 l29 212 l-128 0 l-28 -212 Z" /><glyph glyph-name="period" unicode="." d="M203 84 q0 40 28 68 q28 28 68 28 q41 0 69 -28 q28 -28 28 -68 q0 -41 -28 -69 q-28 -28 -69 -28 q-40 0 -68 28 q-28 28 -28 69 Z" /><glyph glyph-name="question" unicode="?" d="M298 704 q65 0 112.5 -22 q47.5 -22 72.5 -59 q25 -37 25 -79 q0 -39 -13.5 -66.5 q-13.5 -27.5 -32.5 -45 q-19 -17.5 -51 -40.5 q-29 -21 -46 -36 q-17 -15 -28.5 -37 q-11.5 -22 -11.5 -52 l0 -29 l-107 0 l0 34 q0 43 14.5 73.5 q14.5 30.5 35 50 q20.5 19.5 52.5 43.5 q37 28 54 47.5 q17 19.5 17 49.5 q0 36 -29 56.5 q-29 20.5 -75 20.5 q-36 0 -71.5 -17 q-35.5 -17 -63.5 -52 l-75 58 q88 102 221 102 ZM274 138 q32 0 54 -22 q22 -22 22 -53 q0 -32 -22 -54 q-22 -22 -54 -22 q-32 0 -53.5 22 q-21.5 22 -21.5 54 q0 31 22 53 q22 22 53 22 Z" /><glyph glyph-name="questiondown" unicode="¿" d="M321 504 q31 0 53.5 -22.5 q22.5 -22.5 22.5 -54.5 q0 -31 -22.5 -53 q-22.5 -22 -53.5 -22 q-31 0 -53 22 q-22 22 -22 53 q0 32 22 54.5 q22 22.5 53 22.5 ZM378 216 q0 -43 -14.5 -73.5 q-14.5 -30.5 -35 -50 q-20.5 -19.5 -52.5 -43.5 q-37 -28 -54 -47.5 q-17 -19.5 -17 -49.5 q0 -36 29 -56.5 q29 -20.5 75 -20.5 q36 0 71.5 17 q35.5 17 63.5 52 l75 -57 q-86 -103 -221 -103 q-65 0 -112.5 22 q-47.5 22 -72.5 59 q-25 37 -25 79 q0 39 13.5 66.5 q13.5 27.5 32.5 45 q19 17.5 51 40.5 q43 31 64.5 57 q21.5 26 21.5 70 l0 29 l107 0 l0 -36 Z" /><glyph glyph-name="quotedbl" unicode="&quot;" d="M167 473 l-16 267 l122 0 l-17 -267 l-89 0 ZM344 473 l-17 267 l122 0 l-16 -267 l-89 0 Z" /><glyph glyph-name="quotesingle" unicode="&#39;" d="M256 473 l-17 267 l122 0 l-17 -267 l-88 0 Z" /><glyph glyph-name="semicolon" unicode=";" d="M299 522 q38 0 64 -26.5 q26 -26.5 26 -63.5 q0 -37 -26 -63.5 q-26 -26.5 -64 -26.5 q-37 0 -63 26.5 q-26 26.5 -26 63.5 q0 37 26 63.5 q26 26.5 63 26.5 ZM299 178 q39 0 64.5 -26 q25.5 -26 25.5 -64 q0 -21 -6 -43.5 q-6 -22.5 -21 -55.5 l-77 -176 l-86 0 l48 201 q-17 12 -27 32 q-10 20 -10 42 q0 38 25.5 64 q25.5 26 63.5 26 Z" /><glyph glyph-name="slash" unicode="/" d="M133 -106 l-89 40 l424 878 l88 -41 l-423 -877 Z" /><glyph glyph-name="uni204A" unicode="&#x204a;" d="M250 -220 l-104 34 l245 625 l-311 0 l0 89 l426 0 l0 -82 l-256 -666 Z" /><glyph glyph-name="underscore" unicode="_" d="M50 -183 l0 92 l500 0 l0 -92 l-500 0 Z" /><glyph glyph-name="underscoredbl" unicode="&#x2017;" d="M550 0 l0 -79 l-500 0 l0 79 l500 0 ZM550 -136 l0 -79 l-500 0 l0 79 l500 0 Z" /><glyph glyph-name="braceleft" unicode="{" d="M457 754 q-57 0 -87 -16.5 q-30 -16.5 -26 -56.5 l18 -184 q1 -9 1 -25 q0 -55 -29.5 -83.5 q-29.5 -28.5 -87.5 -38.5 q60 -10 88.5 -37 q28.5 -27 28.5 -83 q0 -18 -1 -27 l-18 -184 q-4 -41 26 -57 q30 -16 87 -16 l0 -83 q-105 0 -161.5 32.5 q-56.5 32.5 -56.5 110.5 q0 15 1 23 l19 173 q1 5 1 16 q0 46 -34 66.5 q-34 20.5 -113 20.5 l0 90 q79 0 113 20.5 q34 20.5 34 66.5 q0 10 -1 15 l-19 173 q-1 8 -1 23 q0 78 56.5 111 q56.5 33 161.5 33 l0 -83 Z" /><glyph glyph-name="braceright" unicode="}" d="M143 837 q105 0 161.5 -32.5 q56.5 -32.5 56.5 -110.5 q0 -15 -1 -23 l-19 -174 l-1 -14 q0 -46 35.5 -67 q35.5 -21 111.5 -21 l0 -90 q-76 0 -111.5 -21.5 q-35.5 -21.5 -35.5 -67.5 l1 -14 l19 -172 q1 -8 1 -23 q0 -78 -56.5 -111 q-56.5 -33 -161.5 -33 l0 83 q57 0 87 16 q30 16 26 57 l-18 184 q-1 9 -1 26 q0 56 30 83.5 q30 27.5 94 36.5 q-63 11 -93.5 39 q-30.5 28 -30.5 84 q0 16 1 25 l18 184 q4 40 -26.5 56.5 q-30.5 16.5 -86.5 16.5 l0 83 Z" /><glyph glyph-name="bracketleft" unicode="[" d="M173 -118 l0 936 l273 0 l0 -89 l-167 0 l0 -759 l167 0 l0 -88 l-273 0 Z" /><glyph glyph-name="bracketright" unicode="]" d="M427 818 l0 -936 l-273 0 l0 89 l167 0 l0 758 l-167 0 l0 89 l273 0 Z" /><glyph glyph-name="parenleft" unicode="(" d="M231 350 q0 -95 21 -167 q21 -72 64.5 -135 q43.5 -63 118.5 -135 l-61 -60 q-130 108 -194 222.5 q-64 114.5 -64 274.5 q0 160 64 274.5 q64 114.5 194 222.5 l61 -60 q-74 -71 -117.5 -133.5 q-43.5 -62.5 -65 -135.5 q-21.5 -73 -21.5 -168 Z" /><glyph glyph-name="parenright" unicode=")" d="M369 350 q0 95 -21.5 168 q-21.5 73 -65 135.5 q-43.5 62.5 -117.5 133.5 l61 60 q130 -108 194 -222.5 q64 -114.5 64 -274.5 q0 -160 -64 -274.5 q-64 -114.5 -194 -222.5 l-61 60 q75 72 118.5 135 q43.5 63 64.5 135 q21 72 21 167 Z" /><glyph glyph-name="emdash" unicode="&#x2014;" d="M0 267 l0 92 l600 0 l0 -92 l-600 0 Z" /><glyph glyph-name="endash" unicode="&#x2013;" d="M31 267 l0 92 l538 0 l0 -92 l-538 0 Z" /><glyph glyph-name="figuredash" unicode="&#x2012;" d="M34 269 l0 92 l532 0 l0 -92 l-532 0 Z" /><glyph glyph-name="hyphen" unicode="-" d="M94 267 l0 92 l412 0 l0 -92 l-412 0 Z" /><glyph glyph-name="uni00AD" unicode="­" d="M141 267 l0 92 l318 0 l0 -92 l-318 0 Z" /><glyph glyph-name="guillemotleft" unicode="«" d="M310 82 l-66 -41 l-173 212 l0 76 l173 212 l66 -41 l-128 -209 l128 -209 ZM529 82 l-66 -41 l-175 212 l0 76 l175 212 l66 -41 l-128 -209 l128 -209 Z" /><glyph glyph-name="guillemotright" unicode="»" d="M198 291 l-127 209 l66 41 l173 -212 l0 -76 l-173 -212 l-66 41 l127 209 ZM416 291 l-128 209 l66 41 l175 -212 l0 -76 l-175 -212 l-66 41 l128 209 Z" /><glyph glyph-name="guilsinglleft" unicode="&#x2039;" d="M424 85 l-68 -44 l-180 212 l0 76 l180 212 l68 -43 l-132 -207 l132 -206 Z" /><glyph glyph-name="guilsinglright" unicode="&#x203a;" d="M308 291 l-132 207 l68 43 l180 -212 l0 -76 l-180 -212 l-68 44 l132 206 Z" /><glyph glyph-name="quotedblbase" unicode="&#x201e;" d="M111 62 q0 33 24.5 56.5 q24.5 23.5 58.5 23.5 q35 0 59 -23.5 q24 -23.5 24 -56.5 q0 -18 -5 -35 q-5 -17 -18 -45 l-78 -164 l-75 0 l42 181 q-32 24 -32 63 ZM333 62 q0 33 24.5 56.5 q24.5 23.5 58.5 23.5 q34 0 58 -23.5 q24 -23.5 24 -56.5 q0 -18 -5 -36 q-5 -18 -18 -44 l-78 -164 l-74 0 l42 181 q-32 24 -32 63 Z" /><glyph glyph-name="quotedblleft" unicode="&#x201c;" d="M266 545 q0 -33 -24.5 -56.5 q-24.5 -23.5 -58.5 -23.5 q-35 0 -58.5 23.5 q-23.5 23.5 -23.5 56.5 q0 16 5 34.5 q5 18.5 18 45.5 l77 164 l75 0 l-41 -181 q31 -23 31 -63 ZM489 545 q0 -33 -24.5 -56.5 q-24.5 -23.5 -58.5 -23.5 q-35 0 -58.5 23.5 q-23.5 23.5 -23.5 56.5 q0 17 4.5 35 q4.5 18 17.5 45 l78 164 l75 0 l-42 -181 q32 -24 32 -63 Z" /><glyph glyph-name="quotedblright" unicode="&#x201d;" d="M111 712 q0 33 24.5 56 q24.5 23 58.5 23 q35 0 58.5 -22.5 q23.5 -22.5 23.5 -56.5 q0 -17 -5 -34 q-5 -17 -19 -47 l-77 -163 l-75 0 l41 181 q-30 23 -30 63 ZM333 712 q0 33 24.5 56 q24.5 23 58.5 23 q35 0 59 -22.5 q24 -22.5 24 -56.5 q0 -18 -5 -35 q-5 -17 -19 -46 l-78 -163 l-74 0 l42 181 q-32 24 -32 63 Z" /><glyph glyph-name="quoteleft" unicode="&#x2018;" d="M377 545 q0 -33 -24.5 -56.5 q-24.5 -23.5 -58.5 -23.5 q-34 0 -58 23.5 q-24 23.5 -24 56.5 q0 16 5 34.5 q5 18.5 18 45.5 l78 164 l75 0 l-42 -181 q31 -23 31 -63 Z" /><glyph glyph-name="quoteright" unicode="&#x2019;" d="M222 709 q0 34 24 57 q24 23 59 23 q35 0 59 -23 q24 -23 24 -57 q0 -16 -5 -33.5 q-5 -17.5 -19 -46.5 l-78 -164 l-75 0 l42 182 q-15 10 -23 26 q-8 16 -8 36 Z" /><glyph glyph-name="quotesinglbase" unicode="&#x201a;" d="M222 62 q0 33 24.5 56.5 q24.5 23.5 58.5 23.5 q34 0 58.5 -23.5 q24.5 -23.5 24.5 -56.5 q0 -17 -5 -34 q-5 -17 -19 -46 l-78 -164 l-75 0 l42 181 q-31 23 -31 63 Z" /><glyph glyph-name="uni2007" unicode="&#x2007;" d="" /><glyph glyph-name="uni2008" unicode="&#x2008;" d="" /><glyph glyph-name="uni00A0" unicode=" " d="" /><glyph glyph-name="uni200B" unicode="&#x200b;" d="" /><glyph glyph-name="uniFEFF" unicode="&#xfeff;" d="" /><glyph glyph-name="cent" unicode="¢" d="M380 537 q70 -9 124 -55 l-52 -70 q-30 22 -55.5 31 q-25.5 9 -54.5 9 q-61 0 -94 -47 q-33 -47 -33 -144 q0 -182 127 -182 q29 0 54.5 9.5 q25.5 9.5 55.5 32.5 l52 -75 q-53 -45 -124 -54 l0 -148 l-89 0 l0 149 q-95 14 -145 84.5 q-50 70.5 -50 183.5 q0 111 51 185 q51 74 145 89 l0 151 l88 0 l0 -149 Z" /><glyph glyph-name="currency" unicode="¤" d="M179 524 q52 32 122 32 q70 0 120 -32 l85 86 l61 -61 l-84 -84 q35 -52 35 -123 q0 -70 -36 -124 l85 -84 l-61 -60 l-86 84 q-51 -31 -119 -31 q-69 0 -122 31 l-85 -86 l-61 61 l86 86 q-34 51 -34 123 q0 70 33 122 l-85 86 l61 61 l85 -87 ZM301 473 q-57 0 -87 -34.5 q-30 -34.5 -30 -96.5 q0 -63 30 -97 q30 -34 87 -34 q57 0 86.5 34 q29.5 34 29.5 97 q0 62 -29.5 96.5 q-29.5 34.5 -86.5 34.5 Z" /><glyph glyph-name="dollar" unicode="$" d="M347 702 q57 -6 105 -27.5 q48 -21.5 83 -52.5 l-60 -63 q-57 49 -128 57 l0 -207 q95 -31 147 -80.5 q52 -49.5 52 -133.5 q0 -79 -52 -135.5 q-52 -56.5 -147 -68.5 l0 -147 l-73 0 l0 144 q-67 4 -121.5 30 q-54.5 26 -93.5 64 l60 68 q72 -69 155 -74 l0 250 q-97 32 -143.5 79 q-46.5 47 -46.5 117 q0 70 50.5 120 q50.5 50 139.5 59 l0 150 l73 0 l0 -149 ZM274 615 q-38 -7 -59.5 -29 q-21.5 -22 -21.5 -57 q0 -32 17 -53.5 q17 -21.5 64 -41.5 l0 181 ZM347 79 q86 18 86 108 q0 38 -19 64.5 q-19 26.5 -67 48.5 l0 -221 Z" /><glyph glyph-name="uni20AF" unicode="&#x20af;" d="M344 690 l137 -389 l-362 0 l136 389 l89 0 ZM298 632 l-82 -268 l163 0 l-81 268 ZM304 264 q69 0 105.5 -44.5 q36.5 -44.5 36.5 -127.5 q0 -75 -33.5 -124.5 q-33.5 -49.5 -94.5 -49.5 q-46 0 -77 29 l0 -147 l-76 -8 l0 304 q0 82 35.5 125 q35.5 43 103.5 43 ZM299 -20 q35 0 50.5 27.5 q15.5 27.5 15.5 83.5 q0 60 -16 86.5 q-16 26.5 -47 26.5 q-35 0 -48 -27.5 q-13 -27.5 -13 -91.5 l0 -78 q23 -27 58 -27 Z" /><glyph glyph-name="Euro" unicode="&#x20ac;" d="M391 704 q53 0 90.5 -12 q37.5 -12 73.5 -36 l-48 -75 q-28 18 -54 26 q-26 8 -56 8 q-62 0 -100.5 -37.5 q-38.5 -37.5 -52.5 -119.5 l230 0 l-17 -68 l-222 0 l0 -84 l204 0 l-17 -69 l-181 0 q11 -84 47.5 -122.5 q36.5 -38.5 103.5 -38.5 q41 0 77 13.5 q36 13.5 63 34.5 l0 -101 q-67 -36 -147 -36 q-108 0 -173.5 64 q-65.5 64 -84.5 186 l-93 0 l17 69 l68 0 l1 84 l-86 0 l17 68 l78 0 q23 117 92.5 181.5 q69.5 64.5 169.5 64.5 Z" /><glyph glyph-name="florin" unicode="&#x192;" d="M372 753 q39 0 70 -7.5 q31 -7.5 65 -22.5 l-34 -77 q-44 20 -90 20 q-42 0 -59 -18 q-17 -18 -17 -57 l0 -63 l128 0 l-13 -83 l-115 0 l0 -397 q0 -80 -19.5 -129 q-19.5 -49 -56.5 -78.5 q-37 -29.5 -99 -55.5 l-40 81 q39 18 60.5 35.5 q21.5 17.5 32.5 48.5 q11 31 11 83 l0 412 l-84 0 l0 83 l84 0 l0 64 q0 71 46 116 q46 45 130 45 Z" /><glyph glyph-name="uni20BA" unicode="&#x20ba;" d="M562 156 q-36 -78 -98 -117 q-62 -39 -158 -39 l-174 0 l0 193 l-52 -24 l-28 60 l80 37 l0 73 l-51 -24 l-29 61 l80 37 l0 277 l116 0 l0 -223 l153 71 l28 -61 l-182 -84 l0 -73 l153 71 l29 -61 l-182 -84 l0 -149 l65 0 q64 0 104.5 24.5 q40.5 24.5 70.5 81.5 l75 -47 Z" /><glyph glyph-name="uni20BD" unicode="&#x20bd;" d="M237 183 l162 0 l0 -67 l-162 0 l0 -116 l-116 0 l0 116 l-70 0 l0 67 l70 0 l0 69 l-70 0 l0 80 l70 0 l0 358 l166 0 q132 0 204.5 -54.5 q72.5 -54.5 72.5 -161.5 q0 -112 -72.5 -167 q-72.5 -55 -196.5 -55 l-58 0 l0 -69 ZM237 332 l59 0 q70 0 108.5 32.5 q38.5 32.5 38.5 109.5 q0 130 -148 130 l-58 0 l0 -272 Z" /><glyph glyph-name="uni20B9" unicode="&#x20b9;" d="M534 622 l-155 0 q59 -27 78 -91 l77 0 l0 -67 l-70 0 q-4 -66 -40 -108 q-36 -42 -107 -66 l187 -290 l-134 0 l-164 271 l-120 0 l0 79 l113 0 q66 0 103 27 q37 27 42 87 l-258 0 l0 67 l253 0 q-11 43 -48 63 q-37 20 -99 20 l-79 0 l-2 5 l-25 0 l0 71 l448 0 l0 -68 Z" /><glyph glyph-name="sterling" unicode="£" d="M349 704 q123 0 189 -92 l-72 -54 q-23 30 -49.5 43.5 q-26.5 13.5 -61.5 13.5 q-99 0 -99 -111 l0 -111 l197 0 l0 -68 l-197 0 l0 -106 q0 -45 -13.5 -77 q-13.5 -32 -49.5 -52 l334 0 l-14 -90 l-451 0 l0 85 q37 12 55 30 q18 18 22.5 41 q4.5 23 4.5 63 l0 106 l-78 0 l0 68 l78 0 l0 117 q0 56 24.5 100 q24.5 44 71 69 q46.5 25 109.5 25 Z" /><glyph glyph-name="yen" unicode="¥" d="M573 690 l-188 -342 l112 0 l0 -67 l-139 0 l0 -80 l139 0 l0 -67 l-139 0 l0 -134 l-115 0 l0 134 l-137 0 l0 67 l137 0 l0 80 l-137 0 l0 67 l109 0 l-188 342 l123 0 l151 -304 l4 0 l151 304 l117 0 Z" /><glyph glyph-name="equivalence" unicode="&#x2261;" d="M507 556 l0 -92 l-414 0 l0 92 l414 0 ZM507 358 l0 -91 l-414 0 l0 91 l414 0 ZM507 161 l0 -92 l-414 0 l0 92 l414 0 Z" /><glyph glyph-name="integralbt" unicode="&#x2321;" d="M351 -58 q0 -78 -43.5 -118 q-43.5 -40 -117.5 -40 q-38 0 -66.5 7 q-28.5 7 -61.5 22 l34 78 q24 -11 43 -15 q19 -4 40 -4 q62 0 62 69 l0 1059 l110 0 l0 -1058 Z" /><glyph glyph-name="integraltp" unicode="&#x2320;" d="M404 855 q39 0 70 -7 q31 -7 64 -22 l-34 -78 q-44 20 -88 20 q-36 0 -50.5 -18.5 q-14.5 -18.5 -14.5 -56.5 l0 -1193 l-110 0 l0 1191 q0 80 41.5 122 q41.5 42 121.5 42 Z" /><glyph glyph-name="plus" unicode="+" d="M348 558 l0 -202 l199 0 l0 -89 l-199 0 l0 -202 l-98 0 l0 202 l-197 0 l0 89 l197 0 l0 202 l98 0 Z" /><glyph glyph-name="minus" unicode="&#x2212;" d="M497 359 l0 -93 l-394 0 l0 93 l394 0 Z" /><glyph glyph-name="multiply" unicode="×" d="M420 493 l65 -66 l-120 -120 l120 -120 l-65 -65 l-120 120 l-120 -120 l-65 65 l120 120 l-120 120 l65 66 l120 -121 l120 121 Z" /><glyph glyph-name="divide" unicode="÷" d="M300 593 q32 0 54 -22 q22 -22 22 -54 q0 -31 -22 -53 q-22 -22 -54 -22 q-32 0 -54 22 q-22 22 -22 53 q0 32 22 54 q22 22 54 22 ZM497 360 l0 -91 l-394 0 l0 91 l394 0 ZM300 187 q32 0 54 -22 q22 -22 22 -53 q0 -32 -22 -54 q-22 -22 -54 -22 q-32 0 -54 22 q-22 22 -22 54 q0 31 22 53 q22 22 54 22 Z" /><glyph glyph-name="equal" unicode="=" d="M507 456 l0 -92 l-414 0 l0 92 l414 0 ZM507 258 l0 -91 l-414 0 l0 91 l414 0 Z" /><glyph glyph-name="notequal" unicode="&#x2260;" d="M507 364 l-137 0 l-63 -106 l200 0 l0 -91 l-253 0 l-87 -147 l-60 35 l67 112 l-81 0 l0 91 l135 0 l63 106 l-198 0 l0 92 l253 0 l87 145 l58 -32 l-67 -113 l83 0 l0 -92 Z" /><glyph glyph-name="greater" unicode="&gt;" d="M133 601 l387 -239 l0 -97 l-384 -239 l-55 80 l342 207 l-342 205 l52 83 Z" /><glyph glyph-name="less" unicode="&lt;" d="M468 601 l52 -81 l-343 -207 l343 -206 l-55 -81 l-384 239 l0 97 l387 239 Z" /><glyph glyph-name="greaterequal" unicode="&#x2265;" d="M135 585 l369 -164 l0 -108 l-369 -158 l-40 86 l318 126 l-318 132 l40 86 ZM503 91 l0 -91 l-393 0 l0 91 l393 0 Z" /><glyph glyph-name="lessequal" unicode="&#x2264;" d="M464 585 l40 -84 l-318 -134 l318 -124 l-40 -88 l-369 158 l0 108 l369 164 ZM490 91 l0 -91 l-394 0 l0 91 l394 0 Z" /><glyph glyph-name="plusminus" unicode="±" d="M350 546 l0 -152 l147 0 l0 -90 l-147 0 l0 -137 l-100 0 l0 137 l-147 0 l0 90 l147 0 l0 152 l100 0 ZM497 91 l0 -91 l-394 0 l0 91 l394 0 Z" /><glyph glyph-name="approxequal" unicode="&#x2248;" d="M223 479 q32 0 54.5 -9 q22.5 -9 51.5 -26 q18 -11 29.5 -16.5 q11.5 -5.5 24.5 -5.5 q23 0 38 13 q15 13 29 39 l69 -37 q-52 -101 -142 -101 q-32 0 -54.5 9 q-22.5 9 -51.5 26 q-18 11 -29.5 16.5 q-11.5 5.5 -24.5 5.5 q-23 0 -38 -13 q-15 -13 -29 -39 l-69 36 q51 102 142 102 ZM223 290 q32 0 55.5 -9.5 q23.5 -9.5 50.5 -26.5 q18 -11 29.5 -16.5 q11.5 -5.5 24.5 -5.5 q23 0 38 13 q15 13 29 39 l69 -37 q-52 -101 -142 -101 q-32 0 -54.5 9 q-22.5 9 -51.5 26 q-18 11 -29.5 16.5 q-11.5 5.5 -24.5 5.5 q-23 0 -38 -13 q-15 -13 -29 -39 l-69 37 q52 102 142 102 Z" /><glyph glyph-name="asciitilde" unicode="~" d="M204 412 q37 0 63 -15 q26 -15 59 -44 q25 -22 40 -31.5 q15 -9.5 33 -9.5 q28 0 51 21 q23 21 44 61 l71 -34 q-32 -65 -70.5 -102 q-38.5 -37 -98.5 -37 q-35 0 -61 15 q-26 15 -58 43 q-24 21 -40.5 31.5 q-16.5 10.5 -35.5 10.5 q-29 0 -51 -21 q-22 -21 -44 -61 l-71 34 q32 64 70.5 101.5 q38.5 37.5 98.5 37.5 Z" /><glyph glyph-name="logicalnot" unicode="¬" d="M497 360 l0 -237 l-98 0 l0 146 l-296 0 l0 91 l394 0 Z" /><glyph glyph-name="infinity" unicode="&#x221e;" d="M451 514 q82 0 119 -54.5 q37 -54.5 37 -144.5 q0 -90 -37 -144 q-37 -54 -118 -54 q-52 0 -88.5 29 q-36.5 29 -64.5 88 q-27 -55 -62.5 -86 q-35.5 -31 -88.5 -31 q-81 0 -118.5 54.5 q-37.5 54.5 -37.5 144.5 q0 90 37 144 q37 54 118 54 q52 0 88 -29 q36 -29 65 -89 q28 56 63 87 q35 31 88 31 ZM157 433 q-66 0 -66 -117 q0 -117 66 -117 q35 0 56 32.5 q21 32.5 43 95.5 q-22 50 -42.5 78 q-20.5 28 -56.5 28 ZM442 432 q-34 0 -55.5 -33 q-21.5 -33 -43.5 -95 q22 -50 43 -78 q21 -28 56 -28 q66 0 66 117 q0 117 -66 117 Z" /><glyph glyph-name="intersection" unicode="&#x2229;" d="M300 591 q66 0 122 -32.5 q56 -32.5 88.5 -88.5 q32.5 -56 32.5 -122 l0 -321 l-91 0 l0 321 q0 41 -20.5 75.5 q-20.5 34.5 -55.5 55 q-35 20.5 -76 20.5 q-41 0 -76 -20.5 q-35 -20.5 -55.5 -55 q-20.5 -34.5 -20.5 -75.5 l0 -321 l-91 0 l0 321 q0 66 32.5 122 q32.5 56 88.5 88.5 q56 32.5 122 32.5 Z" /><glyph glyph-name="integral" unicode="&#x222b;" d="M404 855 q39 0 70 -7 q31 -7 64 -22 l-34 -78 q-44 20 -88 20 q-36 0 -50.5 -18.5 q-14.5 -18.5 -14.5 -56.5 l0 -751 q0 -78 -43.5 -118 q-43.5 -40 -117.5 -40 q-38 0 -66.5 7 q-28.5 7 -61.5 22 l34 78 q24 -11 43 -15 q19 -4 40 -4 q62 0 62 69 l0 750 q0 80 41.5 122 q41.5 42 121.5 42 Z" /><glyph glyph-name="product" unicode="&#x220f;" d="M573 690 l0 -89 l-76 0 l0 -804 l-108 -13 l0 817 l-176 0 l0 -804 l-109 -13 l0 817 l-77 0 l0 89 l546 0 Z" /><glyph glyph-name="summation" unicode="&#x2211;" d="M510 690 l0 -90 l-292 0 l185 -222 l0 -63 l-185 -225 l292 0 l0 -90 l-419 0 l0 89 l215 256 l-215 256 l0 89 l419 0 Z" /><glyph glyph-name="radical" unicode="&#x221a;" d="M706 869 l0 -90 l-186 0 l-217 -779 l-127 0 l-168 458 l101 32 l126 -381 l205 760 l266 0 Z" /><glyph glyph-name="uni00B5" unicode="µ" d="M499 176 q0 -82 22 -176 l-103 -13 q-6 14 -12 37.5 q-6 23.5 -8 44.5 q-24 -37 -59 -59.5 q-35 -22.5 -72 -22.5 q-36 0 -56.5 11 q-20.5 11 -41.5 39 q10 -35 15 -60 q5 -25 5 -51 l0 -129 l-109 -12 l0 743 l112 0 l0 -298 q0 -56 5 -87 q5 -31 21 -48 q16 -17 50 -17 q37 0 67 19 q30 19 52 51 l0 380 l112 0 l0 -352 Z" /><glyph glyph-name="partialdiff" unicode="&#x2202;" d="M156 713 q132 -32 212.5 -88 q80.5 -56 118 -144 q37.5 -88 37.5 -217 q0 -79 -27.5 -142 q-27.5 -63 -79 -99 q-51.5 -36 -121.5 -36 q-62 0 -112.5 27.5 q-50.5 27.5 -79.5 79 q-29 51.5 -29 121.5 q0 65 25 116.5 q25 51.5 68.5 80 q43.5 28.5 97.5 28.5 q87 0 142 -74 q-24 201 -277 267 l25 80 ZM289 354 q-44 0 -73 -35.5 q-29 -35.5 -29 -102.5 q0 -67 29 -106 q29 -39 79 -39 q56 0 85 47 q29 47 30 134 l0 28 q-29 39 -57 56.5 q-28 17.5 -64 17.5 Z" /><glyph glyph-name="percent" unicode="%" d="M475 710 l65 -35 l-424 -698 l-64 35 l423 698 ZM159 704 q67 0 106 -45 q39 -45 39 -114 q0 -69 -39 -114.5 q-39 -45.5 -106 -45.5 q-67 0 -106.5 45.5 q-39.5 45.5 -39.5 114.5 q0 68 39.5 113.5 q39.5 45.5 106.5 45.5 ZM159 637 q-29 0 -44 -23.5 q-15 -23.5 -15 -68.5 q0 -44 15.5 -69 q15.5 -25 43.5 -25 q28 0 43 23.5 q15 23.5 15 70.5 q0 92 -58 92 ZM443 313 q67 0 106 -45 q39 -45 39 -114 q0 -69 -39 -114.5 q-39 -45.5 -106 -45.5 q-67 0 -106.5 45.5 q-39.5 45.5 -39.5 114.5 q0 68 39.5 113.5 q39.5 45.5 106.5 45.5 ZM443 246 q-59 0 -59 -92 q0 -45 15.5 -69.5 q15.5 -24.5 43.5 -24.5 q58 0 58 94 q0 92 -58 92 Z" /><glyph glyph-name="perthousand" unicode="&#x2030;" d="M175 704 q58 0 94 -38 q36 -38 36 -100 q0 -64 -36 -101 q-36 -37 -94 -37 q-59 0 -96 37 q-37 37 -37 101 q0 62 37 100 q37 38 96 38 ZM175 643 q-30 0 -41 -20 q-11 -20 -11 -57 q0 -37 11 -58.5 q11 -21.5 41 -21.5 q30 0 40.5 21 q10.5 21 10.5 59 q0 36 -10.5 56.5 q-10.5 20.5 -40.5 20.5 ZM557 526 l24 -61 l-540 -199 l-24 62 l540 198 ZM174 264 q58 0 94.5 -37.5 q36.5 -37.5 36.5 -99.5 q0 -64 -36 -101 q-36 -37 -95 -37 q-59 0 -95.5 37 q-36.5 37 -36.5 101 q0 61 36.5 99 q36.5 38 95.5 38 ZM454 264 q58 0 94.5 -37.5 q36.5 -37.5 36.5 -99.5 q0 -64 -36 -101 q-36 -37 -95 -37 q-59 0 -95.5 37 q-36.5 37 -36.5 101 q0 61 36.5 99 q36.5 38 95.5 38 ZM174 204 q-30 0 -41 -20.5 q-11 -20.5 -11 -56.5 q0 -36 11 -58 q11 -22 41 -22 q31 0 41 21 q10 21 10 59 q0 37 -10 57 q-10 20 -41 20 ZM454 204 q-30 0 -41 -20.5 q-11 -20.5 -11 -56.5 q0 -37 11 -58.5 q11 -21.5 41 -21.5 q30 0 41 21.5 q11 21.5 11 58.5 q0 36 -11 56.5 q-11 20.5 -41 20.5 Z" /><glyph glyph-name="revlogicalnot" unicode="&#x2310;" d="M497 360 l0 -91 l-296 0 l0 -146 l-98 0 l0 237 l394 0 Z" /><glyph glyph-name="arrowup" unicode="&#x2191;" d="M614 390 l-66 -72 l-126 118 q-25 23 -40 41 q-15 18 -28 42 l0 -519 l-108 0 l0 519 q-12 -23 -27.5 -41.5 q-15.5 -18.5 -39.5 -41.5 l-127 -118 l-66 72 l314 286 l314 -286 Z" /><glyph glyph-name="uni2197" unicode="&#x2197;" d="M28 137 l370 368 q-47 -9 -78 -9 l-28 1 l-177 9 l6 97 l429 -22 l22 -434 l-104 -6 l-10 177 q-1 9 -1 26 q0 41 12 87 l-368 -367 l-73 73 Z" /><glyph glyph-name="arrowright" unicode="&#x2192;" d="M586 329 l-283 -317 l-78 67 l115 126 q43 48 85 77 l-411 0 l0 94 l412 0 q-24 16 -41.5 31.5 q-17.5 15.5 -44.5 45.5 l-115 126 l78 67 l283 -317 Z" /><glyph glyph-name="uni2198" unicode="&#x2198;" d="M469 204 q-12 47 -12 87 q0 17 1 26 l10 178 l104 -6 l-22 -434 l-429 -22 l-6 96 l177 10 l28 1 q32 0 78 -9 l-370 368 l73 73 l368 -368 Z" /><glyph glyph-name="arrowdown" unicode="&#x2193;" d="M354 125 q13 24 28 42 q15 18 40 41 l126 118 l66 -72 l-314 -286 l-314 286 l66 72 l127 -119 q24 -22 39.5 -40 q15.5 -18 27.5 -42 l0 519 l108 0 l0 -519 Z" /><glyph glyph-name="uni2199" unicode="&#x2199;" d="M572 499 l-370 -368 q47 9 78 9 l28 -1 l177 -10 l-6 -96 l-429 22 l-22 434 l104 6 l10 -178 q1 -9 1 -26 q0 -40 -12 -87 l368 368 l73 -73 Z" /><glyph glyph-name="arrowleft" unicode="&#x2190;" d="M375 579 l-115 -126 q-27 -30 -44.5 -45.5 q-17.5 -15.5 -41.5 -31.5 l412 0 l0 -94 l-411 0 q42 -29 85 -77 l115 -126 l-78 -67 l-283 317 l283 317 l78 -67 Z" /><glyph glyph-name="uni2196" unicode="&#x2196;" d="M131 431 q12 -46 12 -87 q0 -17 -1 -26 l-10 -177 l-104 6 l22 434 l429 22 l6 -97 l-177 -9 l-28 -1 q-31 0 -78 9 l370 -368 l-73 -73 l-368 367 Z" /><glyph glyph-name="arrowboth" unicode="&#x2194;" d="M434 36 l-79 66 l93 103 q41 47 85 77 l-466 0 q40 -27 85 -77 l95 -103 l-78 -66 l-263 293 l262 292 l78 -67 l-94 -101 q-28 -31 -44.5 -46.5 q-16.5 -15.5 -40.5 -30.5 l466 0 q-24 15 -40.5 30.5 q-16.5 15.5 -44.5 46.5 l-92 101 l78 67 l260 -292 l-260 -293 Z" /><glyph glyph-name="arrowupdn" unicode="&#x2195;" d="M614 589 l-66 -72 l-126 118 q-25 23 -40 41 q-15 18 -28 42 l0 -763 q13 24 28 42 q15 18 40 42 l126 117 l66 -71 l-314 -286 l-314 286 l66 71 l127 -118 q25 -23 40 -41 q15 -18 27 -41 l0 762 q-12 -23 -27.5 -41.5 q-15.5 -18.5 -39.5 -41.5 l-127 -118 l-66 72 l314 286 l314 -286 Z" /><glyph glyph-name="uni21E7" unicode="&#x21e7;" d="M600 534 l-169 0 l0 -496 q0 -22 -13.5 -36 q-13.5 -14 -36.5 -14 l-162 0 q-22 0 -36 14 q-14 14 -14 36 l0 496 l-169 0 l300 298 l300 -298 ZM300 768 l-191 -189 l107 0 l0 -547 l168 0 l0 547 l107 0 l-191 189 Z" /><glyph glyph-name="uni21E8" unicode="&#x21e8;" d="M640 313 l-298 -300 l0 176 l-332 0 q-23 0 -36.5 14 q-13.5 14 -13.5 36 l0 148 q0 23 13.5 36.5 q13.5 13.5 36.5 13.5 l332 0 l0 176 l298 -300 ZM387 504 l0 -111 l-383 0 l0 -160 l383 0 l0 -111 l189 191 l-189 191 Z" /><glyph glyph-name="uni21E9" unicode="&#x21e9;" d="M381 750 q23 0 36.5 -13.5 q13.5 -13.5 13.5 -36.5 l0 -496 l169 0 l-300 -298 l-300 298 l169 0 l0 496 q0 23 14 36.5 q14 13.5 36 13.5 l162 0 ZM384 706 l-168 0 l0 -547 l-107 0 l191 -189 l191 189 l-107 0 l0 547 Z" /><glyph glyph-name="uni21E6" unicode="&#x21e6;" d="M258 437 l332 0 q23 0 36.5 -13.5 q13.5 -13.5 13.5 -36.5 l0 -148 q0 -22 -13.5 -36 q-13.5 -14 -36.5 -14 l-332 0 l0 -176 l-298 300 l298 300 l0 -176 ZM213 504 l-189 -191 l189 -191 l0 111 l383 0 l0 160 l-383 0 l0 111 Z" /><glyph glyph-name="uni2B06" unicode="&#x2b06;" d="M600 534 l-169 0 l0 -496 q0 -22 -13.5 -36 q-13.5 -14 -36.5 -14 l-162 0 q-22 0 -36 14 q-14 14 -14 36 l0 496 l-169 0 l300 298 l300 -298 Z" /><glyph glyph-name="uni2B07" unicode="&#x2b07;" d="M381 750 q23 0 36.5 -13.5 q13.5 -13.5 13.5 -36.5 l0 -496 l169 0 l-300 -298 l-300 298 l169 0 l0 496 q0 23 14 36.5 q14 13.5 36 13.5 l162 0 Z" /><glyph glyph-name="uni2B05" unicode="&#x2b05;" d="M258 437 l332 0 q23 0 36.5 -13.5 q13.5 -13.5 13.5 -36.5 l0 -148 q0 -22 -13.5 -36 q-13.5 -14 -36.5 -14 l-332 0 l0 -176 l-298 300 l298 300 l0 -176 Z" /><glyph glyph-name="uni27A1" unicode="&#x27a1;" d="M640 313 l-298 -300 l0 176 l-332 0 q-23 0 -36.5 14 q-13.5 14 -13.5 36 l0 148 q0 23 13.5 36.5 q13.5 13.5 36.5 13.5 l332 0 l0 176 l298 -300 Z" /><glyph glyph-name="uni2581" unicode="&#x2581;" d="M600 -312 l0 -188 l-600 0 l0 188 l600 0 Z" /><glyph glyph-name="uni2582" unicode="&#x2582;" d="M600 -125 l0 -375 l-600 0 l0 375 l600 0 Z" /><glyph glyph-name="uni2583" unicode="&#x2583;" d="M600 62 l0 -562 l-600 0 l0 562 l600 0 Z" /><glyph glyph-name="dnblock" unicode="&#x2584;" d="M600 250 l0 -750 l-600 0 l0 750 l600 0 Z" /><glyph glyph-name="uni2585" unicode="&#x2585;" d="M600 437 l0 -937 l-600 0 l0 937 l600 0 Z" /><glyph glyph-name="uni2586" unicode="&#x2586;" d="M600 625 l0 -1125 l-600 0 l0 1125 l600 0 Z" /><glyph glyph-name="uni2587" unicode="&#x2587;" d="M600 812 l0 -1312 l-600 0 l0 1312 l600 0 Z" /><glyph glyph-name="block" unicode="&#x2588;" d="M600 1000 l0 -1500 l-600 0 l0 1500 l600 0 Z" /><glyph glyph-name="upblock" unicode="&#x2580;" d="M600 1000 l0 -750 l-600 0 l0 750 l600 0 Z" /><glyph glyph-name="uni2594" unicode="&#x2594;" d="M600 1000 l0 -188 l-600 0 l0 188 l600 0 Z" /><glyph glyph-name="uni258F" unicode="&#x258f;" d="M75 1000 l0 -1500 l-75 0 l0 1500 l75 0 Z" /><glyph glyph-name="uni258E" unicode="&#x258e;" d="M150 1000 l0 -1500 l-150 0 l0 1500 l150 0 Z" /><glyph glyph-name="uni258D" unicode="&#x258d;" d="M225 1000 l0 -1500 l-225 0 l0 1500 l225 0 Z" /><glyph glyph-name="lfblock" unicode="&#x258c;" d="M300 1000 l0 -1500 l-300 0 l0 1500 l300 0 Z" /><glyph glyph-name="uni258B" unicode="&#x258b;" d="M375 1000 l0 -1500 l-375 0 l0 1500 l375 0 Z" /><glyph glyph-name="uni258A" unicode="&#x258a;" d="M450 1000 l0 -1500 l-450 0 l0 1500 l450 0 Z" /><glyph glyph-name="uni2589" unicode="&#x2589;" d="M525 1000 l0 -1500 l-525 0 l0 1500 l525 0 Z" /><glyph glyph-name="rtblock" unicode="&#x2590;" d="M600 1000 l0 -1500 l-300 0 l0 1500 l300 0 Z" /><glyph glyph-name="uni2595" unicode="&#x2595;" d="M600 1000 l0 -1500 l-75 0 l0 1500 l75 0 Z" /><glyph glyph-name="uni2596" unicode="&#x2596;" d="M300 250 l0 -750 l-300 0 l0 750 l300 0 Z" /><glyph glyph-name="uni2597" unicode="&#x2597;" d="M600 250 l0 -750 l-300 0 l0 750 l300 0 Z" /><glyph glyph-name="uni2598" unicode="&#x2598;" d="M300 1000 l0 -750 l-300 0 l0 750 l300 0 Z" /><glyph glyph-name="uni2599" unicode="&#x2599;" d="M300 1000 l0 -750 l300 0 l0 -750 l-600 0 l0 1500 l300 0 Z" /><glyph glyph-name="uni259A" unicode="&#x259a;" d="M300 1000 l0 -749 l300 0 l0 -751 l-300 0 l0 750 l-300 0 l0 750 l300 0 Z" /><glyph glyph-name="uni259B" unicode="&#x259b;" d="M600 1000 l0 -750 l-300 0 l0 -750 l-300 0 l0 1500 l600 0 Z" /><glyph glyph-name="uni259C" unicode="&#x259c;" d="M600 1000 l0 -1500 l-300 0 l0 750 l-300 0 l0 750 l600 0 Z" /><glyph glyph-name="uni259D" unicode="&#x259d;" d="M600 1000 l0 -750 l-300 0 l0 750 l300 0 Z" /><glyph glyph-name="uni259E" unicode="&#x259e;" d="M600 1000 l0 -749 l-300 0 l0 749 l300 0 ZM300 250 l0 -750 l-300 0 l0 750 l300 0 Z" /><glyph glyph-name="uni259F" unicode="&#x259f;" d="M600 1000 l0 -1500 l-600 0 l0 750 l300 0 l0 750 l300 0 Z" /><glyph glyph-name="ltshade" unicode="&#x2591;" d="M100 925 l0 -75 l-50 0 l0 75 l50 0 ZM200 925 l0 -75 l-50 0 l0 75 l50 0 ZM300 925 l0 -75 l-50 0 l0 75 l50 0 ZM400 925 l0 -75 l-50 0 l0 75 l50 0 ZM500 925 l0 -75 l-50 0 l0 75 l50 0 ZM600 925 l0 -75 l-50 0 l0 75 l50 0 ZM100 775 l0 -75 l-50 0 l0 75 l50 0 ZM200 775 l0 -75 l-50 0 l0 75 l50 0 ZM300 775 l0 -75 l-50 0 l0 75 l50 0 ZM400 775 l0 -75 l-50 0 l0 75 l50 0 ZM500 775 l0 -75 l-50 0 l0 75 l50 0 ZM600 775 l0 -75 l-50 0 l0 75 l50 0 ZM100 625 l0 -75 l-50 0 l0 75 l50 0 ZM200 625 l0 -75 l-50 0 l0 75 l50 0 ZM300 625 l0 -75 l-50 0 l0 75 l50 0 ZM400 625 l0 -75 l-50 0 l0 75 l50 0 ZM500 625 l0 -75 l-50 0 l0 75 l50 0 ZM600 625 l0 -75 l-50 0 l0 75 l50 0 ZM100 475 l0 -75 l-50 0 l0 75 l50 0 ZM200 475 l0 -75 l-50 0 l0 75 l50 0 ZM300 475 l0 -75 l-50 0 l0 75 l50 0 ZM400 475 l0 -75 l-50 0 l0 75 l50 0 ZM500 475 l0 -75 l-50 0 l0 75 l50 0 ZM600 475 l0 -75 l-50 0 l0 75 l50 0 ZM100 325 l0 -75 l-50 0 l0 75 l50 0 ZM200 325 l0 -75 l-50 0 l0 75 l50 0 ZM300 325 l0 -75 l-50 0 l0 75 l50 0 ZM400 325 l0 -75 l-50 0 l0 75 l50 0 ZM500 325 l0 -75 l-50 0 l0 75 l50 0 ZM600 325 l0 -75 l-50 0 l0 75 l50 0 ZM100 175 l0 -75 l-50 0 l0 75 l50 0 ZM200 175 l0 -75 l-50 0 l0 75 l50 0 ZM300 175 l0 -75 l-50 0 l0 75 l50 0 ZM400 175 l0 -75 l-50 0 l0 75 l50 0 ZM500 175 l0 -75 l-50 0 l0 75 l50 0 ZM600 175 l0 -75 l-50 0 l0 75 l50 0 ZM100 25 l0 -75 l-50 0 l0 75 l50 0 ZM200 25 l0 -75 l-50 0 l0 75 l50 0 ZM300 25 l0 -75 l-50 0 l0 75 l50 0 ZM400 25 l0 -75 l-50 0 l0 75 l50 0 ZM500 25 l0 -75 l-50 0 l0 75 l50 0 ZM600 25 l0 -75 l-50 0 l0 75 l50 0 ZM100 -125 l0 -75 l-50 0 l0 75 l50 0 ZM200 -125 l0 -75 l-50 0 l0 75 l50 0 ZM300 -125 l0 -75 l-50 0 l0 75 l50 0 ZM400 -125 l0 -75 l-50 0 l0 75 l50 0 ZM500 -125 l0 -75 l-50 0 l0 75 l50 0 ZM600 -125 l0 -75 l-50 0 l0 75 l50 0 ZM100 -275 l0 -75 l-50 0 l0 75 l50 0 ZM200 -275 l0 -75 l-50 0 l0 75 l50 0 ZM300 -275 l0 -75 l-50 0 l0 75 l50 0 ZM400 -275 l0 -75 l-50 0 l0 75 l50 0 ZM500 -275 l0 -75 l-50 0 l0 75 l50 0 ZM600 -275 l0 -75 l-50 0 l0 75 l50 0 ZM100 -425 l0 -75 l-50 0 l0 75 l50 0 ZM200 -425 l0 -75 l-50 0 l0 75 l50 0 ZM300 -425 l0 -75 l-50 0 l0 75 l50 0 ZM400 -425 l0 -75 l-50 0 l0 75 l50 0 ZM500 -425 l0 -75 l-50 0 l0 75 l50 0 ZM600 -425 l0 -75 l-50 0 l0 75 l50 0 Z" /><glyph glyph-name="shade" unicode="&#x2592;" d="M550 1000 l0 -74 l50 0 l0 -76 l-50 0 l0 -74 l50 0 l0 -76 l-50 0 l0 -74 l50 0 l0 -76 l-50 0 l0 -74 l50 0 l0 -76 l-50 0 l0 -74 l50 0 l0 -76 l-50 0 l0 -74 l50 0 l0 -76 l-50 0 l0 -74 l50 0 l0 -76 l-50 0 l0 -74 l50 0 l0 -76 l-50 0 l0 -74 l50 0 l0 -76 l-50 0 l0 -74 l50 0 l0 -76 l-51 0 l0 75 l-49 0 l0 -75 l-51 0 l0 75 l-49 0 l0 -75 l-51 0 l0 75 l-49 0 l0 -75 l-51 0 l0 75 l-49 0 l0 -75 l-51 0 l0 75 l-49 0 l0 -75 l-51 0 l0 75 l-49 0 l0 76 l49 0 l0 74 l-49 0 l0 76 l49 0 l0 74 l-49 0 l0 76 l49 0 l0 74 l-49 0 l0 76 l49 0 l0 74 l-49 0 l0 76 l49 0 l0 74 l-49 0 l0 76 l49 0 l0 74 l-49 0 l0 76 l49 0 l0 74 l-49 0 l0 76 l49 0 l0 74 l-49 0 l0 76 l49 0 l0 74 l-49 0 l0 75 l50 0 l0 -74 l49 0 l0 74 l51 0 l0 -74 l49 0 l0 74 l51 0 l0 -74 l49 0 l0 74 l51 0 l0 -74 l49 0 l0 74 l51 0 l0 -74 l49 0 l0 74 l51 0 ZM149 925 l-49 0 l0 -74 l49 0 l0 74 ZM249 925 l-49 0 l0 -74 l49 0 l0 74 ZM350 925 l-50 0 l0 -74 l50 0 l0 74 ZM449 925 l-49 0 l0 -74 l49 0 l0 74 ZM549 925 l-49 0 l0 -74 l49 0 l0 74 ZM299 851 l-49 -1 l0 -74 l49 0 l0 75 ZM99 850 l-49 0 l0 -74 l49 0 l0 74 ZM199 850 l-49 0 l0 -74 l49 0 l0 74 ZM399 850 l-49 0 l0 -74 l49 0 l0 74 ZM499 850 l-49 0 l0 -74 l49 0 l0 74 ZM349 776 l-49 -1 l0 -74 l49 0 l0 75 ZM150 775 l-50 0 l0 -74 l50 0 l0 74 ZM249 775 l-49 0 l0 -74 l49 0 l0 74 ZM449 775 l-49 0 l0 -74 l49 0 l0 74 ZM549 775 l-49 0 l0 -74 l49 0 l0 74 ZM99 701 l-49 -1 l0 -74 l49 0 l0 75 ZM199 701 l-49 -1 l0 -74 l49 0 l0 75 ZM300 700 l-50 0 l0 -74 l50 0 l0 74 ZM399 700 l-49 0 l0 -74 l49 0 l0 74 ZM499 700 l-49 0 l0 -74 l49 0 l0 74 ZM149 625 l-49 0 l0 -74 l49 0 l0 74 ZM249 625 l-49 0 l0 -74 l49 0 l0 74 ZM349 625 l-49 0 l0 -74 l49 0 l0 74 ZM449 625 l-49 0 l0 -74 l49 0 l0 74 ZM549 625 l-49 0 l0 -74 l49 0 l0 74 ZM199 551 l-49 -1 l0 -74 l49 0 l0 75 ZM99 550 l-49 0 l0 -74 l49 0 l0 74 ZM299 550 l-49 0 l0 -74 l49 0 l0 74 ZM399 550 l-49 0 l0 -74 l49 0 l0 74 ZM499 550 l-49 0 l0 -74 l49 0 l0 74 ZM149 475 l-49 0 l0 -74 l49 0 l0 74 ZM249 475 l-49 0 l0 -74 l49 0 l0 74 ZM349 475 l-49 0 l0 -74 l49 0 l0 74 ZM449 475 l-49 0 l0 -74 l49 0 l0 74 ZM549 475 l-49 0 l0 -74 l49 0 l0 74 ZM99 400 l-49 0 l0 -74 l49 0 l0 74 ZM199 400 l-49 0 l0 -74 l49 0 l0 74 ZM299 400 l-49 0 l0 -74 l49 0 l0 74 ZM399 400 l-49 0 l0 -74 l49 0 l0 74 ZM499 400 l-49 0 l0 -74 l49 0 l0 74 ZM149 325 l-49 0 l0 -74 l49 0 l0 74 ZM249 325 l-49 0 l0 -74 l49 0 l0 74 ZM349 325 l-49 0 l0 -74 l49 0 l0 74 ZM449 325 l-49 0 l0 -74 l49 0 l0 74 ZM549 325 l-49 0 l0 -74 l49 0 l0 74 ZM99 250 l-49 0 l0 -74 l49 0 l0 74 ZM199 250 l-49 0 l0 -74 l49 0 l0 74 ZM299 250 l-49 0 l0 -74 l49 0 l0 74 ZM399 250 l-49 0 l0 -74 l49 0 l0 74 ZM499 250 l-49 0 l0 -74 l49 0 l0 74 ZM149 175 l-49 0 l0 -74 l49 0 l0 74 ZM249 175 l-49 0 l0 -74 l49 0 l0 74 ZM349 175 l-49 0 l0 -74 l49 0 l0 74 ZM449 175 l-49 0 l0 -74 l49 0 l0 74 ZM549 175 l-49 0 l0 -74 l49 0 l0 74 ZM99 100 l-49 0 l0 -74 l49 0 l0 74 ZM199 100 l-49 0 l0 -74 l49 0 l0 74 ZM299 100 l-49 0 l0 -74 l49 0 l0 74 ZM399 100 l-49 0 l0 -74 l49 0 l0 74 ZM499 100 l-49 0 l0 -74 l49 0 l0 74 ZM149 25 l-49 0 l0 -74 l49 0 l0 74 ZM249 25 l-49 0 l0 -74 l49 0 l0 74 ZM349 25 l-49 0 l0 -74 l49 0 l0 74 ZM449 25 l-49 0 l0 -74 l49 0 l0 74 ZM549 25 l-49 0 l0 -74 l49 0 l0 74 ZM99 -50 l-49 0 l0 -74 l49 0 l0 74 ZM200 -50 l-50 0 l0 -74 l50 0 l0 74 ZM299 -50 l-49 0 l0 -74 l49 0 l0 74 ZM399 -50 l-49 0 l0 -74 l49 0 l0 74 ZM499 -50 l-49 0 l0 -74 l49 0 l0 74 ZM449 -124 l-49 -1 l0 -74 l49 0 l0 75 ZM149 -125 l-49 0 l0 -74 l49 0 l0 74 ZM249 -125 l-49 0 l0 -74 l49 0 l0 74 ZM349 -125 l-49 0 l0 -74 l49 0 l0 74 ZM549 -125 l-49 0 l0 -74 l49 0 l0 74 ZM199 -199 l-49 -1 l0 -74 l49 0 l0 75 ZM399 -199 l-49 -1 l0 -74 l49 0 l0 75 ZM99 -200 l-49 0 l0 -74 l49 0 l0 74 ZM299 -200 l-49 0 l0 -74 l49 0 l0 74 ZM499 -200 l-49 0 l0 -74 l49 0 l0 74 ZM149 -275 l-49 0 l0 -74 l49 0 l0 74 ZM249 -275 l-49 0 l0 -74 l49 0 l0 74 ZM350 -275 l-50 0 l0 -74 l50 0 l0 74 ZM449 -275 l-49 0 l0 -74 l49 0 l0 74 ZM549 -275 l-49 0 l0 -74 l49 0 l0 74 ZM199 -349 l-49 -1 l0 -74 l49 0 l0 75 ZM399 -349 l-49 -1 l0 -74 l49 0 l0 75 ZM99 -350 l-49 0 l0 -74 l49 0 l0 74 ZM299 -350 l-49 0 l0 -74 l49 0 l0 74 ZM499 -350 l-49 0 l0 -74 l49 0 l0 74 Z" /><glyph glyph-name="dkshade" unicode="&#x2593;" d="M600 1000 l0 -75 l-50 0 l0 -75 l50 0 l0 -75 l-50 0 l0 -75 l50 0 l0 -75 l-50 0 l0 -75 l50 0 l0 -75 l-50 0 l0 -75 l50 0 l0 -75 l-50 0 l0 -75 l50 0 l0 -75 l-50 0 l0 -75 l50 0 l0 -75 l-50 0 l0 -75 l50 0 l0 -75 l-50 0 l0 -75 l50 0 l0 -75 l-50 0 l0 -75 l50 0 l0 -75 l-50 0 l0 -75 l-50 0 l0 75 l-50 0 l0 -75 l-50 0 l0 75 l-50 0 l0 -75 l-50 0 l0 75 l-50 0 l0 -75 l-50 0 l0 75 l-50 0 l0 -75 l-50 0 l0 75 l-50 0 l0 -75 l-50 0 l0 1500 l600 0 ZM100 925 l-50 0 l0 -75 l50 0 l0 75 ZM200 925 l-50 0 l0 -75 l50 0 l0 75 ZM300 925 l-50 0 l0 -75 l50 0 l0 75 ZM400 925 l-50 0 l0 -75 l50 0 l0 75 ZM500 925 l-50 0 l0 -75 l50 0 l0 75 ZM100 775 l-50 0 l0 -75 l50 0 l0 75 ZM200 775 l-50 0 l0 -75 l50 0 l0 75 ZM300 775 l-50 0 l0 -75 l50 0 l0 75 ZM400 775 l-50 0 l0 -75 l50 0 l0 75 ZM500 775 l-50 0 l0 -75 l50 0 l0 75 ZM100 625 l-50 0 l0 -75 l50 0 l0 75 ZM200 625 l-50 0 l0 -75 l50 0 l0 75 ZM300 625 l-50 0 l0 -75 l50 0 l0 75 ZM400 625 l-50 0 l0 -75 l50 0 l0 75 ZM500 625 l-50 0 l0 -75 l50 0 l0 75 ZM100 475 l-50 0 l0 -75 l50 0 l0 75 ZM200 475 l-50 0 l0 -75 l50 0 l0 75 ZM300 475 l-50 0 l0 -75 l50 0 l0 75 ZM400 475 l-50 0 l0 -75 l50 0 l0 75 ZM500 475 l-50 0 l0 -75 l50 0 l0 75 ZM100 325 l-50 0 l0 -75 l50 0 l0 75 ZM200 325 l-50 0 l0 -75 l50 0 l0 75 ZM300 325 l-50 0 l0 -75 l50 0 l0 75 ZM400 325 l-50 0 l0 -75 l50 0 l0 75 ZM500 325 l-50 0 l0 -75 l50 0 l0 75 ZM100 175 l-50 0 l0 -75 l50 0 l0 75 ZM200 175 l-50 0 l0 -75 l50 0 l0 75 ZM300 175 l-50 0 l0 -75 l50 0 l0 75 ZM400 175 l-50 0 l0 -75 l50 0 l0 75 ZM500 175 l-50 0 l0 -75 l50 0 l0 75 ZM100 25 l-50 0 l0 -75 l50 0 l0 75 ZM200 25 l-50 0 l0 -75 l50 0 l0 75 ZM300 25 l-50 0 l0 -75 l50 0 l0 75 ZM400 25 l-50 0 l0 -75 l50 0 l0 75 ZM500 25 l-50 0 l0 -75 l50 0 l0 75 ZM100 -125 l-50 0 l0 -75 l50 0 l0 75 ZM200 -125 l-50 0 l0 -75 l50 0 l0 75 ZM300 -125 l-50 0 l0 -75 l50 0 l0 75 ZM400 -125 l-50 0 l0 -75 l50 0 l0 75 ZM500 -125 l-50 0 l0 -75 l50 0 l0 75 ZM100 -275 l-50 0 l0 -75 l50 0 l0 75 ZM200 -275 l-50 0 l0 -75 l50 0 l0 75 ZM300 -275 l-50 0 l0 -75 l50 0 l0 75 ZM400 -275 l-50 0 l0 -75 l50 0 l0 75 ZM500 -275 l-50 0 l0 -75 l50 0 l0 75 Z" /><glyph glyph-name="uni25CF" unicode="&#x25cf;" d="M300 540 q73 0 135 -36.5 q62 -36.5 98.5 -98.5 q36.5 -62 36.5 -135 q0 -74 -36.5 -136 q-36.5 -62 -98.5 -98 q-62 -36 -135 -36 q-74 0 -136 36 q-62 36 -98 98 q-36 62 -36 136 q0 73 36 135 q36 62 98 98.5 q62 36.5 136 36.5 Z" /><glyph glyph-name="circle" unicode="&#x25cb;" d="M300 540 q73 0 135 -36.5 q62 -36.5 98.5 -98.5 q36.5 -62 36.5 -135 q0 -74 -36.5 -136 q-36.5 -62 -98.5 -98 q-62 -36 -135 -36 q-74 0 -136 36 q-62 36 -98 98 q-36 62 -36 136 q0 73 36 135 q36 62 98 98.5 q62 36.5 136 36.5 ZM300 460 q-52 0 -95.5 -25.5 q-43.5 -25.5 -69 -69.5 q-25.5 -44 -25.5 -95 q0 -52 25.5 -95.5 q25.5 -43.5 69 -69 q43.5 -25.5 95.5 -25.5 q51 0 95 25.5 q44 25.5 69.5 69 q25.5 43.5 25.5 95.5 q0 51 -26 94.5 q-26 43.5 -69.5 69.5 q-43.5 26 -94.5 26 Z" /><glyph glyph-name="uni25EF" unicode="&#x25ef;" d="M300 540 q73 0 135 -36.5 q62 -36.5 98.5 -98.5 q36.5 -62 36.5 -135 q0 -74 -36.5 -136 q-36.5 -62 -98.5 -98 q-62 -36 -135 -36 q-74 0 -136 36 q-62 36 -98 98 q-36 62 -36 136 q0 73 36 135 q36 62 98 98.5 q62 36.5 136 36.5 ZM300 460 q-52 0 -95.5 -25.5 q-43.5 -25.5 -69 -69.5 q-25.5 -44 -25.5 -95 q0 -52 25.5 -95.5 q25.5 -43.5 69 -69 q43.5 -25.5 95.5 -25.5 q51 0 95 25.5 q44 25.5 69.5 69 q25.5 43.5 25.5 95.5 q0 51 -26 94.5 q-26 43.5 -69.5 69.5 q-43.5 26 -94.5 26 Z" /><glyph glyph-name="uni25D0" unicode="&#x25d0;" d="M300 540 q73 0 135 -36.5 q62 -36.5 98.5 -98.5 q36.5 -62 36.5 -135 q0 -74 -36.5 -136 q-36.5 -62 -98.5 -98 q-62 -36 -135 -36 q-74 0 -136 36 q-62 36 -98 98 q-36 62 -36 136 q0 73 36 135 q36 62 98 98.5 q62 36.5 136 36.5 ZM300 80 q51 0 95 25.5 q44 25.5 69.5 69 q25.5 43.5 25.5 95.5 q0 51 -26 94.5 q-26 43.5 -69.5 69.5 q-43.5 26 -94.5 26 l0 -380 Z" /><glyph glyph-name="uni25D1" unicode="&#x25d1;" d="M300 540 q73 0 135 -36.5 q62 -36.5 98.5 -98.5 q36.5 -62 36.5 -135 q0 -72 -34.5 -133 q-34.5 -61 -94 -97.5 q-59.5 -36.5 -130.5 -39.5 l-11 0 q-74 0 -136 36 q-62 36 -98 98 q-36 62 -36 136 q0 73 36 135 q36 62 98 98.5 q62 36.5 136 36.5 ZM300 460 q-52 0 -95.5 -25.5 q-43.5 -25.5 -69 -69.5 q-25.5 -44 -25.5 -95 q0 -52 25.5 -95.5 q25.5 -43.5 69 -69 q43.5 -25.5 95.5 -25.5 l0 380 Z" /><glyph glyph-name="uni25D2" unicode="&#x25d2;" d="M300 540 q73 0 135 -36.5 q62 -36.5 98.5 -98.5 q36.5 -62 36.5 -135 q0 -74 -36.5 -136 q-36.5 -62 -98.5 -98 q-62 -36 -135 -36 q-74 0 -136 36 q-62 36 -98 98 q-36 62 -36 136 q0 73 36 135 q36 62 98 98.5 q62 36.5 136 36.5 ZM300 460 q-52 0 -95.5 -25.5 q-43.5 -25.5 -69 -69.5 q-25.5 -44 -25.5 -95 l380 0 q0 51 -26 94.5 q-26 43.5 -69.5 69.5 q-43.5 26 -94.5 26 Z" /><glyph glyph-name="uni25D3" unicode="&#x25d3;" d="M300 540 q73 0 135 -36.5 q62 -36.5 98.5 -98.5 q36.5 -62 36.5 -135 q0 -74 -36.5 -136 q-36.5 -62 -98.5 -98 q-62 -36 -135 -36 q-74 0 -136 36 q-62 36 -98 98 q-36 62 -36 136 q0 73 36 135 q36 62 98 98.5 q62 36.5 136 36.5 ZM110 270 q0 -52 25.5 -95.5 q25.5 -43.5 69 -69 q43.5 -25.5 95.5 -25.5 q51 0 95 25.5 q44 25.5 69.5 69 q25.5 43.5 25.5 95.5 l-380 0 Z" /><glyph glyph-name="uni25D6" unicode="&#x25d6;" d="M300 0 q-74 0 -136 36 q-62 36 -98 98 q-36 62 -36 136 q0 73 36 135 q36 62 98 98.5 q62 36.5 136 36.5 l0 -540 Z" /><glyph glyph-name="uni25D7" unicode="&#x25d7;" d="M300 540 q73 0 135 -36.5 q62 -36.5 98.5 -98.5 q36.5 -62 36.5 -135 q0 -74 -36.5 -136 q-36.5 -62 -98.5 -98 q-62 -36 -135 -36 l0 540 Z" /><glyph glyph-name="uni25D5" unicode="&#x25d5;" d="M300 540 q73 0 135 -36.5 q62 -36.5 98.5 -98.5 q36.5 -62 36.5 -135 q0 -74 -36.5 -136 q-36.5 -62 -98.5 -98 q-62 -36 -135 -36 q-74 0 -136 36 q-62 36 -98 98 q-36 62 -36 136 q0 73 36 135 q36 62 98 98.5 q62 36.5 136 36.5 ZM300 460 q-52 0 -95.5 -25.5 q-43.5 -25.5 -69 -69.5 q-25.5 -44 -25.5 -95 l190 0 l0 190 Z" /><glyph glyph-name="uni25F4" unicode="&#x25f4;" d="M300 540 q73 0 135 -36.5 q62 -36.5 98.5 -98.5 q36.5 -62 36.5 -135 q0 -74 -36.5 -136 q-36.5 -62 -98.5 -98 q-62 -36 -135 -36 q-74 0 -136 36 q-62 36 -98 98 q-36 62 -36 136 q0 73 36 135 q36 62 98 98.5 q62 36.5 136 36.5 ZM260 456 q-55 -12 -94.5 -52 q-39.5 -40 -51.5 -94 l146 0 l0 146 ZM340 230 l-226 0 q14 -65 66 -107.5 q52 -42.5 120 -42.5 q51 0 95 25.5 q44 25.5 69.5 69 q25.5 43.5 25.5 95.5 q0 67 -43 119 q-43 52 -107 66 l0 -225 Z" /><glyph glyph-name="uni25F5" unicode="&#x25f5;" d="M300 540 q73 0 135 -36.5 q62 -36.5 98.5 -98.5 q36.5 -62 36.5 -135 q0 -74 -36.5 -136 q-36.5 -62 -98.5 -98 q-62 -36 -135 -36 q-74 0 -136 36 q-62 36 -98 98 q-36 62 -36 136 q0 73 36 135 q36 62 98 98.5 q62 36.5 136 36.5 ZM300 460 q-67 0 -119.5 -42.5 q-52.5 -42.5 -66.5 -107.5 l226 0 l0 -226 q65 14 107.5 66.5 q42.5 52.5 42.5 119.5 q0 51 -26 94.5 q-26 43.5 -69.5 69.5 q-43.5 26 -94.5 26 ZM114 230 q12 -55 51.5 -95 q39.5 -40 94.5 -51 l0 146 l-146 0 Z" /><glyph glyph-name="uni25F6" unicode="&#x25f6;" d="M300 540 q73 0 135 -36.5 q62 -36.5 98.5 -98.5 q36.5 -62 36.5 -135 q0 -74 -36.5 -136 q-36.5 -62 -98.5 -98 q-62 -36 -135 -36 q-74 0 -136 36 q-62 36 -98 98 q-36 62 -36 136 q0 73 36 135 q36 62 98 98.5 q62 36.5 136 36.5 ZM300 460 q-52 0 -95.5 -25.5 q-43.5 -25.5 -69 -69.5 q-25.5 -44 -25.5 -95 q0 -68 42.5 -120 q42.5 -52 107.5 -66 l0 226 l225 0 q-14 64 -66 107 q-52 43 -119 43 ZM340 230 l0 -146 q54 11 93.5 51 q39.5 40 51.5 95 l-145 0 Z" /><glyph glyph-name="uni25F7" unicode="&#x25f7;" d="M300 540 q73 0 135 -36.5 q62 -36.5 98.5 -98.5 q36.5 -62 36.5 -135 q0 -74 -36.5 -136 q-36.5 -62 -98.5 -98 q-62 -36 -135 -36 q-74 0 -136 36 q-62 36 -98 98 q-36 62 -36 136 q0 73 36 135 q36 62 98 98.5 q62 36.5 136 36.5 ZM260 455 q-65 -14 -107.5 -66 q-42.5 -52 -42.5 -119 q0 -52 25.5 -95.5 q25.5 -43.5 69 -69 q43.5 -25.5 95.5 -25.5 q67 0 119 42.5 q52 42.5 66 107.5 l-225 0 l0 225 ZM340 310 l146 0 q-12 54 -52 93.5 q-40 39.5 -94 51.5 l0 -145 Z" /><glyph glyph-name="uni25C9" unicode="&#x25c9;" d="M300 540 q73 0 135 -36.5 q62 -36.5 98.5 -98.5 q36.5 -62 36.5 -135 q0 -74 -36.5 -136 q-36.5 -62 -98.5 -98 q-62 -36 -135 -36 q-74 0 -136 36 q-62 36 -98 98 q-36 62 -36 136 q0 73 36 135 q36 62 98 98.5 q62 36.5 136 36.5 ZM300 460 q-52 0 -95.5 -25.5 q-43.5 -25.5 -69 -69.5 q-25.5 -44 -25.5 -95 q0 -52 25.5 -95.5 q25.5 -43.5 69 -69 q43.5 -25.5 95.5 -25.5 q51 0 95 25.5 q44 25.5 69.5 69 q25.5 43.5 25.5 95.5 q0 51 -26 94.5 q-26 43.5 -69.5 69.5 q-43.5 26 -94.5 26 ZM300 380 q45 0 77.5 -32.5 q32.5 -32.5 32.5 -77.5 q0 -46 -32.5 -78 q-32.5 -32 -77.5 -32 q-46 0 -78 32 q-32 32 -32 78 q0 45 32 77.5 q32 32.5 78 32.5 Z" /><glyph glyph-name="uni25CE" unicode="&#x25ce;" d="M300 540 q73 0 135 -36.5 q62 -36.5 98.5 -98.5 q36.5 -62 36.5 -135 q0 -74 -36.5 -136 q-36.5 -62 -98.5 -98 q-62 -36 -135 -36 q-74 0 -136 36 q-62 36 -98 98 q-36 62 -36 136 q0 73 36 135 q36 62 98 98.5 q62 36.5 136 36.5 ZM300 460 q-52 0 -95.5 -25.5 q-43.5 -25.5 -69 -69.5 q-25.5 -44 -25.5 -95 q0 -52 25.5 -95.5 q25.5 -43.5 69 -69 q43.5 -25.5 95.5 -25.5 q51 0 95 25.5 q44 25.5 69.5 69 q25.5 43.5 25.5 95.5 q0 51 -26 94.5 q-26 43.5 -69.5 69.5 q-43.5 26 -94.5 26 ZM300 380 q45 0 77.5 -32.5 q32.5 -32.5 32.5 -77.5 q0 -46 -32.5 -78 q-32.5 -32 -77.5 -32 q-46 0 -78 32 q-32 32 -32 78 q0 45 32 77.5 q32 32.5 78 32.5 ZM300 300 q-13 0 -21.5 -9 q-8.5 -9 -8.5 -21 q0 -13 8.5 -21.5 q8.5 -8.5 21.5 -8.5 q12 0 21 8.5 q9 8.5 9 21.5 q0 12 -9 21 q-9 9 -21 9 Z" /><glyph glyph-name="invcircle" unicode="&#x25d9;" d="M570 540 l0 -540 l-540 0 l0 540 l540 0 ZM300 500 q-62 0 -115 -31 q-53 -31 -84 -84 q-31 -53 -31 -115 q0 -62 31 -115 q31 -53 84 -84 q53 -31 115 -31 q62 0 115 31 q53 31 84 84 q31 53 31 115 q0 62 -31 115 q-31 53 -84 84 q-53 31 -115 31 ZM300 420 q40 0 74.5 -20.5 q34.5 -20.5 55 -55 q20.5 -34.5 20.5 -74.5 q0 -41 -20.5 -75.5 q-20.5 -34.5 -55 -54.5 q-34.5 -20 -74.5 -20 q-41 0 -75.5 20 q-34.5 20 -54.5 54.5 q-20 34.5 -20 75.5 q0 40 20 74.5 q20 34.5 54.5 55 q34.5 20.5 75.5 20.5 Z" /><glyph glyph-name="uni25DA" unicode="&#x25da;" d="M570 270 l-40 0 q0 62 -31 115 q-31 53 -84 84 q-53 31 -115 31 q-62 0 -115 -31 q-53 -31 -84 -84 q-31 -53 -31 -115 l-40 0 l0 270 l540 0 l0 -270 ZM300 420 q40 0 74.5 -20.5 q34.5 -20.5 55 -55 q20.5 -34.5 20.5 -74.5 l-300 0 q0 40 20 74.5 q20 34.5 54.5 55 q34.5 20.5 75.5 20.5 Z" /><glyph glyph-name="uni25DB" unicode="&#x25db;" d="M570 0 l-540 0 l0 270 l40 0 q0 -62 31 -115 q31 -53 84 -84 q53 -31 115 -31 q62 0 115 31 q53 31 84 84 q31 53 31 115 l40 0 l0 -270 ZM450 270 q0 -41 -20.5 -75.5 q-20.5 -34.5 -55 -54.5 q-34.5 -20 -74.5 -20 q-41 0 -75.5 20 q-34.5 20 -54.5 54.5 q-20 34.5 -20 75.5 l300 0 Z" /><glyph glyph-name="uni25E0" unicode="&#x25e0;" d="M300 540 q73 0 135 -36.5 q62 -36.5 98.5 -98.5 q36.5 -62 36.5 -135 l-80 0 q0 51 -26 94.5 q-26 43.5 -69.5 69.5 q-43.5 26 -94.5 26 q-52 0 -95.5 -25.5 q-43.5 -25.5 -69 -69.5 q-25.5 -44 -25.5 -95 l-80 0 q0 73 36 135 q36 62 98 98.5 q62 36.5 136 36.5 Z" /><glyph glyph-name="uni25E1" unicode="&#x25e1;" d="M570 270 q0 -74 -36.5 -136 q-36.5 -62 -98.5 -98 q-62 -36 -135 -36 q-74 0 -136 36 q-62 36 -98 98 q-36 62 -36 136 l80 0 q0 -52 25.5 -95.5 q25.5 -43.5 69 -69 q43.5 -25.5 95.5 -25.5 q51 0 95 25.5 q44 25.5 69.5 69 q25.5 43.5 25.5 95.5 l80 0 Z" /><glyph glyph-name="uni25DC" unicode="&#x25dc;" d="M300 460 q-52 0 -95.5 -25.5 q-43.5 -25.5 -69 -69.5 q-25.5 -44 -25.5 -95 l-80 0 q0 73 36 135 q36 62 98 98.5 q62 36.5 136 36.5 l0 -80 Z" /><glyph glyph-name="uni25DD" unicode="&#x25dd;" d="M300 540 q73 0 135 -36.5 q62 -36.5 98.5 -98.5 q36.5 -62 36.5 -135 l-80 0 q0 51 -26 94.5 q-26 43.5 -69.5 69.5 q-43.5 26 -94.5 26 l0 80 Z" /><glyph glyph-name="uni25DE" unicode="&#x25de;" d="M110 270 q0 -52 25.5 -95.5 q25.5 -43.5 69 -69 q43.5 -25.5 95.5 -25.5 l0 -80 q-74 0 -136 36 q-62 36 -98 98 q-36 62 -36 136 l80 0 Z" /><glyph glyph-name="uni25DF" unicode="&#x25df;" d="M570 270 q0 -74 -36.5 -136 q-36.5 -62 -98.5 -98 q-62 -36 -135 -36 l0 80 q51 0 95 25.5 q44 25.5 69.5 69 q25.5 43.5 25.5 95.5 l80 0 Z" /><glyph glyph-name="uni25C6" unicode="&#x25c6;" d="M300 540 l270 -270 l-270 -270 l-270 270 l270 270 Z" /><glyph glyph-name="uni25C7" unicode="&#x25c7;" d="M300 540 l270 -270 l-270 -270 l-270 270 l270 270 ZM300 426 l-157 -156 l157 -157 l156 157 l-156 156 Z" /><glyph glyph-name="lozenge" unicode="&#x25ca;" d="M363 690 l180 -345 l-180 -345 l-124 0 l-182 345 l182 345 l124 0 ZM302 604 l-4 0 l-128 -259 l128 -259 l4 0 l128 259 l-128 259 Z" /><glyph glyph-name="uni25AE" unicode="&#x25ae;" d="M427 540 l0 -540 l-285 0 l0 540 l285 0 Z" /><glyph glyph-name="filledrect" unicode="&#x25ac;" d="M570 270 l0 -270 l-540 0 l0 270 l540 0 Z" /><glyph glyph-name="uni25AD" unicode="&#x25ad;" d="M570 270 l0 -270 l-540 0 l0 270 l540 0 ZM490 190 l-380 0 l0 -110 l380 0 l0 110 Z" /><glyph glyph-name="uni25AF" unicode="&#x25af;" d="M427 540 l0 -540 l-285 0 l0 540 l285 0 ZM347 460 l-125 0 l0 -380 l125 0 l0 380 Z" /><glyph glyph-name="uni250C" unicode="&#x250c;" d="M605 390 l0 -80 l-265 0 l0 -810 l-80 0 l0 890 l345 0 Z" /><glyph glyph-name="uni2514" unicode="&#x2514;" d="M340 1000 l0 -610 l265 0 l0 -80 l-345 0 l0 690 l80 0 Z" /><glyph glyph-name="uni2510" unicode="&#x2510;" d="M340 390 l0 -890 l-80 0 l0 810 l-265 0 l0 80 l345 0 Z" /><glyph glyph-name="uni2518" unicode="&#x2518;" d="M340 1000 l0 -690 l-345 0 l0 80 l265 0 l0 610 l80 0 Z" /><glyph glyph-name="uni253C" unicode="&#x253c;" d="M340 1000 l0 -610 l265 0 l0 -80 l-265 0 l0 -810 l-80 0 l0 810 l-265 0 l0 80 l265 0 l0 610 l80 0 Z" /><glyph glyph-name="uni252C" unicode="&#x252c;" d="M605 390 l0 -80 l-265 0 l0 -810 l-80 0 l0 810 l-265 0 l0 80 l610 0 Z" /><glyph glyph-name="uni2534" unicode="&#x2534;" d="M340 1000 l0 -610 l265 0 l0 -80 l-610 0 l0 80 l265 0 l0 610 l80 0 Z" /><glyph glyph-name="uni251C" unicode="&#x251c;" d="M340 1000 l0 -610 l265 0 l0 -80 l-265 0 l0 -810 l-80 0 l0 1500 l80 0 Z" /><glyph glyph-name="uni2524" unicode="&#x2524;" d="M340 1000 l0 -1500 l-80 0 l0 810 l-265 0 l0 80 l265 0 l0 610 l80 0 Z" /><glyph glyph-name="uni2500" unicode="&#x2500;" d="M605 390 l0 -80 l-610 0 l0 80 l610 0 Z" /><glyph glyph-name="uni2502" unicode="&#x2502;" d="M340 1000 l0 -1500 l-80 0 l0 1500 l80 0 Z" /><glyph glyph-name="uni2561" unicode="&#x2561;" d="M340 1000 l0 -1500 l-80 0 l0 730 l-265 0 l0 80 l265 0 l0 80 l-265 0 l0 80 l265 0 l0 530 l80 0 Z" /><glyph glyph-name="uni2562" unicode="&#x2562;" d="M260 1000 l0 -1500 l-80 0 l0 810 l-185 0 l0 80 l185 0 l0 610 l80 0 ZM420 1000 l0 -1500 l-80 0 l0 1500 l80 0 Z" /><glyph glyph-name="uni2556" unicode="&#x2556;" d="M420 390 l0 -890 l-80 0 l0 810 l-80 0 l0 -810 l-80 0 l0 810 l-185 0 l0 80 l425 0 Z" /><glyph glyph-name="uni2555" unicode="&#x2555;" d="M340 470 l0 -970 l-80 0 l0 730 l-265 0 l0 80 l265 0 l0 80 l-265 0 l0 80 l345 0 Z" /><glyph glyph-name="uni2563" unicode="&#x2563;" d="M260 1000 l0 -610 l-265 0 l0 80 l185 0 l0 530 l80 0 ZM420 1000 l0 -1500 l-80 0 l0 1500 l80 0 ZM260 310 l0 -810 l-80 0 l0 730 l-185 0 l0 80 l265 0 Z" /><glyph glyph-name="uni2551" unicode="&#x2551;" d="M260 1000 l0 -1500 l-80 0 l0 1500 l80 0 ZM420 1000 l0 -1500 l-80 0 l0 1500 l80 0 Z" /><glyph glyph-name="uni2557" unicode="&#x2557;" d="M420 470 l0 -970 l-80 0 l0 890 l-345 0 l0 80 l425 0 ZM260 310 l0 -810 l-80 0 l0 730 l-185 0 l0 80 l265 0 Z" /><glyph glyph-name="uni255D" unicode="&#x255d;" d="M420 1000 l0 -770 l-425 0 l0 80 l345 0 l0 690 l80 0 ZM260 1000 l0 -610 l-265 0 l0 80 l185 0 l0 530 l80 0 Z" /><glyph glyph-name="uni255C" unicode="&#x255c;" d="M420 1000 l0 -690 l-425 0 l0 80 l185 0 l0 610 l80 0 l0 -610 l80 0 l0 610 l80 0 Z" /><glyph glyph-name="uni255B" unicode="&#x255b;" d="M340 1000 l0 -770 l-345 0 l0 80 l265 0 l0 80 l-265 0 l0 80 l265 0 l0 530 l80 0 Z" /><glyph glyph-name="uni255E" unicode="&#x255e;" d="M340 1000 l0 -530 l265 0 l0 -80 l-265 0 l0 -80 l265 0 l0 -80 l-265 0 l0 -730 l-80 0 l0 1500 l80 0 Z" /><glyph glyph-name="uni255F" unicode="&#x255f;" d="M260 1000 l0 -1500 l-80 0 l0 1500 l80 0 ZM420 1000 l0 -610 l185 0 l0 -80 l-185 0 l0 -810 l-80 0 l0 1500 l80 0 Z" /><glyph glyph-name="uni255A" unicode="&#x255a;" d="M260 1000 l0 -690 l345 0 l0 -80 l-425 0 l0 770 l80 0 ZM420 1000 l0 -530 l185 0 l0 -80 l-265 0 l0 610 l80 0 Z" /><glyph glyph-name="uni2554" unicode="&#x2554;" d="M605 470 l0 -80 l-345 0 l0 -890 l-80 0 l0 970 l425 0 ZM605 310 l0 -80 l-185 0 l0 -730 l-80 0 l0 810 l265 0 Z" /><glyph glyph-name="uni2569" unicode="&#x2569;" d="M260 1000 l0 -610 l-265 0 l0 80 l185 0 l0 530 l80 0 ZM420 1000 l0 -530 l185 0 l0 -80 l-265 0 l0 610 l80 0 ZM605 310 l0 -80 l-610 0 l0 80 l610 0 Z" /><glyph glyph-name="uni2566" unicode="&#x2566;" d="M605 470 l0 -80 l-610 0 l0 80 l610 0 ZM260 310 l0 -810 l-80 0 l0 730 l-185 0 l0 80 l265 0 ZM605 310 l0 -80 l-185 0 l0 -730 l-80 0 l0 810 l265 0 Z" /><glyph glyph-name="uni2560" unicode="&#x2560;" d="M260 1000 l0 -1500 l-80 0 l0 1500 l80 0 ZM420 1000 l0 -530 l185 0 l0 -80 l-265 0 l0 610 l80 0 ZM605 310 l0 -80 l-185 0 l0 -730 l-80 0 l0 810 l265 0 Z" /><glyph glyph-name="uni2550" unicode="&#x2550;" d="M605 470 l0 -80 l-610 0 l0 80 l610 0 ZM605 310 l0 -80 l-610 0 l0 80 l610 0 Z" /><glyph glyph-name="uni256C" unicode="&#x256c;" d="M260 1000 l0 -610 l-265 0 l0 80 l185 0 l0 530 l80 0 ZM420 1000 l0 -530 l185 0 l0 -80 l-265 0 l0 610 l80 0 ZM260 310 l0 -810 l-80 0 l0 730 l-185 0 l0 80 l265 0 ZM605 310 l0 -80 l-185 0 l0 -730 l-80 0 l0 810 l265 0 Z" /><glyph glyph-name="uni2567" unicode="&#x2567;" d="M340 1000 l0 -530 l265 0 l0 -80 l-610 0 l0 80 l265 0 l0 530 l80 0 ZM605 310 l0 -80 l-610 0 l0 80 l610 0 Z" /><glyph glyph-name="uni2568" unicode="&#x2568;" d="M420 1000 l0 -610 l185 0 l0 -80 l-610 0 l0 80 l185 0 l0 610 l80 0 l0 -610 l80 0 l0 610 l80 0 Z" /><glyph glyph-name="uni2564" unicode="&#x2564;" d="M605 470 l0 -80 l-610 0 l0 80 l610 0 ZM605 310 l0 -80 l-265 0 l0 -730 l-80 0 l0 730 l-265 0 l0 80 l610 0 Z" /><glyph glyph-name="uni2565" unicode="&#x2565;" d="M605 390 l0 -80 l-185 0 l0 -810 l-80 0 l0 810 l-80 0 l0 -810 l-80 0 l0 810 l-185 0 l0 80 l610 0 Z" /><glyph glyph-name="uni2559" unicode="&#x2559;" d="M420 1000 l0 -610 l185 0 l0 -80 l-425 0 l0 690 l80 0 l0 -610 l80 0 l0 610 l80 0 Z" /><glyph glyph-name="uni2558" unicode="&#x2558;" d="M340 1000 l0 -530 l265 0 l0 -80 l-265 0 l0 -80 l265 0 l0 -80 l-345 0 l0 770 l80 0 Z" /><glyph glyph-name="uni2552" unicode="&#x2552;" d="M605 470 l0 -80 l-265 0 l0 -80 l265 0 l0 -80 l-265 0 l0 -730 l-80 0 l0 970 l345 0 Z" /><glyph glyph-name="uni2553" unicode="&#x2553;" d="M605 390 l0 -80 l-185 0 l0 -810 l-80 0 l0 810 l-80 0 l0 -810 l-80 0 l0 890 l425 0 Z" /><glyph glyph-name="uni256B" unicode="&#x256b;" d="M420 1000 l0 -610 l185 0 l0 -80 l-185 0 l0 -810 l-80 0 l0 810 l-80 0 l0 -810 l-80 0 l0 810 l-185 0 l0 80 l185 0 l0 610 l80 0 l0 -610 l80 0 l0 610 l80 0 Z" /><glyph glyph-name="uni256A" unicode="&#x256a;" d="M340 1000 l0 -530 l265 0 l0 -80 l-265 0 l0 -80 l265 0 l0 -80 l-265 0 l0 -730 l-80 0 l0 730 l-265 0 l0 80 l265 0 l0 80 l-265 0 l0 80 l265 0 l0 530 l80 0 Z" /><glyph glyph-name="filledbox" unicode="&#x25a0;" d="M570 540 l0 -540 l-540 0 l0 540 l540 0 Z" /><glyph glyph-name="uni25A1" unicode="&#x25a1;" d="M570 540 l0 -540 l-540 0 l0 540 l540 0 ZM490 460 l-380 0 l0 -380 l380 0 l0 380 Z" /><glyph glyph-name="uni25A2" unicode="&#x25a2;" d="M300 540 q119 0 174.5 -20 q55.5 -20 75.5 -75.5 q20 -55.5 20 -174.5 q0 -120 -20 -175 q-20 -55 -75.5 -75 q-55.5 -20 -174.5 -20 q-120 0 -175 20 q-55 20 -75 75 q-20 55 -20 175 q0 119 20 174.5 q20 55.5 75 75.5 q55 20 175 20 ZM300 460 q-84 0 -123 -14 q-39 -14 -53 -53 q-14 -39 -14 -123 q0 -84 14 -123 q14 -39 53 -53 q39 -14 123 -14 q84 0 123 14 q39 14 53 53 q14 39 14 123 q0 84 -14 123 q-14 39 -53 53 q-39 14 -123 14 Z" /><glyph glyph-name="uni25A3" unicode="&#x25a3;" d="M570 540 l0 -540 l-540 0 l0 540 l540 0 ZM490 460 l-380 0 l0 -380 l380 0 l0 380 ZM410 380 l0 -220 l-220 0 l0 220 l220 0 Z" /><glyph glyph-name="uni25AA" unicode="&#x25aa;" d="M427 270 l0 -270 l-285 0 l0 270 l285 0 Z" /><glyph glyph-name="uni25AB" unicode="&#x25ab;" d="M427 270 l0 -270 l-285 0 l0 270 l285 0 ZM347 190 l-125 0 l0 -110 l125 0 l0 110 Z" /><glyph glyph-name="uni25E7" unicode="&#x25e7;" d="M570 540 l0 -540 l-540 0 l0 540 l540 0 ZM490 460 l-190 0 l0 -380 l190 0 l0 380 Z" /><glyph glyph-name="uni25E8" unicode="&#x25e8;" d="M570 540 l0 -540 l-540 0 l0 540 l540 0 ZM300 460 l-190 0 l0 -380 l190 0 l0 380 Z" /><glyph glyph-name="uni25E9" unicode="&#x25e9;" d="M570 540 l0 -540 l-540 0 l0 540 l540 0 ZM490 460 l-380 -380 l380 0 l0 380 Z" /><glyph glyph-name="uni25EA" unicode="&#x25ea;" d="M570 540 l0 -540 l-540 0 l0 540 l540 0 ZM490 460 l-380 0 l0 -380 l380 380 Z" /><glyph glyph-name="uni25EB" unicode="&#x25eb;" d="M570 540 l0 -540 l-540 0 l0 540 l540 0 ZM260 460 l-150 0 l0 -380 l150 0 l0 380 ZM490 460 l-150 0 l0 -380 l150 0 l0 380 Z" /><glyph glyph-name="uni25F0" unicode="&#x25f0;" d="M570 540 l0 -540 l-540 0 l0 540 l540 0 ZM490 460 l-150 0 l0 -230 l-230 0 l0 -150 l380 0 l0 380 ZM260 460 l-150 0 l0 -150 l150 0 l0 150 Z" /><glyph glyph-name="uni25F1" unicode="&#x25f1;" d="M570 540 l0 -540 l-540 0 l0 540 l540 0 ZM490 460 l-380 0 l0 -150 l230 0 l0 -230 l150 0 l0 380 ZM260 230 l-150 0 l0 -150 l150 0 l0 150 Z" /><glyph glyph-name="uni25F2" unicode="&#x25f2;" d="M570 540 l0 -540 l-540 0 l0 540 l540 0 ZM490 460 l-380 0 l0 -380 l150 0 l0 230 l230 0 l0 150 ZM490 230 l-150 0 l0 -150 l150 0 l0 150 Z" /><glyph glyph-name="uni25F3" unicode="&#x25f3;" d="M570 540 l0 -540 l-540 0 l0 540 l540 0 ZM260 460 l-150 0 l0 -380 l380 0 l0 150 l-230 0 l0 230 ZM490 460 l-150 0 l0 -150 l150 0 l0 150 Z" /><glyph glyph-name="triagup" unicode="&#x25b2;" d="M300 540 l270 -540 l-540 0 l270 540 Z" /><glyph glyph-name="triagdn" unicode="&#x25bc;" d="M570 540 l-270 -540 l-270 540 l540 0 Z" /><glyph glyph-name="triagrt" unicode="&#x25ba;" d="M30 540 l540 -270 l-540 -270 l0 540 Z" /><glyph glyph-name="triaglf" unicode="&#x25c4;" d="M570 540 l0 -540 l-540 270 l540 270 Z" /><glyph glyph-name="uni25E5" unicode="&#x25e5;" d="M570 540 l0 -540 l-540 540 l540 0 Z" /><glyph glyph-name="uni25E2" unicode="&#x25e2;" d="M570 540 l0 -540 l-540 0 l540 540 Z" /><glyph glyph-name="uni25E3" unicode="&#x25e3;" d="M30 540 l540 -540 l-540 0 l0 540 Z" /><glyph glyph-name="uni25E4" unicode="&#x25e4;" d="M570 540 l-540 -540 l0 540 l540 0 Z" /><glyph glyph-name="uni2530" unicode="&#x2530;" d="M605 390 l0 -80 l-185 0 l0 -810 l-240 0 l0 810 l-185 0 l0 80 l610 0 Z" /><glyph glyph-name="uni2512" unicode="&#x2512;" d="M420 390 l0 -890 l-240 0 l0 810 l-185 0 l0 80 l425 0 Z" /><glyph glyph-name="uni2527" unicode="&#x2527;" d="M340 1000 l0 -610 l80 0 l0 -890 l-240 0 l0 810 l-185 0 l0 80 l265 0 l0 610 l80 0 Z" /><glyph glyph-name="uni250E" unicode="&#x250e;" d="M605 390 l0 -80 l-185 0 l0 -810 l-240 0 l0 890 l425 0 Z" /><glyph glyph-name="uni251F" unicode="&#x251f;" d="M340 1000 l0 -610 l265 0 l0 -80 l-185 0 l0 -810 l-240 0 l0 890 l80 0 l0 610 l80 0 Z" /><glyph glyph-name="uni2541" unicode="&#x2541;" d="M340 1000 l0 -610 l265 0 l0 -80 l-185 0 l0 -810 l-240 0 l0 810 l-185 0 l0 80 l265 0 l0 610 l80 0 Z" /><glyph glyph-name="uni252F" unicode="&#x252f;" d="M605 470 l0 -240 l-265 0 l0 -730 l-80 0 l0 730 l-265 0 l0 240 l610 0 Z" /><glyph glyph-name="uni2511" unicode="&#x2511;" d="M340 470 l0 -970 l-80 0 l0 730 l-265 0 l0 240 l345 0 Z" /><glyph glyph-name="uni2529" unicode="&#x2529;" d="M420 1000 l0 -770 l-80 0 l0 -730 l-80 0 l0 730 l-265 0 l0 240 l185 0 l0 530 l240 0 Z" /><glyph glyph-name="uni250D" unicode="&#x250d;" d="M605 470 l0 -240 l-265 0 l0 -730 l-80 0 l0 970 l345 0 Z" /><glyph glyph-name="uni2521" unicode="&#x2521;" d="M420 1000 l0 -530 l185 0 l0 -240 l-265 0 l0 -730 l-80 0 l0 730 l-80 0 l0 770 l240 0 Z" /><glyph glyph-name="uni2547" unicode="&#x2547;" d="M420 1000 l0 -530 l185 0 l0 -240 l-265 0 l0 -730 l-80 0 l0 730 l-265 0 l0 240 l185 0 l0 530 l240 0 Z" /><glyph glyph-name="uni254D" unicode="&#x254d;" d="M180 470 l0 -240 l-185 0 l0 240 l185 0 ZM605 470 l0 -240 l-185 0 l0 240 l185 0 Z" /><glyph glyph-name="uni254F" unicode="&#x254f;" d="M420 1000 l0 -530 l-240 0 l0 530 l240 0 ZM420 230 l0 -730 l-240 0 l0 730 l240 0 Z" /><glyph glyph-name="uni257B" unicode="&#x257b;" d="M420 390 l0 -890 l-240 0 l0 890 l240 0 Z" /><glyph glyph-name="uni2533" unicode="&#x2533;" d="M605 470 l0 -240 l-185 0 l0 -730 l-240 0 l0 730 l-185 0 l0 240 l610 0 Z" /><glyph glyph-name="uni2513" unicode="&#x2513;" d="M420 470 l0 -970 l-240 0 l0 730 l-185 0 l0 240 l425 0 Z" /><glyph glyph-name="uni250F" unicode="&#x250f;" d="M605 470 l0 -240 l-185 0 l0 -730 l-240 0 l0 970 l425 0 Z" /><glyph glyph-name="uni2501" unicode="&#x2501;" d="M605 470 l0 -240 l-610 0 l0 240 l610 0 Z" /><glyph glyph-name="uni2578" unicode="&#x2578;" d="M340 470 l0 -240 l-345 0 l0 240 l345 0 Z" /><glyph glyph-name="uni257E" unicode="&#x257e;" d="M340 470 l0 -80 l265 0 l0 -80 l-265 0 l0 -80 l-345 0 l0 240 l345 0 Z" /><glyph glyph-name="uni257A" unicode="&#x257a;" d="M605 470 l0 -240 l-345 0 l0 240 l345 0 Z" /><glyph glyph-name="uni2579" unicode="&#x2579;" d="M420 1000 l0 -690 l-240 0 l0 690 l240 0 Z" /><glyph glyph-name="uni253B" unicode="&#x253b;" d="M420 1000 l0 -530 l185 0 l0 -240 l-610 0 l0 240 l185 0 l0 530 l240 0 Z" /><glyph glyph-name="uni251B" unicode="&#x251b;" d="M420 1000 l0 -770 l-425 0 l0 240 l185 0 l0 530 l240 0 Z" /><glyph glyph-name="uni257F" unicode="&#x257f;" d="M420 1000 l0 -690 l-80 0 l0 -810 l-80 0 l0 810 l-80 0 l0 690 l240 0 Z" /><glyph glyph-name="uni2517" unicode="&#x2517;" d="M420 1000 l0 -530 l185 0 l0 -240 l-425 0 l0 770 l240 0 Z" /><glyph glyph-name="uni2503" unicode="&#x2503;" d="M420 1000 l0 -1500 l-240 0 l0 1500 l240 0 Z" /><glyph glyph-name="uni254B" unicode="&#x254b;" d="M420 1000 l0 -530 l185 0 l0 -240 l-185 0 l0 -730 l-240 0 l0 730 l-185 0 l0 240 l185 0 l0 530 l240 0 Z" /><glyph glyph-name="uni252B" unicode="&#x252b;" d="M420 1000 l0 -1500 l-240 0 l0 730 l-185 0 l0 240 l185 0 l0 530 l240 0 Z" /><glyph glyph-name="uni2523" unicode="&#x2523;" d="M420 1000 l0 -530 l185 0 l0 -240 l-185 0 l0 -730 l-240 0 l0 1500 l240 0 Z" /><glyph glyph-name="uni2545" unicode="&#x2545;" d="M340 1000 l0 -530 l80 0 l0 -80 l185 0 l0 -80 l-185 0 l0 -810 l-240 0 l0 730 l-185 0 l0 240 l265 0 l0 530 l80 0 Z" /><glyph glyph-name="uni252D" unicode="&#x252d;" d="M340 470 l0 -80 l265 0 l0 -80 l-265 0 l0 -810 l-80 0 l0 730 l-265 0 l0 240 l345 0 Z" /><glyph glyph-name="uni2535" unicode="&#x2535;" d="M340 1000 l0 -610 l265 0 l0 -80 l-265 0 l0 -80 l-345 0 l0 240 l265 0 l0 530 l80 0 Z" /><glyph glyph-name="uni253D" unicode="&#x253d;" d="M340 1000 l0 -610 l265 0 l0 -80 l-265 0 l0 -810 l-80 0 l0 730 l-265 0 l0 240 l265 0 l0 530 l80 0 Z" /><glyph glyph-name="uni2532" unicode="&#x2532;" d="M605 470 l0 -240 l-185 0 l0 -730 l-240 0 l0 810 l-185 0 l0 80 l185 0 l0 80 l425 0 Z" /><glyph glyph-name="uni253A" unicode="&#x253a;" d="M420 1000 l0 -530 l185 0 l0 -240 l-425 0 l0 80 l-185 0 l0 80 l185 0 l0 610 l240 0 Z" /><glyph glyph-name="uni254A" unicode="&#x254a;" d="M420 1000 l0 -530 l185 0 l0 -240 l-185 0 l0 -730 l-240 0 l0 810 l-185 0 l0 80 l185 0 l0 610 l240 0 Z" /><glyph glyph-name="uni2543" unicode="&#x2543;" d="M420 1000 l0 -610 l185 0 l0 -80 l-185 0 l0 -80 l-80 0 l0 -730 l-80 0 l0 730 l-265 0 l0 240 l185 0 l0 530 l240 0 Z" /><glyph glyph-name="uni2573" unicode="&#x2573;" d="M487 594 l57 -57 l-187 -187 l187 -187 l-57 -57 l-187 187 l-187 -187 l-57 57 l187 187 l-187 187 l57 57 l187 -187 l187 187 Z" /><glyph glyph-name="uni2572" unicode="&#x2572;" d="M113 594 l431 -431 l-57 -57 l-431 431 l57 57 Z" /><glyph glyph-name="uni2571" unicode="&#x2571;" d="M487 594 l57 -57 l-431 -431 l-57 57 l431 431 Z" /><glyph glyph-name="uni254C" unicode="&#x254c;" d="M260 390 l0 -80 l-265 0 l0 80 l265 0 ZM605 390 l0 -80 l-265 0 l0 80 l265 0 Z" /><glyph glyph-name="uni254E" unicode="&#x254e;" d="M340 1000 l0 -610 l-80 0 l0 610 l80 0 ZM340 310 l0 -810 l-80 0 l0 810 l80 0 Z" /><glyph glyph-name="uni2577" unicode="&#x2577;" d="M340 390 l0 -890 l-80 0 l0 890 l80 0 Z" /><glyph glyph-name="uni2574" unicode="&#x2574;" d="M340 390 l0 -80 l-345 0 l0 80 l345 0 Z" /><glyph glyph-name="uni257C" unicode="&#x257c;" d="M605 470 l0 -240 l-345 0 l0 80 l-265 0 l0 80 l265 0 l0 80 l345 0 Z" /><glyph glyph-name="uni2576" unicode="&#x2576;" d="M605 390 l0 -80 l-345 0 l0 80 l345 0 Z" /><glyph glyph-name="uni2575" unicode="&#x2575;" d="M340 1000 l0 -690 l-80 0 l0 690 l80 0 Z" /><glyph glyph-name="uni257D" unicode="&#x257d;" d="M340 1000 l0 -610 l80 0 l0 -890 l-240 0 l0 890 l80 0 l0 610 l80 0 Z" /><glyph glyph-name="uni2546" unicode="&#x2546;" d="M340 1000 l0 -530 l265 0 l0 -240 l-185 0 l0 -730 l-240 0 l0 810 l-185 0 l0 80 l185 0 l0 80 l80 0 l0 530 l80 0 Z" /><glyph glyph-name="uni252E" unicode="&#x252e;" d="M605 470 l0 -240 l-265 0 l0 -730 l-80 0 l0 810 l-265 0 l0 80 l265 0 l0 80 l345 0 Z" /><glyph glyph-name="uni2536" unicode="&#x2536;" d="M340 1000 l0 -530 l265 0 l0 -240 l-345 0 l0 80 l-265 0 l0 80 l265 0 l0 610 l80 0 Z" /><glyph glyph-name="uni253E" unicode="&#x253e;" d="M340 1000 l0 -530 l265 0 l0 -240 l-265 0 l0 -730 l-80 0 l0 810 l-265 0 l0 80 l265 0 l0 610 l80 0 Z" /><glyph glyph-name="uni2531" unicode="&#x2531;" d="M420 470 l0 -80 l185 0 l0 -80 l-185 0 l0 -810 l-240 0 l0 730 l-185 0 l0 240 l425 0 Z" /><glyph glyph-name="uni2539" unicode="&#x2539;" d="M420 1000 l0 -610 l185 0 l0 -80 l-185 0 l0 -80 l-425 0 l0 240 l185 0 l0 530 l240 0 Z" /><glyph glyph-name="uni2549" unicode="&#x2549;" d="M420 1000 l0 -610 l185 0 l0 -80 l-185 0 l0 -810 l-240 0 l0 730 l-185 0 l0 240 l185 0 l0 530 l240 0 Z" /><glyph glyph-name="uni2544" unicode="&#x2544;" d="M420 1000 l0 -530 l185 0 l0 -240 l-265 0 l0 -730 l-80 0 l0 730 l-80 0 l0 80 l-185 0 l0 80 l185 0 l0 610 l240 0 Z" /><glyph glyph-name="uni2540" unicode="&#x2540;" d="M420 1000 l0 -610 l185 0 l0 -80 l-265 0 l0 -810 l-80 0 l0 810 l-265 0 l0 80 l185 0 l0 610 l240 0 Z" /><glyph glyph-name="uni2538" unicode="&#x2538;" d="M420 1000 l0 -610 l185 0 l0 -80 l-610 0 l0 80 l185 0 l0 610 l240 0 Z" /><glyph glyph-name="uni2526" unicode="&#x2526;" d="M420 1000 l0 -690 l-80 0 l0 -810 l-80 0 l0 810 l-265 0 l0 80 l185 0 l0 610 l240 0 Z" /><glyph glyph-name="uni251A" unicode="&#x251a;" d="M420 1000 l0 -690 l-425 0 l0 80 l185 0 l0 610 l240 0 Z" /><glyph glyph-name="uni251E" unicode="&#x251e;" d="M420 1000 l0 -610 l185 0 l0 -80 l-265 0 l0 -810 l-80 0 l0 810 l-80 0 l0 690 l240 0 Z" /><glyph glyph-name="uni2516" unicode="&#x2516;" d="M420 1000 l0 -610 l185 0 l0 -80 l-425 0 l0 690 l240 0 Z" /><glyph glyph-name="uni2548" unicode="&#x2548;" d="M340 1000 l0 -530 l265 0 l0 -240 l-185 0 l0 -730 l-240 0 l0 730 l-185 0 l0 240 l265 0 l0 530 l80 0 Z" /><glyph glyph-name="uni2537" unicode="&#x2537;" d="M340 1000 l0 -530 l265 0 l0 -240 l-610 0 l0 240 l265 0 l0 530 l80 0 Z" /><glyph glyph-name="uni252A" unicode="&#x252a;" d="M340 1000 l0 -530 l80 0 l0 -970 l-240 0 l0 730 l-185 0 l0 240 l265 0 l0 530 l80 0 Z" /><glyph glyph-name="uni2519" unicode="&#x2519;" d="M340 1000 l0 -770 l-345 0 l0 240 l265 0 l0 530 l80 0 Z" /><glyph glyph-name="uni2522" unicode="&#x2522;" d="M340 1000 l0 -530 l265 0 l0 -240 l-185 0 l0 -730 l-240 0 l0 970 l80 0 l0 530 l80 0 Z" /><glyph glyph-name="uni2515" unicode="&#x2515;" d="M340 1000 l0 -530 l265 0 l0 -240 l-345 0 l0 770 l80 0 Z" /><glyph glyph-name="uni2542" unicode="&#x2542;" d="M420 1000 l0 -610 l185 0 l0 -80 l-185 0 l0 -810 l-240 0 l0 810 l-185 0 l0 80 l185 0 l0 610 l240 0 Z" /><glyph glyph-name="uni2528" unicode="&#x2528;" d="M420 1000 l0 -1500 l-240 0 l0 810 l-185 0 l0 80 l185 0 l0 610 l240 0 Z" /><glyph glyph-name="uni2520" unicode="&#x2520;" d="M420 1000 l0 -610 l185 0 l0 -80 l-185 0 l0 -810 l-240 0 l0 1500 l240 0 Z" /><glyph glyph-name="uni253F" unicode="&#x253f;" d="M340 1000 l0 -530 l265 0 l0 -240 l-265 0 l0 -730 l-80 0 l0 730 l-265 0 l0 240 l265 0 l0 530 l80 0 Z" /><glyph glyph-name="uni2525" unicode="&#x2525;" d="M340 1000 l0 -1500 l-80 0 l0 730 l-265 0 l0 240 l265 0 l0 530 l80 0 Z" /><glyph glyph-name="uni251D" unicode="&#x251d;" d="M340 1000 l0 -530 l265 0 l0 -240 l-265 0 l0 -730 l-80 0 l0 1500 l80 0 Z" /><glyph glyph-name="uni2610" unicode="&#x2610;" d="M576 546 l0 -552 l-552 0 l0 552 l552 0 ZM477 457 l-354 0 l0 -374 l354 0 l0 374 Z" /><glyph glyph-name="uni2611" unicode="&#x2611;" d="M488 546 l88 0 l0 -552 l-552 0 l0 552 l357 0 l33 114 l109 0 l-35 -114 ZM477 83 l0 374 l-16 0 l-98 -322 l-134 0 l-90 244 l114 0 l42 -125 l60 203 l-232 0 l0 -374 l354 0 Z" /><glyph glyph-name="uni2612" unicode="&#x2612;" d="M576 546 l0 -552 l-552 0 l0 552 l552 0 ZM477 457 l-354 0 l0 -374 l354 0 l0 374 ZM404 439 l63 -63 l-104 -104 l104 -106 l-63 -63 l-104 106 l-106 -106 l-63 63 l106 106 l-106 104 l63 63 l106 -104 l104 104 Z" /><glyph glyph-name="uni2620" unicode="&#x2620;" d="M301 539 q45 0 82 -20 q37 -20 58 -55 q21 -35 21 -78 q0 -57 -28 -102 l0 -52 l-26 -18 l-43 -75 l-129 0 l-43 75 l-25 18 l0 52 q-29 44 -29 102 q0 43 21 78 q21 35 58 55 q37 20 83 20 ZM60 367 q17 0 25.5 -16 q8.5 -16 13.5 -42 l28 -16 l0 -55 l-51 21 q-17 -11 -27.5 -15 q-10.5 -4 -21.5 -4 q-11 0 -19 5.5 q-8 5.5 -8 16.5 q0 12 9 20.5 q9 8.5 24 10.5 l13 27 q-8 9 -8 23 q0 9 6 16.5 q6 7.5 16 7.5 ZM541 367 q10 0 16 -7.5 q6 -7.5 6 -16.5 q0 -14 -8 -23 l13 -27 q14 -2 23 -10.5 q9 -8.5 9 -20.5 q0 -10 -8 -16 q-8 -6 -18 -6 q-11 0 -21.5 4 q-10.5 4 -28.5 15 l-51 -17 l0 51 l28 16 q5 26 13.5 42 q8.5 16 26.5 16 ZM227 362 q-16 0 -27.5 -11.5 q-11.5 -11.5 -11.5 -28.5 q0 -17 11.5 -29 q11.5 -12 27.5 -12 q17 0 28.5 12 q11.5 12 11.5 29 q0 17 -11.5 28.5 q-11.5 11.5 -28.5 11.5 ZM374 362 q-17 0 -28.5 -11.5 q-11.5 -11.5 -11.5 -28.5 q0 -17 11.5 -29 q11.5 -12 28.5 -12 q16 0 28 12.5 q12 12.5 12 28.5 q0 17 -12 28.5 q-12 11.5 -28 11.5 ZM301 280 q-8 0 -18.5 -14.5 q-10.5 -14.5 -16.5 -30.5 l0 -29 l35 7 l34 -7 l0 29 q-6 16 -16 30.5 q-10 14.5 -18 14.5 ZM192 130 l-70 -43 q-3 -30 -11 -47 q-8 -17 -23 -17 q-12 0 -19 8 q-7 8 -7 20 q0 7 5 20 l-13 24 q-14 0 -24.5 8.5 q-10.5 8.5 -10.5 20.5 q0 11 7.5 18 q7.5 7 20.5 7 q9 0 20.5 -4.5 q11.5 -4.5 26.5 -11.5 l72 39 l26 -42 ZM507 133 q15 7 27 11.5 q12 4.5 21 4.5 q12 0 19.5 -7 q7.5 -7 7.5 -18 q0 -12 -10 -20.5 q-10 -8.5 -24 -8.5 l-14 -24 q6 -12 6 -20 q0 -12 -7.5 -20 q-7.5 -8 -19.5 -8 q-15 0 -23 17 q-8 17 -11 47 l-69 43 l26 42 l71 -39 Z" /><glyph glyph-name="uni2639" unicode="&#x2639;" d="M300 539 q73 0 135 -36 q62 -36 98.5 -98 q36.5 -62 36.5 -135 q0 -74 -36.5 -136 q-36.5 -62 -98.5 -98 q-62 -36 -135 -36 q-74 0 -136 36 q-62 36 -98 98 q-36 62 -36 136 q0 73 36 135 q36 62 98 98 q62 36 136 36 ZM300 487 q-59 0 -107 -29.5 q-48 -29.5 -76 -79.5 q-28 -50 -28 -108 q0 -59 28 -109 q28 -50 76 -79.5 q48 -29.5 107 -29.5 q58 0 106.5 29.5 q48.5 29.5 76.5 79.5 q28 50 28 109 q0 58 -28 108 q-28 50 -76.5 79.5 q-48.5 29.5 -106.5 29.5 ZM218 391 q21 0 34.5 -13 q13.5 -13 13.5 -32 q0 -20 -13.5 -33.5 q-13.5 -13.5 -34.5 -13.5 q-21 0 -34.5 13.5 q-13.5 13.5 -13.5 33.5 q0 19 13.5 32 q13.5 13 34.5 13 ZM378 391 q21 0 34.5 -13 q13.5 -13 13.5 -32 q0 -20 -13.5 -33.5 q-13.5 -13.5 -34.5 -13.5 q-21 0 -34.5 13.5 q-13.5 13.5 -13.5 33.5 q0 19 13.5 32 q13.5 13 34.5 13 ZM399 136 q-22 89 -99 89 q-77 0 -99 -89 l-44 0 q7 57 46 95.5 q39 38.5 97 38.5 q58 0 97 -38.5 q39 -38.5 46 -95.5 l-44 0 Z" /><glyph glyph-name="smileface" unicode="&#x263a;" d="M300 539 q73 0 135 -36 q62 -36 98.5 -98 q36.5 -62 36.5 -135 q0 -74 -36.5 -136 q-36.5 -62 -98.5 -98 q-62 -36 -135 -36 q-74 0 -136 36 q-62 36 -98 98 q-36 62 -36 136 q0 73 36 135 q36 62 98 98 q62 36 136 36 ZM300 487 q-59 0 -107 -29.5 q-48 -29.5 -76 -79.5 q-28 -50 -28 -108 q0 -59 28 -109 q28 -50 76 -79.5 q48 -29.5 107 -29.5 q58 0 106.5 29.5 q48.5 29.5 76.5 79.5 q28 50 28 109 q0 58 -28 108 q-28 50 -76.5 79.5 q-48.5 29.5 -106.5 29.5 ZM218 391 q21 0 34.5 -13 q13.5 -13 13.5 -32 q0 -20 -13.5 -33.5 q-13.5 -13.5 -34.5 -13.5 q-21 0 -34.5 13.5 q-13.5 13.5 -13.5 33.5 q0 19 13.5 32 q13.5 13 34.5 13 ZM378 391 q21 0 34.5 -13 q13.5 -13 13.5 -32 q0 -20 -13.5 -33.5 q-13.5 -13.5 -34.5 -13.5 q-21 0 -34.5 13.5 q-13.5 13.5 -13.5 33.5 q0 19 13.5 32 q13.5 13 34.5 13 ZM443 240 q-7 -57 -46 -95.5 q-39 -38.5 -97 -38.5 q-58 0 -97 38.5 q-39 38.5 -46 95.5 l44 0 q22 -89 99 -89 q77 0 99 89 l44 0 Z" /><glyph glyph-name="invsmileface" unicode="&#x263b;" d="M300 539 q73 0 135 -36 q62 -36 98.5 -98 q36.5 -62 36.5 -135 q0 -74 -36.5 -136 q-36.5 -62 -98.5 -98 q-62 -36 -135 -36 q-74 0 -136 36 q-62 36 -98 98 q-36 62 -36 136 q0 73 36 135 q36 62 98 98 q62 36 136 36 ZM213 396 q-21 0 -34.5 -13 q-13.5 -13 -13.5 -32 q0 -20 13.5 -33.5 q13.5 -13.5 34.5 -13.5 q21 0 34.5 13.5 q13.5 13.5 13.5 33.5 q0 19 -13.5 32 q-13.5 13 -34.5 13 ZM383 396 q-21 0 -34.5 -13 q-13.5 -13 -13.5 -32 q0 -20 13.5 -33.5 q13.5 -13.5 34.5 -13.5 q21 0 34.5 13.5 q13.5 13.5 13.5 33.5 q0 19 -13.5 32 q-13.5 13 -34.5 13 ZM404 235 q-10 -41 -36.5 -65 q-26.5 -24 -67.5 -24 q-41 0 -67.5 24 q-26.5 24 -36.5 65 l-43 0 q7 -56 48 -94.5 q41 -38.5 99 -38.5 q58 0 99 38.5 q41 38.5 48 94.5 l-43 0 Z" /><glyph glyph-name="sun" unicode="&#x263c;" d="M324 420 q36 -4 68 -27 l81 82 l36 -36 l-81 -80 q25 -31 31 -72 l111 0 l0 -47 l-111 0 q-6 -40 -29 -69 l79 -78 l-36 -36 l-79 80 q-32 -21 -70 -27 l0 -110 l-48 0 l0 110 q-40 6 -70 27 l-79 -80 l-36 36 l79 78 q-24 34 -29 69 l-111 0 l0 47 l111 0 q6 40 30 72 l-80 80 l36 36 l80 -82 q33 23 69 27 l0 107 l48 0 l0 -107 ZM300 376 q-48 0 -78.5 -32 q-30.5 -32 -30.5 -80 q0 -48 30.5 -79.5 q30.5 -31.5 78.5 -31.5 q48 0 79 31.5 q31 31.5 31 79.5 q0 48 -31 80 q-31 32 -79 32 Z" /><glyph glyph-name="female" unicode="&#x2640;" d="M299 539 q44 0 81 -21 q37 -21 58.5 -57 q21.5 -36 21.5 -80 q0 -60 -38.5 -102.5 q-38.5 -42.5 -97.5 -50.5 l0 -83 l96 0 l0 -40 l-96 0 l0 -105 l-48 0 l0 105 l-96 0 l0 40 l96 0 l0 82 q-59 8 -98 51 q-39 43 -39 103 q0 44 21.5 80 q21.5 36 58 57 q36.5 21 80.5 21 ZM299 493 q-48 0 -78.5 -32 q-30.5 -32 -30.5 -80 q0 -48 30.5 -79.5 q30.5 -31.5 78.5 -31.5 q48 0 79 31.5 q31 31.5 31 79.5 q0 48 -31 80 q-31 32 -79 32 Z" /></font>
</defs>
</svg>
